<?xml version="1.0" standalone="no"?>
<!DOCTYPE svg PUBLIC "-//W3C//DTD SVG 1.1//EN" "http://www.w3.org/Graphics/SVG/1.1/DTD/svg11.dtd" >
<svg xmlns="http://www.w3.org/2000/svg" xmlns:xlink="http://www.w3.org/1999/xlink" version="1.1">
<metadata>
Created by FontForge 20200427 at Wed May  4 12:45:08 2016
 By www
Copyright (c) 2016 by Robert E. Leuschke. All rights reserved.
</metadata>
<defs>
<font id="Hurricane-Regular" horiz-adv-x="353" >
  <font-face 
    font-family="Hurricane Regular"
    font-weight="400"
    font-stretch="normal"
    units-per-em="1000"
    panose-1="0 0 0 0 0 0 0 0 0 0"
    ascent="593"
    descent="-407"
    x-height="290"
    cap-height="612"
    bbox="-287.25 -393 1177.12 815"
    underline-thickness="50"
    underline-position="-100"
    unicode-range="U+000D-FB02"
  />
<missing-glyph horiz-adv-x="192" 
 />
    <glyph glyph-name=".notdef" horiz-adv-x="192" 
 />
    <glyph glyph-name=".null" horiz-adv-x="0" 
 />
    <glyph glyph-name="nonmarkingreturn" unicode="&#xd;" horiz-adv-x="192" 
 />
    <glyph glyph-name="NULL" horiz-adv-x="0" 
 />
    <glyph glyph-name="NULL" horiz-adv-x="0" 
 />
    <glyph glyph-name="space" unicode=" " horiz-adv-x="192" 
 />
    <glyph glyph-name="exclam" unicode="!" horiz-adv-x="330" 
d="M466 574q-10 -30 -135 -211t-140 -213q-9 -18 -17.5 -20.5t-11 7.5t0.5 22q23 64 96.5 187.5t117.5 188.5l7.5 7.5l7.5 7.5t7 6.5t8.5 7t8 5t10 5.5t10.5 4t12 3q6 2 12 0t6 -7zM158 51q-4 -11 -15 -30.5t-18 -19.5q-36 0 -36 22q0 13 31 44q4 7 14 7q18 0 24 -23z" />
    <glyph glyph-name="quotedbl" unicode="&#x22;" horiz-adv-x="387" 
d="M169 424q-3 -2 -7.5 -1.5t-5.5 2.5q-5 5 13 38.5t40.5 71t24.5 44.5q10 16 17 19t13.5 1.5t8.5 -7.5q4 -6 4 -19t-4 -20q-4 -10 -51 -69t-53 -60zM279 424q-3 -2 -7.5 -1.5t-5.5 2.5q-5 5 13 38.5t40.5 71t24.5 44.5q10 16 17 19t13.5 1.5t8.5 -7.5q4 -6 4 -19t-4 -20
q-4 -10 -51 -69t-53 -60z" />
    <glyph glyph-name="numbersign" unicode="#" horiz-adv-x="791" 
d="M755 634q-49 -74 -123 -196h113q97 0 97 -14q0 -13 -45.5 -20t-100.5 -7h-89q-16 -26 -44 -74t-38 -65h146q97 0 97 -14q0 -13 -45.5 -20t-100.5 -7h-122q-55 -95 -132 -212q-10 -16 -40 -14q-22 2 -21 14q0 5 4 10l131 202h-144q-55 -95 -132 -212q-10 -16 -40 -14
q-22 2 -21 14q0 5 4 10l131 202h-137q-20 0 -18 8q4 13 43 26q22 7 40 7h98l91 139h-180q-20 0 -18 8q4 13 43 26q22 7 40 7h141l129 198q8 10 30 10q18 0 11 -12q-49 -74 -123 -196h155l129 198q8 10 30 10q18 0 11 -12zM559 397h-154q-16 -26 -44 -74t-38 -65h145z" />
    <glyph glyph-name="dollar" unicode="$" horiz-adv-x="537" 
d="M60 -134l100 159q-42 20 -38 42q1 7 8 4q9 -1 24.5 -8t24.5 -8q35 58 80 130q-80 101 -65 179q10 59 59 100.5t107.5 58t114.5 13.5q29 44 57 90q10 20 45 35q26 11 26 -1q-1 -4 -5 -11l-76 -120q39 -10 65.5 -32t21.5 -55q-5 -30 -34 -59.5t-59.5 -47.5t-61.5 -31
q-8 -2 -11 -2q-4 1 -2 5q5 8 34 34t56 58t32 60q3 19 -14 28.5t-39 12.5h-6l-202 -322q33 -40 48 -66.5t12 -50.5q-5 -34 -57.5 -46t-89.5 -7q-7 0 -18 3l-79 -125q-11 -15 -42 -26q-18 -6 -18 1q0 2 2 5zM226 322q-8 -38 49 -110l176 286q-77 -13 -145.5 -62t-79.5 -114z
M315 99q3 14 -29 53l-63 -99q83 6 92 46z" />
    <glyph glyph-name="percent" unicode="%" horiz-adv-x="701" 
d="M595 536q0 -7 -8 -15l-73 -78q-179 -194 -292 -345q-71 -95 -87 -132q-5 -15 -5 -25q0 -12 9 -20l2 -2q0 -5 -7.5 -9t-12.5 -4q-22 0 -22 36.5t7 48.5q29 67 85.5 142t112.5 131.5t124 129t107 124.5q-125 -53 -204 -53q0 -2 1 -3v-1q0 -10 -6.5 -27.5t-12.5 -25.5
q-29 -44 -75.5 -81t-103.5 -37q-22 0 -34 17t-12 37q0 28 36 80.5t84.5 94.5t79.5 42q45 0 45 -42q0 -14 -4 -29q1 -1 8 -1q41 0 114.5 20t117.5 40q1 0 3 1l2 1q7 0 14 -4.5t7 -10.5zM520 124q0 -8 -21 -17l1 -1v-3q0 -14 -19 -44q-29 -42 -74.5 -84.5t-83.5 -42.5h-14
q-20 0 -33 17t-13 37q0 46 76 132t124 86q45 0 45 -43q0 -16 -4 -28q1 -2 8.5 -2.5t7.5 -6.5zM476 120q-12 -2 -13.5 8t2 22t-0.5 19q-32 0 -96 -78.5t-64 -110.5q0 -24 21 -24q34 0 92.5 66t58.5 98zM303 462q-11 7 -35 36q-32 0 -85.5 -64t-53.5 -96q0 -25 21 -25
q33 0 93 59t60 90z" />
    <glyph glyph-name="ampersand" unicode="&#x26;" horiz-adv-x="793" 
d="M542 419q-38 0 3 41q2 3 7 7l3 3l56 54q-17 16 -64 16q-53 0 -109.5 -31.5t-85.5 -83.5q-19 -33 -19 -67q0 -20 7 -33q44 10 99 10q48 0 48 -24q0 -10 -5 -18q-15 -26 -64 -26q-59 0 -96 28q-149 -49 -211 -155q-17 -36 -17 -60q0 -53 65 -73q24 52 76 98t106 74t107 44
q21 6 63.5 12t78.5 12t72.5 16t57.5 28t21 43q0 19 13 22t19 -7q38 -63 -76 -100q-38 -13 -126 -31q13 -10 13 -31q0 -25 -23 -58q-21 -30 -63 -62q-136 -99 -288 -100q-10 0 -36 2q-8 -27 -8 -52q0 -23 7.5 -53t19.5 -47q10 -13 0 -13q-15 2 -23 16q-31 49 -31 100
q0 32 7 54q-46 10 -79 35.5t-33 65.5q0 32 21 65q82 127 252 174q-31 40 -17.5 85t49 82.5t91 62t108.5 24.5q17 0 33 -2t24.5 -4.5t23 -7t18.5 -5.5l49 45l4 2q27 12 27 8q0 -2 -6 -8q-12 -12 -29.5 -35.5t-23.5 -29.5q6 -42 -29.5 -77t-86.5 -35zM470 194
q-85 -27 -166 -78t-116 -115q22 -3 41 -3q85 0 163 33.5t134 99.5q25 34 25 52q0 17 -14 28q-46 -9 -67 -17zM454 301v3q1 8 -22 8q-36 0 -72 -9q29 -17 62 -17q23 0 32 15z" />
    <glyph glyph-name="quotesingle" unicode="'" horiz-adv-x="277" 
d="M169 424q-3 -2 -7.5 -1.5t-5.5 2.5q-5 5 13 38.5t40.5 71t24.5 44.5q10 16 17 19t13.5 1.5t8.5 -7.5q4 -6 4 -19t-4 -20q-4 -10 -51 -69t-53 -60z" />
    <glyph glyph-name="parenleft" unicode="(" horiz-adv-x="375" 
d="M615 760q5 0 12.5 -3.5t7.5 -8.5q0 -3 -3.5 -5.5t-7.5 -3t-9 -1.5l-5 -1q-93 -16 -120 -26q-116 -39 -217 -131.5t-161 -206.5q-60 -116 -60 -210q0 -58 25 -101t76 -61q6 -3 48 -10q23 -5 23 -11q0 -14 -28 -14h-5q-90 12 -143 79.5t-53 160.5q0 79 41 170
q58 124 197.5 227.5t280.5 139.5q66 17 101 17z" />
    <glyph glyph-name="parenright" unicode=")" horiz-adv-x="651" 
d="M30 -35q-5 0 -13 3.5t-8 8.5q0 3 3.5 5.5t7.5 3t9 1.5l5 1q93 16 120 26q115 39 217.5 131.5t161.5 205.5q60 116 60 210q0 58 -25 101.5t-76 61.5q-6 2 -49 10q-22 4 -22 11q0 14 27 14h5q90 -12 143 -79t53 -160q0 -84 -41 -171q-58 -124 -197.5 -228t-279.5 -139
q-66 -17 -101 -17z" />
    <glyph glyph-name="asterisk" unicode="*" horiz-adv-x="352" 
d="M216 337q29 -39 32 -43q33 -47 33 -48q0 -5 -5 -5q-18 0 -84 76q-5 -24 -17 -61.5t-21 -37.5t-9 21q0 10 6.5 42t7.5 38q-2 -1 -14.5 -10.5t-24.5 -18.5t-26 -17t-21 -8q-8 0 -8 6q0 10 12 19l66 48q-1 0 -15.5 -0.5t-27 -0.5t-28 1t-24.5 4.5t-9 8.5t9 8.5t14 3.5l89 4
q-55 76 -55 87q0 7 7 7q4 0 11 -4t9 -8l51 -64l18 74q0 7 4.5 20.5t9.5 13.5q8 0 8 -28q0 -17 -12 -84q5 5 43 31t45 26q5 0 5 -5q0 -19 -73 -69h79q24 0 24 -8q0 -19 -109 -19z" />
    <glyph glyph-name="plus" unicode="+" horiz-adv-x="406" 
d="M234 437q12 3 12 -35q0 -41 -15 -142h71q73 0 94 2v-1q1 -1 1 -2q0 -21 -174 -43q-8 -31 -30.5 -90t-34.5 -59q-8 0 -13.5 8.5t-5.5 17.5q0 7 13.5 55t18.5 64q-152 0 -152 23q0 9 8 16.5t17 7.5q24 0 71 0.5t70 0.5q5 18 16.5 55.5t19.5 66t13 55.5z" />
    <glyph glyph-name="comma" unicode="," horiz-adv-x="146" 
d="M49 -124q-3 -2 -7.5 -1.5t-5.5 2.5q-5 5 14.5 39t44 72t27.5 45q10 16 17 19q6 4 18.5 -0.5t14.5 -10.5q14 -22 -7 -41q-3 -3 -31 -34.5t-54.5 -60t-30.5 -29.5z" />
    <glyph glyph-name="hyphen" unicode="-" horiz-adv-x="402" 
d="M284 216h-165q-20 0 -7 15q21 20 49 22h155q62 0 62 -12q0 -11 -30 -18t-64 -7z" />
    <glyph glyph-name="period" unicode="." horiz-adv-x="258" 
d="M172 45q0 -9 -15 -30t-23 -21q-35 0 -35 22q0 13 18.5 33t32.5 20q9 0 16 -7.5t6 -16.5z" />
    <glyph glyph-name="slash" unicode="/" horiz-adv-x="833" 
d="M-1 -96q126 131 334.5 377.5t315.5 357.5q13 18 50 16q29 -1 27 -14q-1 -6 -7 -12l-676 -727q-12 -12 -37 -12q-19 1 -7 14z" />
    <glyph glyph-name="zero" unicode="0" horiz-adv-x="551" 
d="M548 500q0 -10 -9 -10q-4 0 -21 5.5t-26 6.5q39 -17 60 -53.5t21 -79.5q0 -88 -66.5 -176t-162.5 -141.5t-183 -53.5q-51 0 -75.5 23.5t-24.5 74.5q0 82 64 188q39 64 109 124.5t141 92.5q-2 2 -2 7q0 4 4 6t11 2.5t12.5 1t13 0t8.5 -0.5q19 8 59 8q67 0 67 -25zM427 494
q-108 -34 -216 -166t-108 -244q0 -32 11 -47t42 -15q59 0 125.5 35t118.5 83q125 116 125 237q0 58 -25 80q-38 30 -73 37z" />
    <glyph glyph-name="one" unicode="1" horiz-adv-x="402" 
d="M181 32q40 0 141 -8q16 -2 5 -15q-9 -9 -20 -9q-35 2 -139.5 -2.5t-137.5 -4.5q-15 1 -15 27q0 15 8 15h121q37 62 108.5 194t98.5 180q-3 -1 -22 -10.5t-34.5 -17t-32.5 -14.5t-23 -7q-10 0 -10 12q0 8 9 12q3 2 20.5 10t26.5 13q34 17 106 73q12 23 42 23q26 0 26 -13z
" />
    <glyph glyph-name="two" unicode="2" horiz-adv-x="575" 
d="M168 58q178 -24 255 -24q30 0 61.5 13t31.5 39q0 16 -14 27t-28 18t-14 12q0 9 12 9q4 0 5 -1q27 -7 47.5 -24t20.5 -42q0 -41 -41.5 -63.5t-85.5 -22.5q-28 0 -56 1.5t-64 7t-51.5 7.5t-62 10.5t-52.5 9.5q-84 -39 -112 -39q-23 0 -23 17q0 16 15.5 30t32.5 18
q31 9 93 7q183 110 246 159q55 42 87 80.5t41 89.5q1 4 1 13q0 41 -51 41q-56 0 -128 -33t-122 -73q-4 -4 -8 -4q-11 0 -11 12q0 5 6 11q53 47 148.5 88.5t160.5 41.5q78 0 78 -58q0 -51 -47.5 -110t-125 -114t-132.5 -89t-113 -65z" />
    <glyph glyph-name="three" unicode="3" horiz-adv-x="609" 
d="M475 309q44 0 78 -23t34 -64q0 -12 -3 -23q-13 -52 -54.5 -93.5t-97 -65t-112.5 -36t-109 -12.5q-39 0 -76 6t-72.5 29.5t-35.5 62.5q0 23 17 55q19 34 73.5 59t97.5 25q10 0 10 -9q0 -11 -13 -11q-29 0 -69.5 -26t-48.5 -52q-4 -11 -4 -27q0 -46 43.5 -67t96.5 -21
q94 0 181 49.5t119 132.5q7 13 7 27q0 18 -11.5 30.5t-30 18t-34.5 7.5t-33 2q-46 0 -82 -12q-9 -4 -16 -4q-17 0 -17 16q0 11 7.5 19t18.5 8q70 0 137 25.5t78 81.5q1 2 1 10q0 33 -44 33q-79 0 -187 -66q-3 -3 -8 -3q-8 0 -8 14q0 21 17 29q12 5 20.5 9.5t12 7.5t12 11
t14.5 14q3 5 9 5q8 0 8 -9q0 -5 -4 -9q82 32 135 32q77 0 80 -50q3 -44 -48 -91q-41 -37 -89 -45z" />
    <glyph glyph-name="four" unicode="4" horiz-adv-x="574" 
d="M382 196q12 0 46 -4.5t51 -4.5q23 0 42.5 14.5t19.5 37.5q0 3 -1.5 9t-1.5 10q0 9 9 9q11 0 20.5 -20t9.5 -34q0 -50 -101 -50q-20 0 -62 1.5t-50 1.5q-47 -63 -47 -169q0 -13 -15 -13q-8 0 -13.5 15t-5.5 26q0 35 45 141q-84 3 -127 0t-80.5 -8t-45.5 -5q-9 0 -14.5 8
t-5.5 17q0 15 11 22t30 9.5t24 4.5q13 6 90 46q54 27 166.5 109.5t162.5 125.5q2 1 6.5 6t7.5 7t8 4.5t10 2.5q9 0 19.5 -4.5t10.5 -11.5q-1 -1 -2 -4q-19 -27 -66.5 -90.5t-85 -115.5t-65.5 -93zM477 409q-87 -68 -184 -130t-160 -86q39 6 108.5 6.5t96.5 -5.5
q63 125 139 215z" />
    <glyph glyph-name="five" unicode="5" horiz-adv-x="594" 
d="M177 -6q-21 0 -43 3.5t-45.5 12t-38 25.5t-14.5 41q0 45 54 92q8 9 17 9q8 0 8 -8q0 -4 -18.5 -26.5t-18.5 -43.5q0 -38 40 -57.5t82 -19.5q95 0 193.5 68.5t120.5 158.5q2 14 2 16q0 37 -38 53.5t-81 16.5q-64 0 -115 -25q-4 -2 -24 -13t-36 -19t-21 -8q-10 0 -10 12
q0 13 11 19l96 119q9 10 37 10q20 0 20 -7q0 -3 -20.5 -24.5t-43 -45.5t-25.5 -28q99 37 139 37q175 0 175 -88q0 -17 -4 -29q-23 -74 -90 -133t-148.5 -88.5t-160.5 -29.5zM707 524q0 -25 -31 -42t-59 -17h-219q-51 0 -81 -21q-2 0 -3 -1l-2 -1q-6 0 -7 7.5t2 12.5
q10 31 31.5 40t61.5 9q39 0 111 -11t111 -11q20 0 39 10.5t22 29.5q2 15 13 15t11 -20z" />
    <glyph glyph-name="six" unicode="6" horiz-adv-x="535" 
d="M88 81q0 -70 98 -70q69 0 142 25q83 25 111 82q7 10 7 26q0 26 -34 26q-108 0 -208 -131q-1 -2 -4.5 -6t-5 -5.5t-5 -3.5t-7.5 -2q-5 0 -6.5 4t1.5 8q0 3 2 5q106 163 239 163q33 0 57.5 -13t24.5 -43q0 -10 -3 -21q-13 -46 -72.5 -79.5t-122 -47t-114.5 -13.5
q-58 0 -96 23t-38 77v5q5 82 78 160t160 125q83 47 151 76.5t141 40.5q13 2 25.5 -6.5t12.5 -22.5q0 -11 -11 -14t-36.5 -9t-39.5 -10q-107 -33 -217 -87q-75 -36 -145 -104t-83 -138q-2 -14 -2 -20z" />
    <glyph glyph-name="seven" unicode="7" horiz-adv-x="400" 
d="M124 13q0 -3 0.5 -7.5t0.5 -7.5q0 -10 -13 -10q-17 0 -17 29q0 50 39 115.5t101.5 130t112 109t99.5 84.5h-147q-101 0 -142 -41q-10 -10 -35 -60q-6 -17 -14 -1q-6 11 -6 31q0 18 12 50.5t21 47.5q8 0 8 -21q17 16 44.5 24t44.5 9t51 1q29 0 60 -4t68.5 -10t62.5 -9
q43 32 45 32q11 0 21.5 -10.5t10.5 -21.5q0 -4 -4 -7q-14 -11 -48 -35.5t-53 -39.5q-120 -93 -212 -182q-39 -39 -75 -97t-36 -99z" />
    <glyph glyph-name="eight" unicode="8" horiz-adv-x="481" 
d="M37 64q4 45 114 140q20 18 182 131q-38 16 -60 32.5t-27 43.5q-5 34 36 59.5t83 33.5q29 4 59.5 2.5t53.5 -17t23 -41.5q45 29 50 31q1 1 11 4q4 -1 3 -3q-5 -7 -66 -51q-2 -8 -11 -27q-13 -23 -13 -4q0 3 0.5 7.5t0.5 6.5l-98 -70q41 -21 62.5 -48t18.5 -76
q-5 -67 -56.5 -120.5t-118 -79t-129.5 -27.5q-47 -3 -84 14t-34 59zM433 236q2 34 -18 53t-60 37q-156 -114 -193 -148q-89 -86 -93 -121q-2 -21 18 -27.5t47 -6.5q83 3 188 73t111 140zM297 395q2 -9 12.5 -17.5t18 -12.5t28.5 -13l118 79q-8 38 -52 38q-50 0 -91 -23
t-34 -51z" />
    <glyph glyph-name="nine" unicode="9" horiz-adv-x="413" 
d="M477 459q28 0 32 -14q8 -11 -8 -24q-31 -26 -74.5 -62t-66.5 -55t-52.5 -45t-54.5 -50q-39 -39 -75 -97t-36 -99q0 -3 0.5 -7.5t0.5 -7.5q0 -10 -13 -10q-17 0 -17 29q0 106 193 299q-120 -66 -180 -66q-50 0 -50 42q0 52 48.5 95.5t118.5 68.5t137.5 38.5t114.5 13.5
q10 0 27.5 -4t17.5 -11q0 -23 -56 -22q-4 0 -12 0.5t-12 0.5q-29 0 -104 -15q-33 -7 -68 -19t-75.5 -31t-66.5 -47t-27 -59v-1q0 -24 24 -24q7 0 9 1q72 11 273 151q8 6 38 28q5 3 14 3z" />
    <glyph glyph-name="colon" unicode=":" horiz-adv-x="310" 
d="M271 227q0 -9 -15 -30t-23 -21q-35 0 -35 22q0 13 18.5 33t32.5 20q9 0 16 -7.5t6 -16.5zM172 45q0 -9 -15 -30t-23 -21q-35 0 -35 22q0 13 18.5 33t32.5 20q9 0 16 -7.5t6 -16.5z" />
    <glyph glyph-name="semicolon" unicode=";" horiz-adv-x="291" 
d="M267 222q0 -7 -13.5 -26.5t-20.5 -19.5q-32 0 -32 20q0 13 16 30t30 17q9 0 15 -6t5 -15zM49 -124q-3 -2 -7.5 -1.5t-5.5 2.5q-5 5 14.5 39t44 72t27.5 45q10 16 17 19q6 4 18.5 -0.5t14.5 -10.5q14 -22 -7 -41q-3 -3 -31 -34.5t-54.5 -60t-30.5 -29.5z" />
    <glyph glyph-name="less" unicode="&#x3c;" horiz-adv-x="318" 
d="M146 239q4 16 191 146q15 9 23 8q7 -1 5 -8q-1 -4 -35.5 -31.5t-80 -62t-46.5 -35.5q61 -117 55 -139q-6 -14 -20 -7q-8 18 -20 36.5t-20 28t-26 30t-25 28.5q-2 5 -1 6z" />
    <glyph glyph-name="equal" unicode="=" horiz-adv-x="478" 
d="M353 144h-214q-20 0 -7 15q21 20 49 22h204q62 0 62 -12q0 -11 -30 -18t-64 -7zM411 259h-214q-20 0 -7 15q21 20 49 22h204q62 0 62 -12q0 -11 -30 -18t-64 -7z" />
    <glyph glyph-name="greater" unicode="&#x3e;" horiz-adv-x="357" 
d="M327 259q-5 -19 -191 -146q-14 -9 -23 -8q-7 1 -5 8q2 4 38 32.5t77 60t47 36.5q-61 117 -55 139q6 14 20 7q8 -18 20 -36.5t20 -28t26 -30t25 -28.5q2 -5 1 -6z" />
    <glyph glyph-name="question" unicode="?" horiz-adv-x="510" 
d="M211 169q-5 -8 -14 -14t-13 -1t6 31q11 28 46.5 53.5t80 46t89.5 42t82.5 51.5t50.5 64q2 3 2 13q0 38 -41.5 59t-83.5 21q-25 0 -50.5 -3.5t-52 -18.5t-26.5 -40q0 -5 2 -16t2 -17q0 -9 -6 -10q-11 0 -19 12.5t-8 26.5q0 51 49.5 74.5t127.5 23.5q57 0 102.5 -25.5
t45.5 -78.5q0 -107 -210 -181q-59 -22 -98.5 -47t-63.5 -66zM172 45q0 -9 -15 -30t-23 -21q-35 0 -35 22q0 13 18.5 33t32.5 20q9 0 16 -7.5t6 -16.5z" />
    <glyph glyph-name="at" unicode="@" horiz-adv-x="842" 
d="M793 418q0 -1 -2.5 -5t-4 -8t-1.5 -5q15 -56 -10.5 -119.5t-89.5 -119.5q-171 -152 -396 -142q-60 3 -98.5 36.5t-45.5 95.5t33 150q42 93 167 182t262 100q121 8 170.5 -42.5t15.5 -122.5zM771 430l2 6q2 5 3 9t2.5 11t1 14t-1.5 15t-5 16.5t-10 16.5q-17 26 -69 33.5
t-104 2.5q-152 -15 -275 -142q-97 -99 -122 -209q-25 -107 39 -148q26 -17 65 -19q173 -10 331 128q100 89 112 170q1 4 0 4t-3 -2q-6 -7 -36 -41.5t-50.5 -55.5t-50.5 -46.5t-57.5 -35t-50.5 -1.5q-46 16 -35 75q1 2 0 2.5t-3 -0.5q-4 -4 -18 -17.5t-25 -23.5t-25 -21.5
t-27 -18t-22 -6.5q-21 0 -40 13t-22 33q-6 41 34.5 97.5t99 96.5t102.5 40q34 0 43 -34q2 0 6 1.5t6 1.5q16 0 25 -20q0 -6 -16 -29q-4 -7 -23.5 -33.5t-30.5 -43.5q-35 -56 -31 -79q7 -18 21 -19.5t39 16t39 29.5t22 20q67 61 128 135v2q-6 45 -41 76t-81 44q-19 6 -55.5 6
t-55.5 -6q-12 -3 -12.5 4t6.5 10q48 12 97.5 11t98 -24t75.5 -64zM545 385v1q-14 25 -75 -9t-114 -94t-46 -99q0 -6 4.5 -13t14.5 -7q16 0 36.5 12.5t38 29t40 43.5t35.5 44.5t32 44.5t23 32q3 3 6.5 8t4.5 6v1z" />
    <glyph glyph-name="A" unicode="A" horiz-adv-x="469" 
d="M432 98q-32 -77 -40 -115t2 -55q1 -2 -4 -5t-8 -1q-17 7 -21.5 26.5t5.5 57t17 59t25 68.5q31 76 76.5 219t55.5 190q-108 -44 -189.5 -110.5t-173.5 -172.5h141q87 0 87 -14q0 -16 -85.5 -23.5t-150.5 -7.5q-30 0 -71 -54.5t-71.5 -119t-41.5 -107.5q0 -8 -5 -8
q-6 0 -12.5 10t-6.5 16q0 48 42 129t83 132q-18 0 -51.5 -0.5t-51.5 -0.5q-15 0 -21 15q5 13 36.5 18t70.5 6t49 4q64 82 214.5 201.5t222.5 119.5q17 0 38.5 -7t21.5 -21q0 -12 -13.5 -50t-37 -94.5t-45 -105.5t-49.5 -112.5t-38 -86.5z" />
    <glyph glyph-name="B" unicode="B" horiz-adv-x="594" 
d="M723 446q2 -28 -16 -51.5t-51 -40.5t-65 -29t-69.5 -24.5t-52.5 -19.5q51 -12 90.5 -51.5t45.5 -88.5q6 -51 -74.5 -93t-184 -60t-181.5 -12h-2q-4 1 -19.5 2t-30 3t-30.5 5t-26 8.5t-11 12.5q-1 6 17 6q25 0 51 -3l27 -3q-4 11 -4 20q-8 93 85.5 264.5t175.5 260.5
q-17 1 -52 1q-90 0 -123 -11q-29 -9 -41 -9q-11 0 -11 4q-2 18 18 31.5t49 20.5t53.5 10t39.5 3q45 0 102.5 -7t124.5 -22.5t114 -48.5t51 -78zM169 6q80 0 172 21.5t158 60.5t62 81q-2 29 -31.5 50.5t-62.5 30t-60 8.5q-23 0 -65 -13.5t-51 -13.5t-16.5 11t-7.5 20
q-101 -150 -98 -256zM696 454q-3 44 -101 69.5t-163 25.5q12 -17 13 -24t-5 -15q-13 -16 -42.5 -52.5t-46 -58t-38 -54.5t-35.5 -62h24q29 0 93.5 15.5t133.5 38.5t119.5 55.5t47.5 61.5z" />
    <glyph glyph-name="C" unicode="C" horiz-adv-x="554" 
d="M226 -32q-74 0 -124.5 38.5t-56.5 110.5q-8 88 67 201.5t185 193t197 77.5q35 -1 60.5 -22.5t28.5 -55.5t-18.5 -57t-54.5 -22q-17 0 -18 8q3 7 13 15.5t18.5 16t15 23.5t4.5 37q-4 33 -42 33q-61 1 -135.5 -50.5t-134 -125.5t-98 -159t-32.5 -145q5 -43 37.5 -65.5
t76.5 -23.5q54 -1 120.5 21t130 59t98 60t65.5 46q5 4 5 -5t-9 -18q-70 -72 -188.5 -132.5t-210.5 -58.5z" />
    <glyph glyph-name="D" unicode="D" horiz-adv-x="587" 
d="M671 367q7 -61 -20 -119t-76.5 -102t-111 -78t-126 -51.5t-120.5 -17.5q-13 0 -41.5 8t-28.5 16q0 11 50 11q45 0 104.5 19.5t119.5 55t110.5 78.5t80 95.5t24.5 100.5q-4 36 -19.5 64t-34.5 46t-50.5 30.5t-56.5 19t-63 10t-60.5 4t-58.5 0.5q-104 0 -149 -15
q-29 -9 -41 -9q-11 0 -11 4q-4 22 37 36.5t79 18.5t61 4q375 0 402 -229zM87 32q2 -14 12 -14q9 0 19 6.5t11 6.5q-1 0 2 -3q0 -1 1 -2q2 -17 -10.5 -32.5t-29.5 -15.5q-30 0 -39 55q-4 41 50.5 164.5t125.5 232t106 108.5q11 0 28 -10t19 -21q1 -4 -46.5 -61t-105.5 -128
t-103 -154t-40 -132z" />
    <glyph glyph-name="E" unicode="E" horiz-adv-x="589" 
d="M677 541q-19 8 -79 8q-44 0 -113.5 -7t-88.5 -19q-17 -10 -64.5 -67.5t-75.5 -95.5q42 -2 119.5 3.5t110.5 5.5q83 0 110 -3q34 -5 -22 -22q-1 -1 -3 -1q-30 -5 -162 -10.5t-194 -32.5q-1 -2 -11 -19.5t-17 -32.5t-18.5 -39.5t-17.5 -44.5t-11.5 -44t-2 -42t12.5 -33
t29.5 -23.5t51.5 -8.5q83 0 207.5 45t211.5 95q10 5 11.5 0.5t-4.5 -11.5q-37 -54 -191 -111t-238 -57q-126 0 -141 111q-2 21 1 43t13 48.5t17 42t22.5 46.5l18.5 37q-58 0 -61 28q-1 5 1.5 7.5t7 3t9 0t10 -1t7.5 -0.5q34 0 62.5 26t62.5 79t39 60q-2 4 -11.5 8t-11.5 17
q-8 55 262 55q90 0 144 -9q30 -9 28 -31q-1 -16 -13 -17q-10 -1 -18 14z" />
    <glyph glyph-name="F" unicode="F" horiz-adv-x="484" 
d="M736 542q-54 0 -204 -11q-31 -2 -56 -7.5t-44 -12t-37 -20t-29 -23t-26.5 -31t-24 -34.5t-26 -41t-28.5 -45q28 -9 133 -9q32 0 93.5 3t92.5 3q41 0 31 -10q-12 -13 -52 -22q-3 -1 -5 -1q-194 -28 -335 -28q-17 0 -68 -97.5t-51 -125.5q0 -16 5 -20q22 -18 8 -25
q-15 -7 -33 8q-14 13 -14 34q0 69 101 239q-13 9 -13 21q0 21 54 31q13 20 35.5 57t42 66.5t39.5 53.5q-53 40 31 63q40 11 93 13q123 5 289 5q36 0 46 -16q6 -10 -16 -15q-12 -3 -32 -3z" />
    <glyph glyph-name="G" unicode="G" horiz-adv-x="750" 
d="M857 237q0 -5 -6 -7t-16 -2.5t-19.5 0t-19 1.5t-12.5 1q-43 0 -98.5 -57t-90.5 -125.5t-27 -100.5q-9 -4 -16 -4q-29 0 -29 39q0 16 10 38t25.5 48.5t19.5 36.5q-73 -50 -192.5 -92.5t-201.5 -42.5q-147 0 -147 135q0 83 59.5 175.5t146 163.5t188 117.5t182.5 46.5
q39 0 67 -31t28 -70q0 -34 -30 -68.5t-64 -34.5q-11 0 -11 8q0 5 16.5 22t33 42.5t16.5 50.5q0 42 -56 42q-60 0 -154 -50t-179 -121t-147 -156t-62 -148q0 -79 127 -79q45 0 114.5 16t141 42t128.5 67t70 84q-33 4 -70 0.5t-99.5 -13.5t-75.5 -11q-25 -6 -53.5 -15.5
t-44.5 -14.5t-30 -7.5t-20 2.5t-6 19q0 25 55.5 42t138.5 23.5t136 9t91 2.5q183 0 183 -24z" />
    <glyph glyph-name="H" unicode="H" horiz-adv-x="593" 
d="M568 257q2 -1 9 -2.5t12 -3.5t10 -5.5t5 -8.5q0 -3 -14 -9t-32 -16.5t-25 -21.5q-19 -31 -48.5 -102.5t-29.5 -96.5q0 -13 8 -13q19 0 17 -8q-1 -7 -11 -7q-41 0 -41 45q0 32 11 68t37.5 92.5t29.5 63.5q-7 2 -30 2q-98 0 -231 -14q-10 -1 -29 -3t-24 -3t-18 -3.5
t-16.5 -6t-12 -8.5t-14 -13t-12.5 -18t-15 -25q-67 -115 -67 -157q0 -12 8 -12t21 9.5t14 9.5q2 0 2 -2q0 -12 -11 -23t-24 -11q-37 0 -37 42q0 67 83 208l-13 -1q-33 0 -33 15q0 16 27.5 28t50.5 16q205 337 252 337q11 0 21.5 -11t11.5 -22q-61 -74 -85 -104t-69 -91
t-75 -112q247 9 339 3q20 48 119.5 192t131.5 144q12 0 23 -13t11 -25q0 -7 -7 -14q-112 -106 -230 -289z" />
    <glyph glyph-name="I" unicode="I" horiz-adv-x="407" 
d="M709 571q-5 -10 -46 -14.5t-95.5 -17t-85.5 -41.5q-71 -65 -158 -206t-118 -236q33 -1 91 0.5t82 1.5q27 0 27 -8t-14 -12.5t-24 -4.5q-202 -16 -337 -47q-1 0 -4.5 -0.5t-5.5 -0.5q-14 0 -16 14q-1 10 5.5 17.5t20 13t27.5 9t33 6t32 4t29.5 2.5t19.5 1
q26 100 115.5 267.5t155.5 222.5q-26 0 -73.5 -16.5t-62.5 -16.5q-8 0 -15 8t-7 16q-2 19 39 28.5t91.5 13.5t59.5 9q4 2 14 15t16 13q16 0 44 -28q85 0 145 -5q14 0 15 -8z" />
    <glyph glyph-name="J" unicode="J" horiz-adv-x="484" 
d="M113 246q8 6 14 -1.5t-2 -14.5q-34 -25 -46 -88.5t4 -117t53 -53.5q47 0 114 71t125.5 168t104.5 188.5t60 140.5q-49 0 -142 -18t-93 -44q0 -15 54.5 -25t54.5 -17q0 -15 -51 -15q-33 0 -58.5 18.5t-25.5 50.5q0 24 21.5 40.5t58 25t69 12.5t71.5 7t49 4q20 31 37 31
q8 0 38 -26q4 -1 47.5 -4t75.5 -10t32 -20q0 -3 -7 -4.5t-17.5 -1.5t-20.5 0.5t-18.5 1t-9.5 0.5q-27 0 -81 -2q-17 -26 -55.5 -93t-73 -126.5t-83.5 -131.5t-93 -123.5t-94.5 -86.5t-94.5 -35q-43 0 -68 34.5t-26.5 82t18.5 99.5t59 83z" />
    <glyph glyph-name="K" unicode="K" horiz-adv-x="586" 
d="M322 286q7 -30 37.5 -96.5t73 -128t69.5 -61.5q29 0 39 38.5t7 73.5q0 15 5 15q11 0 21 -21t10 -34q2 -38 -25 -68.5t-65 -30.5q-31 0 -60 27q-33 33 -87 114t-84 136q-61 -22 -122 -92.5t-57 -132.5q2 -17 12 -17q4 0 5.5 -5.5t-1.5 -11.5t-9 -6q-35 0 -40 44
q-8 105 196 463q2 3 21.5 38.5t31.5 50.5q9 11 36 11q28 0 29 -18q0 -10 -11 -28q-14 -22 -44.5 -70.5t-48 -76.5t-41 -70t-39.5 -79q66 31 144.5 76.5t119 71t144 94.5l121.5 81q16 10 26 10q13 0 14 -10q2 -15 -91 -76.5t-207.5 -130.5t-129.5 -80z" />
    <glyph glyph-name="L" unicode="L" horiz-adv-x="515" 
d="M529 541q1 -2 0 -6.5t-4 -4.5q-6 3 -12 8t-12.5 8t-17.5 3q-62 0 -158.5 -102t-169 -224t-80.5 -185q116 18 297 18q131 0 134 -31q0 -4 -10.5 -6.5t-26.5 -2.5t-31.5 0.5t-29 1.5t-15.5 1q-115 0 -233 -19q-10 -1 -66 -14t-60 -13q-16 0 -17 15q-3 22 2.5 33t27.5 10
q2 67 72 205t167 254t160 116q20 0 50.5 -23t32.5 -42z" />
    <glyph glyph-name="M" unicode="M" horiz-adv-x="820" 
d="M763 52q0 -28 11 -28q14 0 12 -14q-6 -17 -23 -19q-35 0 -35 59q0 46 44 176.5t104 248t95 117.5q10 0 26 -9t16 -18q0 -3 -25.5 -41.5t-62.5 -97.5t-74 -125t-62.5 -134.5t-25.5 -114.5zM486 153q-42 0 -68 24t-33.5 60.5t-10 80.5t2.5 84q1 10 14 101
q-107 -112 -205 -261t-120 -267q-2 -16 -15 -16q-19 0 -19 39q0 43 79.5 190.5t173.5 279t127 131.5q11 0 31 -14.5t20 -24.5q0 -5 -12 -77q-5 -23 -11.5 -63.5t-12 -98t2.5 -98t33 -40.5q36 0 105.5 54t132.5 119.5t116.5 119.5t59.5 54q5 -1 2.5 -9.5t-5.5 -11.5
q-28 -52 -96 -133.5t-154 -152t-138 -70.5z" />
    <glyph glyph-name="N" unicode="N" horiz-adv-x="578" 
d="M380 -6q-40 0 -62.5 31.5t-25 82t2.5 108t18.5 116.5t24.5 99t19 63q-41 -47 -85.5 -103t-100 -132.5t-90.5 -147.5t-35 -115q0 -17 10 -17q18 0 18 -8t-13 -8q-23 0 -33 10t-10 33q0 69 86 221t161 253q-15 4 -15 10q0 9 49 54.5t61 45.5q16 0 29.5 -13t13.5 -30
q0 -2 -2 -8q-5 -18 -10 -39.5t-14.5 -63.5t-16 -82t-12.5 -87t-5.5 -86t5.5 -72t21 -51.5t41 -18.5q47 0 98.5 64t95.5 161q38 80 64 191q29 122 -8 122q-5 0 -16.5 -3.5t-18.5 -3.5q-12 0 -12 7q0 13 23.5 24.5t39.5 11.5q72 0 53 -117q-19 -122 -111 -278
q-93 -156 -181 -206q-31 -18 -57 -18z" />
    <glyph glyph-name="O" unicode="O" horiz-adv-x="698" 
d="M802 377q0 -62 -38 -124.5t-98.5 -111t-132 -87t-144 -59t-129.5 -20.5q-160 0 -160 161q0 167 240 375q-94 -32 -179 -109q-15 -14 -21.5 -7.5t5.5 21.5q60 81 170 128t217 47q71 0 129.5 -20.5t99.5 -70.5t41 -123zM755 421q0 51 -34 84t-77 44t-93 11q-73 0 -142 -22
q19 -3 37 -13t18 -26q0 -8 -11 -13q-101 -33 -209.5 -147.5t-108.5 -212.5q0 -118 117 -118q69 0 157 36.5t164.5 93t129 133.5t52.5 150z" />
    <glyph glyph-name="P" unicode="P" horiz-adv-x="461" 
d="M351 569q-76 0 -173.5 -25t-168.5 -60q-14 -8 -14 3q-4 36 76.5 63t157 36.5t115.5 9.5q40 0 82 -6t90 -20.5t79.5 -45.5t34.5 -75q3 -47 -22.5 -86t-67 -63.5t-93.5 -42t-99.5 -25t-87.5 -7.5q-26 0 -39 4q-32 12 3 19q53 7 108.5 21t119.5 38.5t103 63.5t36 86
q-3 34 -30.5 58t-68.5 34.5t-75.5 15t-65.5 4.5zM81 -10q0 -14 -6 -14q-11 0 -19 19t-8 31q-5 78 67.5 218.5t160.5 254.5q4 4 10.5 14.5t11.5 18.5t13.5 16.5t15.5 9t17 -3.5q23 -13 24 -30q0 -5 -31 -42.5t-75 -94t-87 -122t-70.5 -140.5t-23.5 -135z" />
    <glyph glyph-name="Q" unicode="Q" horiz-adv-x="694" 
d="M755 359q0 -66 -53.5 -137t-123.5 -120.5t-134 -72.5q42 -39 97 -71.5t98 -32.5q40 0 40 35q0 28 11 25t18 -26q1 -5 1 -10q0 -28 -18.5 -43.5t-46.5 -15.5q-25 0 -59 12t-65.5 29t-59.5 34.5t-46 29.5t-19 12l-55 -15q-80 -22 -143 -22q-78 0 -125.5 39.5t-47.5 115.5
q0 75 44.5 157t107.5 149q-5 8 -5 15q0 29 38 57.5t90 47t101 30t75 11.5q71 0 133.5 -25.5t104.5 -80t42 -127.5zM718 381q0 58 -41 100t-95 59.5t-110 17.5q-20 0 -54 -6q25 -8 25 -20q0 -4 -2.5 -7t-4.5 -4t-7 -3t-6 -2q-128 -48 -202 -106q-66 -51 -115.5 -136.5
t-49.5 -161.5q0 -56 39 -80.5t98 -24.5q21 0 44.5 3t37 6t43 10.5t39.5 9.5q-9 7 -27.5 22t-30.5 24.5t-29.5 19.5t-33.5 15q-17 -12 -26.5 -9t-9.5 31q0 43 36 43q14 0 41 -17t49 -35t53 -45t35 -30q52 19 122.5 74t126 127.5t55.5 124.5z" />
    <glyph glyph-name="R" unicode="R" horiz-adv-x="554" 
d="M92 -19q0 -17 12 -17q4 0 5.5 -6t-1.5 -11.5t-9 -5.5q-38 0 -40 44q-5 68 62.5 212t133.5 251q45 80 53 89q9 11 36 11t28 -18q1 -14 -11 -28q-18 -29 -56 -87.5t-66 -104.5t-51 -92q-3 -6 -18.5 -34t-27 -50t-25 -52t-20 -56t-5.5 -45zM360 569q-76 0 -173.5 -25
t-168.5 -60q-13 -9 -14 3q-4 36 76.5 63t157.5 36.5t116 9.5q41 0 82.5 -6t89 -20.5t79 -45.5t35.5 -75q3 -41 -16 -76t-51 -58.5t-76 -42t-85.5 -28.5t-83.5 -15q29 -73 79.5 -151t86.5 -78q21 0 32.5 22.5t13.5 46t0 43.5q0 15 5 15q12 0 21.5 -20.5t9.5 -34.5
q2 -38 -24.5 -68.5t-64.5 -30.5q-31 0 -60 27q-33 32 -83 101.5t-81 123.5q-18 0 -33 4q-31 12 4 19q33 5 68 12t79.5 19t82.5 29t70.5 38t50.5 50t16 61q-3 34 -30.5 58t-68.5 34.5t-75.5 15t-66.5 4.5z" />
    <glyph glyph-name="S" unicode="S" horiz-adv-x="448" 
d="M619 475q-2 -52 -48 -99.5t-98 -67.5q-6 -3 -12 -3q-5 2 -5 5q4 9 36 40.5t60.5 69t29.5 69.5q0 17 -14.5 28.5t-26.5 14.5t-33 7q-60 6 -133.5 -18t-130.5 -76t-59 -115q-1 -32 30.5 -76.5t69.5 -82t69.5 -81t30.5 -72.5q-2 -39 -55 -52.5t-102 -8.5q-30 3 -78.5 24.5
t-48.5 45.5q0 7 10 6q11 -1 33 -9.5t35 -10.5q24 -1 58.5 -2t66 13.5t32.5 41.5q0 14 -29 47.5t-63.5 70t-62.5 90.5t-27 104q1 57 34 100.5t82.5 66t105.5 31.5t107 3q51 -5 94.5 -30.5t41.5 -73.5z" />
    <glyph glyph-name="T" unicode="T" horiz-adv-x="390" 
d="M751 545q0 -8 -26 -8q-18 0 -52 6q-56 9 -171 9q-188 0 -306 -14q-4 -14 -62 -28.5t-82 -14.5q-37 0 -37 36q0 19 42.5 32t111 17.5t104.5 5.5t71 1h49h55.5t49.5 -0.5t56 -2t49 -3.5t55 -5.5t49 -8.5l7 -1q7 -2 12 -4t11.5 -4.5t10 -5.5t3.5 -7zM126 -35q2 -17 12 -17
q4 0 5.5 -6t-1.5 -11.5t-9 -5.5q-35 0 -40 44q-8 105 196 463q45 80 53 89q9 11 36 11q28 0 29 -17q0 -11 -11 -29q-19 -31 -56.5 -88.5t-66 -103.5t-51.5 -92q-1 -2 -18.5 -33.5t-27.5 -51.5t-24 -51t-20.5 -56.5t-5.5 -44.5z" />
    <glyph glyph-name="U" unicode="U" horiz-adv-x="492" 
d="M478 -57q2 -3 -1.5 -5.5t-7.5 -2.5q-19 0 -33 20t-20.5 50t-9 54.5t-2.5 42.5q0 45 9 115q-41 -46 -86 -89.5t-110 -87t-109 -43.5q-41 0 -63.5 27.5t-22.5 70.5q0 60 58 198.5t103 206.5q4 5 18 28t20 30t21 16t33 9q12 0 19.5 -2t9.5 -6.5t1.5 -9t-5 -11.5t-8 -12
t-10 -12.5t-9.5 -11.5q-40 -57 -64 -94t-64.5 -105.5t-62 -128.5t-21.5 -106q0 -56 40 -56q49 0 102.5 33t97 80.5t87.5 111.5t72 112.5t52 97.5q5 10 24 52.5t32 61.5q14 19 41 19q13 0 27.5 -5t14.5 -15q0 -3 -12.5 -23t-36.5 -60t-44 -78q-78 -152 -99 -276t19 -196z" />
    <glyph glyph-name="V" unicode="V" horiz-adv-x="336" 
d="M100 -10q-10 0 -10 17t7.5 52t8.5 45q9 64 12 116.5t1 117.5t-19 122t-49 100q-6 7 15 21.5t31 14.5q25 -2 43 -73.5t24 -137t6 -100.5q0 -105 -11 -156q60 88 226.5 287.5t200.5 199.5q45 0 -114 -146q-11 -10 -14 -13q-93 -100 -181 -227.5t-112 -196.5
q-4 -12 -27.5 -27.5t-37.5 -15.5z" />
    <glyph glyph-name="W" unicode="W" horiz-adv-x="867" 
d="M935 327q-56 -122 -156 -224.5t-182 -102.5q-117 0 -117 176q0 30 4.5 83.5t5.5 65.5q-20 -18 -70 -72t-68 -73q-179 -189 -263 -189q-67 0 -67 103q0 101 98 265.5t195 217.5q18 12 52 15q18 2 13 -6q-2 -3 -8 -8q-105 -88 -212 -246q-100 -148 -100 -253q0 -49 34 -49
q40 0 109 57.5t125 117.5q102 107 172 220q2 3 13 28t22 38t24 13q30 0 42 -16q5 -6 4.5 -16t-2 -17t-6.5 -19.5t-5 -14.5q-4 -14 -17 -54.5t-18.5 -60t-13.5 -53t-11.5 -62.5t-3.5 -59q0 -104 65 -104q49 0 106.5 50.5t103.5 121t77 146.5q12 26 24.5 71.5t10 97
t-36.5 58.5q-1 0 -3.5 0.5t-4 0.5t-3.5 0.5l-4 1t-3 2t-2 3.5t-1 4q0 12 25 12q47 0 69.5 -32t20 -78t-12.5 -88t-24 -72z" />
    <glyph glyph-name="X" unicode="X" horiz-adv-x="531" 
d="M283 314q6 -33 16.5 -71t28.5 -88t45 -82.5t56 -32.5q13 0 45 24q17 12 35 35.5t30.5 39.5t19.5 16q6 0 6 -7q0 -35 -64.5 -94.5t-103.5 -59.5q-102 0 -162 274q-5 -5 -26.5 -26t-35 -34.5t-35 -36.5t-36 -41.5t-29 -39.5t-21.5 -39.5t-7 -33.5q0 -9 5 -21
q-14 -14 -18 -14q-28 0 -28 37q0 74 224 282q-1 4 -16 69.5t-26 117t-11 63.5q0 30 37 30q18 0 22 -19q10 -43 42 -217q2 1 24.5 22t39.5 36.5t47 41.5t54 46t52 42t50 36q40 27 70 27q12 -1 11.5 -6t-9.5 -11q-16 -11 -47 -33t-46 -33q-132 -99 -239 -199z" />
    <glyph glyph-name="Y" unicode="Y" horiz-adv-x="336" 
d="M171 -7q0 -20 2.5 -23t18.5 -3q14 0 9 -12q-7 -15 -23 -12q-41 5 -41 46q0 30 24.5 86t49 100t24.5 45q0 4 -2 10.5t-2 10.5q0 3 6.5 17t6.5 23q0 74 -72 174q-3 -29 -7 -30q-4 0 -22 33q-33 60 -73 88q-9 8 -9 14q0 14 13.5 22.5t27.5 8.5q39 0 81.5 -64.5t68.5 -137.5
t28 -112q14 17 64.5 79t85.5 100.5t72 72.5q2 18 32.5 44.5t48.5 26.5q14 0 26 -12.5t12 -26.5q0 -10 -10 -17q-69 -49 -168 -146.5t-185.5 -216.5t-86.5 -188z" />
    <glyph glyph-name="Z" unicode="Z" horiz-adv-x="649" 
d="M116 72l13 1q65 3 197.5 -23t191.5 -26q23 0 43 4t38.5 17.5t18.5 36.5q0 28 -23.5 55t-47 44.5t-23.5 21.5q0 7 12 7q46 0 85 -35t39 -81q0 -48 -38 -73t-88 -25q-62 0 -188.5 10.5t-190.5 10.5q-62 0 -81 -8q-26 -12 -34 -12q-18 0 -29 18q-2 6 -2.5 11t5.5 13.5
t11.5 15t16.5 16t19 16t20.5 16t21 15t19 13t15.5 11.5q55 41 119 92t104.5 84.5t118 98.5t107.5 90q-15 15 -98.5 23.5t-131.5 8.5q-135 0 -208 -40q-39 -21 -38 -5q1 5 7 15q27 44 106.5 64.5t149.5 20.5q54 0 139 -6t115 -17q39 -19 39 -56q0 -12 -6 -16q-8 -6 -76.5 -52
t-103.5 -74q-64 -49 -185.5 -152.5t-178.5 -148.5z" />
    <glyph glyph-name="bracketleft" unicode="[" horiz-adv-x="585" 
d="M180 -85h-144q-15 0 -20.5 17t0.5 28q33 65 163.5 310.5t195.5 374.5q5 11 9 16t15.5 10t29.5 5h114q50 0 50 -12q0 -11 -24 -18t-51 -7h-84l-371 -687h149q62 0 62 -12q0 -11 -30 -18t-64 -7z" />
    <glyph glyph-name="backslash" unicode="\" horiz-adv-x="603" 
d="M574 -99q11 -15 -10 -15q-24 0 -34 13l-443 729q-15 25 11 29q28 4 46 -13q3 -3 5 -6q59 -93 210 -364.5t215 -372.5z" />
    <glyph glyph-name="bracketright" unicode="]" horiz-adv-x="556" 
d="M421 676h144q14 0 20.5 -17t-0.5 -28q-33 -65 -163.5 -310.5t-195.5 -374.5q-5 -11 -9 -16t-15.5 -10t-29.5 -5h-114q-50 0 -50 12q0 11 24 18t51 7h84l371 687h-149q-62 0 -62 12q0 11 30 18t64 7z" />
    <glyph glyph-name="asciicircum" unicode="^" horiz-adv-x="370" 
d="M336 331l-4 -7q-22 2 -75.5 35.5t-70.5 52.5q-12 -12 -60 -48t-54 -36q-8 0 -8 10q0 11 60.5 60t75.5 53l6 -2q40 -44 125 -108z" />
    <glyph glyph-name="underscore" unicode="_" horiz-adv-x="806" 
d="M793 -53l-7 -7q-300 0 -567 -7q-28 0 -93.5 -3t-100.5 -3q-8 0 -12.5 10t-4.5 19q0 19 17 19h740q22 0 28 -28z" />
    <glyph glyph-name="grave" unicode="`" horiz-adv-x="221" 
d="M184 332q0 -5 -7 -5q-6 0 -64 21.5t-68 29.5q-9 5 -11 17q0 6 5 13.5t10 8.5q3 0 18 -6q12 -8 54 -33t58 -39q3 -3 5 -7z" />
    <glyph glyph-name="a" unicode="a" horiz-adv-x="314" 
d="M230 -19q-14 0 -31 16t-17 30q0 19 21 60.5t38 67.5q-13 -11 -48 -54.5t-68 -77.5t-51 -34q-23 0 -36 15t-13 38q0 73 88.5 161.5t153.5 88.5q28 0 44.5 -13t16.5 -37q0 -26 -9 -26q-1 0 -18 18t-37 18q-50 0 -111.5 -67.5t-86.5 -126.5q-8 -18 -8 -31q0 -9 4 -9q1 0 7 2
q87 48 162 148q5 8 14 22t15 21q4 7 10 7q11 0 21.5 -15t10.5 -26q0 -5 -1 -6q-22 -19 -44.5 -65.5t-32.5 -83.5q-3 -11 0 -11q1 -1 3 0q18 5 75.5 61t82.5 85q7 7 10 7q7 0 7 -7q0 -11 -80 -93.5t-92 -82.5z" />
    <glyph glyph-name="b" unicode="b" horiz-adv-x="323" 
d="M403 444q-175 -151 -271 -319q48 48 122 111t90 63q18 0 34 -24q8 -13 8 -34q0 -61 -83 -159q-37 -46 -97.5 -81t-113.5 -35q-20 0 -40 6.5t-20 22.5q0 25 36 87q43 79 93.5 155.5t125 161t141.5 125.5q9 6 19.5 -5t10.5 -24q0 -11 -9 -15q-6 -5 -22 -17t-24 -19z
M279 120q37 50 48 98q6 27 -8 27q-8 0 -20 -6t-27.5 -18t-29 -23t-31 -28t-27 -26.5l-24.5 -24.5l-16 -16q-66 -65 -66 -85q0 -22 41 -22q40 0 83.5 38.5t76.5 85.5z" />
    <glyph glyph-name="c" unicode="c" horiz-adv-x="249" 
d="M99 -24q-33 0 -52.5 22t-19.5 56q0 61 71.5 142t132.5 102q15 5 24 5q16 0 22 -14t10 -16q11 -6 11 -21q0 -20 -13 -42.5t-32 -22.5q-13 0 -13 11q0 6 14 23.5t14 27.5q0 9 -9 9q-42 0 -117.5 -91.5t-75.5 -136.5q0 -30 26 -30q28 0 68 23t67 48q46 41 107 102q3 3 7 3
q9 0 9 -8q0 -7 -53 -60.5t-67 -63.5q-27 -26 -64.5 -47t-66.5 -21z" />
    <glyph glyph-name="d" unicode="d" horiz-adv-x="306" 
d="M551 456q-7 -9 -53.5 -50.5t-54.5 -51.5q-188 -200 -228 -323q0 -1 -0.5 -4t-0.5 -5.5v-5.5t1.5 -4.5t3.5 -0.5q18 5 75.5 61t82.5 85q7 7 10 7q7 0 7 -7q0 -11 -80 -93.5t-92 -82.5q-14 0 -32 15.5t-18 29.5q0 9 5 23.5t15 33t17 30t19 31.5t13 21q-4 -5 -24.5 -30.5
t-38.5 -46.5t-40.5 -45t-40.5 -38t-29 -14l-2 1h-2q-36 13 -36 54q0 60 79 160t135 100q21 0 36.5 -12.5t18.5 -40.5q64 81 108 129q21 25 58 62.5t58 46.5q9 3 26 -9.5t4 -25.5zM272 233q-12 23 -33 23q-6 0 -13 -2t-13 -4.5t-13.5 -8t-13.5 -9.5t-13.5 -11.5t-12 -11.5
t-12 -12.5t-10.5 -11.5t-10 -11t-8 -9q-20 -24 -35.5 -58.5t-15.5 -61.5q0 -19 9 -19q4 0 9 5q89 78 185 202z" />
    <glyph glyph-name="e" unicode="e" horiz-adv-x="222" 
d="M102 -1q-60 0 -60 59q0 61 70 146.5t128 85.5q13 0 17 -15l3 -9t3 -10q10 -18 10 -29q0 -16 -17 -31q-23 -20 -76 -51t-77 -34q-28 -44 -28 -72q0 -23 19 -23q27 0 89.5 47.5t98.5 83.5l32 34q6 6 13 6q6 0 6 -5q0 -10 -52.5 -61t-74.5 -69q-62 -53 -104 -53zM245 250
q-1 1 -4 1q-17 0 -44.5 -24.5t-44.5 -46.5t-32 -43q126 75 126 108q0 4 -1 5z" />
    <glyph glyph-name="f" unicode="f" horiz-adv-x="312" 
d="M-13 -91q25 77 85 187.5t137 216.5q156 217 259 251q15 5 23 5q14 0 28 -15t19 -18q8 -5 8 -16q0 -39 -130.5 -153t-198.5 -154q87 -8 91 -102q4 -92 -64 -205q-67 -109 -149 -145q-30 -13 -58 -13q-100 0 -50 161zM201 195q-1 0 -5 1t-5 1q-99 -149 -133 -220
q-8 -15 -14 -29.5t-16.5 -41t-14.5 -47.5t-3.5 -42t13 -33t36.5 -12q32 0 62 24q43 36 80.5 95t57.5 120t7 113.5t-65 70.5zM493 495q13 18 1.5 20.5t-25.5 -3.5q-42 -14 -130 -112.5t-130 -167.5q90 54 183 147q59 58 101 116z" />
    <glyph glyph-name="g" unicode="g" horiz-adv-x="307" 
d="M245 3q-46 -123 -119.5 -211t-186.5 -154q-52 -31 -90 -31q-46 0 -46 46q0 6 2 20q7 33 32 67t65 65.5t67 50t68 43.5q47 31 157 96q28 70 27 130q-115 -133 -164 -133q-19 0 -29 16.5t-10 36.5q0 69 87 156.5t154 87.5q22 0 38.5 -15t16.5 -36q0 -22 -15 -22
q-6 0 -15.5 11t-26.5 11q-48 0 -132 -84q-42 -42 -64 -102q-8 -22 -8 -33q0 -10 7 -10l8 2q39 16 87.5 69.5t78.5 103.5l4 6q6 19 26 19q18 0 18 -14q0 -88 -23 -152q42 33 72 64q9 9 29.5 31.5t31.5 33.5q5 5 10 5q6 0 6 -6q0 -10 -68 -77.5t-95 -90.5zM188 -35q0 1 -2 3
q-1 0 -2 1q-15 -10 -58 -40t-68 -46q-224 -155 -224 -222q0 -14 11.5 -21.5t26.5 -7.5q33 0 80.5 35.5t78 68.5t59.5 69q42 57 63 92q22 36 35 68z" />
    <glyph glyph-name="h" unicode="h" horiz-adv-x="339" 
d="M105 175q20 39 43.5 80t70.5 111.5t105.5 124.5t116.5 73q15 5 23 5q14 0 28 -15t19 -18q8 -5 8 -16q0 -16 -25.5 -43.5t-70 -61.5t-83 -62t-87 -61t-59.5 -41q-4 -7 -22.5 -35.5t-35 -54.5t-20.5 -34q147 134 175 157q8 6 25 6q23 0 42 -20t-2 -43q-70 -63 -117 -137
q-32 -47 -32 -72q0 -10 6 -10q26 0 92.5 56t113.5 103q6 6 10 6q6 0 6 -6q0 -4 -4 -9q-26 -34 -93.5 -94.5t-102.5 -80.5q-7 -4 -18 -4q-18 0 -36.5 10.5t-18.5 26.5q0 21 25.5 65.5t58.5 90.5l32 47q19 25 21 32q-8 -7 -42 -32t-42 -32q-95 -83 -163 -188q-2 -2 -11 -2
q-5 0 -11 1t-11.5 5t-4.5 10q5 13 14.5 29t31 52t45.5 81zM466 495q11 19 1 25.5t-26 0.5q-41 -13 -113 -90t-113 -141q6 5 39 27.5t67.5 48t53.5 41.5q7 6 20 17t18 15.5t14.5 13t14.5 14t11.5 13t12.5 15.5z" />
    <glyph glyph-name="i" unicode="i" horiz-adv-x="209" 
d="M341 438q-4 -22 -17.5 -42t-31.5 -26q-10 -3 -22 -3q-23 0 -23 18q1 23 32 38q9 5 19 7t23.5 4t19.5 4zM301 165q0 -6 -5 -14q-8 -10 -18 -20.5t-22.5 -22.5t-18.5 -19q-59 -59 -99 -104q-14 -16 -28 -16q-15 0 -29 13t-17 28q6 35 36 100.5t54 102.5q-7 -6 -81 -77
q-7 -7 -11 -7q-7 0 -7.5 5t4.5 10q18 20 56.5 60.5t57.5 61.5q1 1 4 5t4 5t3.5 4t4 3.5t4 2.5t4.5 2.5t5 1t7 0.5q15 0 32 -7t10 -19q-1 -2 -32 -47t-53.5 -79t-44 -74t-21.5 -55q0 -6 4 -6t14.5 7t20 15t21.5 18t13 11q69 58 110 107q10 10 13 10q5 0 5 -6z" />
    <glyph glyph-name="j" unicode="j" horiz-adv-x="219" 
d="M171 43q42 33 72 64q9 9 29.5 31.5t31.5 33.5q5 5 10 5q6 0 6 -6q0 -10 -68 -77.5t-95 -90.5q-46 -123 -119.5 -211t-186.5 -154q-52 -31 -90 -31q-46 0 -46 46q0 6 2 20q7 33 32 67t65 65.5t67 50t68 43.5q47 31 157 96q14 34 28 89t16 90q-14 18 -14 31q0 19 11.5 41
t28.5 22q2 0 4 -0.5t4 -0.5q15 -3 19 -8t4 -20q0 -84 -36 -196zM276 438q-4 -22 -17.5 -42t-31.5 -26q-11 -3 -22 -3q-23 0 -23 18q1 23 32 38q9 5 19 7t23.5 4t19.5 4zM100 -35q0 1 -2 3q-1 0 -2 1q-15 -10 -58 -40t-68 -46q-224 -155 -224 -222q0 -14 11.5 -21.5
t26.5 -7.5q33 0 80.5 35.5t78 68.5t59.5 69q42 57 63 92q22 36 35 68z" />
    <glyph glyph-name="k" unicode="k" horiz-adv-x="363" 
d="M120 117q-6 -12 -26.5 -57.5t-32.5 -65.5q-3 -6 -18 -6q-16 0 -20 11t2.5 25t18.5 25l72 128q-4 -4 -16 -14.5t-19 -17.5q-12 -10 -13 -1q-1 4 5 12q9 12 32.5 37.5t49 56.5t48.5 67q34 51 110.5 138t112.5 112q9 6 20 -5t12 -24q0 -10 -8 -15q-39 -32 -44 -36
q-54 -48 -126 -133.5t-118 -157.5q5 -5 23 11q77 65 155 119q30 18 47 18t27 -11q29 -9 29 -29t-41 -50q-61 -40 -168 -61q-19 -63 -18.5 -125t33.5 -62q8 0 20.5 6.5t28 19t25.5 21t25.5 23t16.5 15.5q3 3 38.5 36.5t43.5 42.5q2 4 6 -1q6 -7 -10 -26q-3 -1 -6 -6
q-8 -10 -11 -13q-110 -124 -150 -145q-12 -5 -20 -5q-34 0 -54 18t-25 49t-2 64t13 72q-33 -23 -68 -60zM387 295q-3 7 -11 7q-21 0 -135 -83q35 7 88 30.5t58 45.5z" />
    <glyph glyph-name="l" unicode="l" horiz-adv-x="233" 
d="M122 246q29 52 77.5 115.5t113 124.5t114.5 78q15 5 23 5q14 0 28 -15t19 -18q8 -5 8 -16q0 -31 -52.5 -86t-125.5 -110t-123.5 -90t-73.5 -49q-41 -80 -41 -132q0 -41 23 -41q19 0 51 19.5t53 38.5q27 22 93 93q5 5 9 5q6 0 6 -7q0 -6 -5 -11q-6 -7 -31 -34.5t-36.5 -40
t-33 -33t-40.5 -34t-39 -23.5q-12 -5 -20 -5q-18 0 -42.5 13t-31.5 28q-6 11 -6 24q0 56 83 201zM468 502q7 16 -10.5 20.5t-30.5 -1.5q-41 -14 -131.5 -115.5t-133.5 -168.5q42 14 169 126.5t137 138.5z" />
    <glyph glyph-name="m" unicode="m" horiz-adv-x="528" 
d="M439 -22q-17 0 -40.5 18.5t-23.5 36.5q0 9 4.5 22t14 29t18.5 29.5t23.5 32.5t22 29t21.5 27t16 20q7 9 10 14t3 6.5t-0.5 3t-0.5 2.5q-41 -22 -96 -68.5t-86 -84.5q-26 -31 -51 -69q-23 -32 -41 -32t-18 17q0 5 3 13.5t9.5 19.5t12.5 21t16 25t16 26q6 10 17 26.5
t18.5 28.5t15.5 24.5t12 21.5t4 13q0 1 -6.5 -1.5t-12.5 -5.5t-7 -4q-74 -53 -175 -175q-5 -6 -15.5 -18.5t-15.5 -18.5q-6 -9 -24 -9q-8 0 -17.5 4.5t-9.5 13.5q0 17 25 62t64.5 106t40.5 63q-10 -9 -28 -25t-28.5 -25.5t-25.5 -25.5t-29 -34q-14 -14 -20 -15q-2 0 -4.5 3
t-1.5 5q3 10 55 66t80 84q48 51 73 51q10 0 21.5 -8.5t11.5 -18.5q0 -3 -2 -5q-66 -56 -146 -179q-1 -2 -17 -30l-18 -32q170 163 225 209q21 17 39 17q12 0 19.5 -7.5t7.5 -19.5q0 -7 -2.5 -14.5t-5.5 -12t-8 -12.5t-7 -11q-30 -48 -38 -65q127 115 173 146q10 7 24 7
q18 0 39.5 -7.5t21.5 -21.5q0 -12 -13 -21l-47 -40q-35 -32 -71.5 -87t-36.5 -96q0 -10 3.5 -12.5t7 -1.5t12.5 6q3 1 4 2q32 18 92.5 84t68.5 71q2 2 5.5 1t3.5 -4q0 -4 -10 -17q-9 -11 -30 -36.5t-34 -40.5q-63 -72 -100 -93q-4 -3 -11 -3z" />
    <glyph glyph-name="n" unicode="n" horiz-adv-x="356" 
d="M132 102q32 36 112 103l71 58q26 23 29 25q6 4 37 4q13 0 22.5 -6.5t9.5 -18.5q0 -5 -1 -9t-3.5 -7.5t-4 -5.5t-6 -6t-6.5 -6q-146 -146 -146 -215q0 -9 1 -12q37 14 92.5 63t91.5 92q8 8 11 8q5 0 5 -7q0 -4 -3 -9q-30 -41 -85 -94t-93 -76q-7 -4 -16 -4q-18 0 -35 9.5
t-17 25.5q0 33 60 120t66 100q-26 -10 -65 -42q-73 -55 -138 -144q-2 -3 -14.5 -22t-19.5 -28q-5 -6 -15.5 -11.5t-19.5 -3.5t-9 14q0 18 29.5 69t71.5 113.5t45 68.5q-28 -28 -41 -36q-7 -6 -73 -75q-10 -10 -17 -10q-5 0 -5 5q0 7 34 43.5t74.5 77.5t46.5 49q22 29 49 29
q10 0 22.5 -9t12.5 -19q0 -3 -2 -5q-68 -57 -158 -196z" />
    <glyph glyph-name="o" unicode="o" horiz-adv-x="293" 
d="M390 165q0 -2 -3.5 -6t-3.5 -5q-87 -102 -183 -117q-58 -58 -105 -58q-27 0 -42 22t-15 50q0 46 34 105t73 103q12 14 31 -1q55 39 102 39q45 0 45 -46q0 -62 -69 -153q-15 -20 -28 -33q12 3 23.5 7.5t24 12.5t19 12t20.5 16l17.5 15t20 18.5t17.5 16.5q9 9 17 9
q5 0 5 -7zM281 249q0 18 -17 18q-35 0 -76 -31v-3q0 -9 -15 -28t-34.5 -40.5t-24.5 -29.5q-3 -38 17 -60.5t57 -15.5q36 44 64.5 96.5t28.5 93.5zM165 36q-39 4 -79 49q-4 -7 -7.5 -20.5t-5 -29.5t4 -27.5t18.5 -11.5q26 0 69 40z" />
    <glyph glyph-name="p" unicode="p" horiz-adv-x="284" 
d="M303 201q28 -85 -49 -153.5t-171 -68.5q-25 0 -39 14q-26 -44 -50 -128t-24 -125q0 -46 31 -46q28 0 41 7q2 -14 -12 -24.5t-34 -10.5q-105 0 -49 182q70 233 239 409q-2 3 -9 9t-11 11.5t-4 10.5q0 17 20 17q27 0 43 -12l53 55q3 3 10.5 11.5t11.5 12.5q11 11 23 11
q21 0 21 -24q0 -15 -18 -33q-59 -54 -66 -63q33 -31 43 -62zM132 4q60 9 99 53.5t30 106.5q-7 47 -42 69q-109 -114 -164 -214q8 11 24 -5t53 -10z" />
    <glyph glyph-name="q" unicode="q" horiz-adv-x="293" 
d="M318 226l-18 14q-17 14 -38 14q-56 0 -134 -91q-23 -25 -45.5 -60t-22.5 -58q0 -14 12 -14q10 0 13 3q38 20 94.5 79t87.5 106q53 0 53 -20q0 -5 -3 -9q-6 -10 -19.5 -28.5t-18.5 -26.5q-173 -251 -173 -362q0 -10 1 -15t5.5 -7.5t6.5 -3t12 0t14 0.5q5 0 8 -1q4 -1 4 -6
q0 -14 -32 -14q-2 0 -10 2q-39 14 -48 26q-8 11 -8 27q0 21 37 104q87 186 143 267q-2 -3 -24.5 -30t-38 -44t-38.5 -40t-41.5 -35t-32.5 -12q-17 0 -27 16t-10 36q0 42 43 104.5t102 108.5t99 46q24 0 40.5 -16.5t16.5 -40.5q0 -20 -10 -20z" />
    <glyph glyph-name="r" unicode="r" horiz-adv-x="256" 
d="M161 -22q-16 0 -33.5 16.5t-17.5 32.5q0 24 23.5 60.5t47 65.5t23.5 34v2l-6.5 6.5t-7 6.5t-6.5 5t-9 4t-10 1q-16 0 -60 -44l-45 -45q-16 -13 -17 -4q0 5 4 10q13 17 36.5 41.5t39.5 42.5t19 26q19 54 44 75q18 18 41 18t23 -22q0 -13 -18 -30.5t-35 -30.5t-16 -17
q7 -5 24 -10.5t24 -5.5q6 0 15 3t14 3q11 0 20.5 -6.5t9.5 -17.5q0 -16 -23 -33q-36 -27 -79 -73.5t-43 -74.5q0 -2 2 -8q1 -1 4 -1q24 0 58 28t73 71.5t51 53.5q1 1 3 2.5t4.5 2.5t4 1t3 -2t1.5 -5q0 -10 -65.5 -76.5t-94.5 -91.5q-17 -14 -26 -14z" />
    <glyph glyph-name="s" unicode="s" horiz-adv-x="318" 
d="M359 275q-51 2 -61 -16q-28 -57 -48 -185q37 7 66 22t70 58q7 10 12 5t-9 -23q-24 -32 -60 -55q-32 -18 -82 -24q-3 -15 -7 -33t-4 -21q-9 -46 -39.5 -53.5t-60.5 18.5q-28 25 -45 73l-77 -84q-7 -7 -8 1.5t6 16.5l74 84q-3 12 -3 23q-1 1 -8 5.5t-11 7.5t-7.5 10
t-3.5 15q0 30 22 53q17 18 20 -2v-2q0 -64 4 -79q4 -3 10 -5q102 118 159 175q43 70 96 61q17 -2 22 -13.5t-3.5 -22t-23.5 -10.5zM245 211q-14 -16 -55.5 -61t-63.5 -70q39 -11 82 -6q23 101 37 137zM204 55q-55 2 -89 13l-8 -9q22 -45 44 -56q7 -4 11 -5.5t10.5 -1t11 5.5
t9.5 17.5t10 31.5q0 3 1 4z" />
    <glyph glyph-name="t" unicode="t" horiz-adv-x="201" 
d="M396 524q9 6 20 -5t12 -24q0 -10 -8 -15q-61 -37 -144 -128q34 5 54 5h7t9.5 0.5t11 0.5t11.5 -0.5t9.5 -1.5t7 -3t2.5 -4q0 -11 -42 -11q-63 -8 -97 -18q-21 -25 -34 -44t-24.5 -40t-18.5 -32q-63 -122 -63 -186q0 -11 7 -11q6 0 21 11q9 7 17.5 15.5t18.5 20.5t15 17
q29 32 90 93q5 5 8 5q7 0 7 -8q0 -4 -4 -9q-9 -13 -28.5 -35t-24.5 -28q-75 -88 -102 -123q-10 -2 -12 -2q-26 0 -41 24t-15 51q0 29 15 62q65 135 115 206q-9 -3 -25.5 -9.5t-28 -10.5t-15.5 -4q-7 1 -7 13q-1 24 20 31q32 11 83 18q101 132 173 179z" />
    <glyph glyph-name="u" unicode="u" 
d="M275 -17q-22 0 -43 17.5t-21 38.5q0 42 33 96q-14 -15 -39.5 -41.5t-46 -49t-38.5 -42.5q-10 -12 -24 -12q-18 0 -35 19.5t-17 38.5q0 6 1 8q14 40 36 73q11 18 49 72q10 11 18 26q4 8 2 24q29 38 60 38q8 0 24 -5.5t16 -10.5q0 -4 -4 -8q-2 -2 -10 -9t-12 -12
q-44 -44 -84 -100q-1 -2 -10 -14t-14 -20l-12.5 -20t-11 -21.5t-3.5 -15.5q0 -10 9 -10q23 0 85 60.5t97 102.5q26 31 41 56q21 31 45 31q33 0 33 -14q0 -7 -8 -15q-82 -88 -112 -153q-21 -38 -21 -81q0 -28 31 -11q10 6 31.5 26.5t38.5 39.5t41.5 47t28.5 32q5 5 8 5
q7 0 7 -8q0 -3 -6 -11q-25 -28 -67.5 -79.5t-55.5 -66.5q-19 -21 -40 -21z" />
    <glyph glyph-name="v" unicode="v" horiz-adv-x="228" 
d="M310 212q0 -20 -7 -20q-8 0 -15.5 7.5t-8.5 15.5q-8 -9 -33 -37t-35.5 -40t-32.5 -35.5t-36.5 -38.5t-34.5 -34.5t-38 -35.5q-4 1 -10.5 1.5t-8.5 0.5t-6 2t-7.5 5.5t-7.5 9.5q-2 4 -2 10q0 32 79 212q0 1 1 3t1 3q0 3 -5.5 5t-5.5 8q8 16 24 33t29 17q8 0 21 -12t13 -19
v-1l-1 -2q-29 -31 -60 -103t-37 -118q134 126 184 192q8 50 17 70q12 26 33 26q12 0 21 -7t9 -18q0 -10 -10 -22t-20 -31.5t-10 -46.5z" />
    <glyph glyph-name="w" unicode="w" horiz-adv-x="436" 
d="M506 212q0 -20 -7 -20q-8 0 -15.5 7.5t-8.5 15.5q-23 -26 -69.5 -85.5t-79 -96.5t-51.5 -42q-31 -5 -50 22q-2 2 -2 5.5v4.5q-9 18 1.5 50t35.5 80t31 61q-45 -52 -111 -125t-79 -87q-12 -12 -24 -12q-18 0 -35 19.5t-17 38.5q0 6 1 8q8 22 21.5 46.5t24.5 41t29.5 43.5
t27.5 40q1 1 1 3t-1 5.5t-1 5.5q0 14 24.5 31t40.5 17q12 0 22 -8t10 -19q-32 -25 -93.5 -103t-61.5 -106q0 -10 9 -10q22 0 85.5 64.5t95.5 104.5q7 9 22.5 29.5t27.5 37.5q21 25 36 25t31 -16q13 -12 -1 -26q-36 -44 -77 -126t-17 -87q22 2 79.5 65t104.5 127q8 50 17 70
q12 26 33 26q12 0 21 -7t9 -18q0 -10 -10 -22t-20 -31.5t-10 -46.5z" />
    <glyph glyph-name="x" unicode="x" horiz-adv-x="288" 
d="M336 345q13 25 33 25q9 -1 15 -10.5t3 -20.5q-2 -9 -25.5 -34t-30.5 -60q-4 -20 -10 -20q-16 1 -14 24q0 3 2 17l-120 -103q0 -3 -0.5 -20t-0.5 -31.5t0.5 -32t2.5 -29.5t5 -17q6 -10 15 -9q20 3 62 44.5t77 81t39 39.5q7 1 7 -6q1 -6 -4 -13q-4 -5 -52 -62
q-8 -9 -21 -24t-24 -27t-22 -22q-2 -2 -13 -13.5t-17 -17t-15.5 -13.5t-18.5 -11.5t-17 -3.5q-9 0 -21.5 7t-17.5 15q-13 23 -13 123q-12 -10 -35.5 -37t-56 -66l-37.5 -45q-14 -18 -23 -21q-3 -1 -7 -1q-13 0 -13 7q0 6 6 14q28 36 56.5 68t46 49t37.5 35.5t25 23.5
q0 46 -6 98q-26 -12 -31 -2t13 29q27 27 42 27q12 0 21 -13q11 -14 11 -97q15 13 37 34t37 34q6 6 29 28.5t31 30.5q7 20 13 28z" />
    <glyph glyph-name="y" unicode="y" 
d="M298 7q-46 -123 -121 -213.5t-187 -155.5q-52 -31 -90 -31q-46 0 -46 46q0 6 2 20q7 33 32 67t65 65.5t67 50t68 43.5q47 31 157 96q20 49 20 127v8q-28 -42 -91 -91.5t-104 -49.5q-27 0 -27 33q0 41 24.5 93.5t49 88t24.5 36.5t-2.5 1h-5.5t-4.5 1t0.5 5q36 43 75 43
q8 0 17 -5.5t9 -13.5q0 -5 -6 -11q-31 -31 -42 -44q-26 -30 -62 -91t-36 -96q0 -9 5 -13q33 -2 97.5 64.5t88.5 109.5q11 20 33 20q10 0 15 -3.5t5.5 -8t0.5 -14.5q0 -71 -21 -135q64 55 122 116q3 8 10 8q6 0 6 -6q0 -9 -6 -16q-7 -8 -21 -23t-19 -21q-57 -62 -102 -100z
M239 -35q0 1 -2 3q-1 0 -2 1q-15 -10 -58 -40t-68 -46q-224 -155 -224 -222q0 -14 11.5 -21.5t26.5 -7.5q33 0 80.5 35.5t78 68.5t59.5 69q42 57 63 92q22 36 35 68z" />
    <glyph glyph-name="z" unicode="z" horiz-adv-x="313" 
d="M316 57q-10 -45 -46 -74q-25 -20 -27 -4v5q21 25 21 46q0 16 -20.5 19t-51 -3.5t-51.5 -12.5t-35 -11q-4 -2 -11.5 -9t-11.5 -9q-16 -9 -33 -9q-26 0 -26 23q0 10 8 18q13 14 134.5 106t132.5 120q-4 7 -29 7q-26 0 -58 -9.5t-43 -25.5q-6 -6 -13 -6q-9 1 -18 8t-10 16
q-2 24 49 33t98 9q86 3 100 -22q7 -14 -17 -32q-44 -35 -150 -107t-142 -99q24 12 102.5 28t107.5 16q17 0 29.5 -6t10.5 -15z" />
    <glyph glyph-name="braceleft" unicode="{" horiz-adv-x="323" 
d="M121 265q33 -13 57 -38t19 -56q-6 -36 -41 -103t-41 -104q-2 -13 -2 -23t0.5 -16.5t6 -11.5t8 -7.5t12.5 -4t14 -2t18 -1t19 -0.5q21 -12 -11 -19q-5 -1 -8 -1q-27 0 -45 2.5t-36 11t-25 27t-2 47.5q6 37 36 107.5t36 105.5q8 43 -17 61t-77 19q-2 16 14 16
q70 6 105.5 29.5t59.5 88.5q7 18 17.5 55t18.5 55q25 66 70 101.5t136 35.5q8 0 15 -11q0 -10 -18 -12q-38 0 -63 -8t-40.5 -28t-23.5 -38.5t-20 -54.5q-3 -11 -5 -16q-3 -9 -14 -38t-18 -45q-20 -42 -65 -77.5t-90 -46.5z" />
    <glyph glyph-name="bar" unicode="|" horiz-adv-x="508" 
d="M147 -144q6 37 28.5 167t31.5 183t28 154.5t36 185.5t37 172q2 19 20 26q19 6 21 -12q1 -7 -1 -16l-167 -870q-4 -13 -21 -11t-13 21z" />
    <glyph glyph-name="braceright" unicode="}" horiz-adv-x="384" 
d="M298 254q-32 12 -56.5 37.5t-19.5 56.5q6 37 41 104.5t41 102.5q2 13 2 23t-1 17t-5.5 11.5t-8 7t-12 3.5t-14.5 1.5t-17.5 1t-19.5 1.5q-21 9 8 18q8 2 11 2q27 0 45 -2.5t36 -11t25 -27t2 -47.5q-7 -36 -36 -106.5t-36 -106.5q-8 -43 17 -61t77 -19q2 -16 -14 -16
q-70 -6 -105.5 -29.5t-59.5 -88.5q-7 -18 -17.5 -55t-18.5 -55q-25 -66 -70 -101.5t-136 -35.5q-8 0 -15 11q0 10 18 12q38 0 63 8t40.5 28t23.5 38.5t20 54.5q3 11 5 16q3 9 14 38t18 45q20 42 65 78t90 46z" />
    <glyph glyph-name="asciitilde" unicode="~" horiz-adv-x="272" 
d="M245 491q8 11 15 3q2 -2 1 -6q-19 -52 -62 -58q-17 -1 -48.5 13.5t-52.5 14.5q-34 0 -60 -33q-9 -11 -13 -6t-1 16q3 20 25 42.5t55 22.5q16 0 49.5 -15t49.5 -15q24 0 42 21z" />
    <glyph glyph-name="exclamdown" unicode="&#xa1;" horiz-adv-x="330" 
d="M-51 -240q10 30 135 211t140 213q9 18 17.5 20.5t11 -7.5t-0.5 -22q-23 -64 -101 -195.5t-113 -180.5l-7.5 -7.5l-7.5 -7.5t-7 -6.5t-8.5 -7t-8 -5t-10 -5.5t-10.5 -4t-12 -3q-6 -2 -12 0t-6 7zM257 283q4 11 15 30.5t18 19.5q36 0 36 -22q0 -13 -31 -44q-4 -7 -14 -7
q-18 0 -24 23z" />
    <glyph glyph-name="cent" unicode="&#xa2;" horiz-adv-x="513" 
d="M651 485q-3 -45 -53 -90t-103 -70q-4 -4 -9 -4q-5 2 -5 4q4 9 33.5 39.5t55.5 66t28 65.5q2 24 -53 24q-7 0 -21 -2l-302 -479q70 0 151 32t136 83q22 19 23 9q1 -7 -20 -35q-37 -49 -124.5 -88t-187.5 -39h-2l-72 -115q-11 -15 -42 -26q-18 -6 -18 1q0 2 2 5l87 138
q-100 17 -96 112.5t101 214.5q106 129 243 187q44 19 86 27l51 81q10 20 45 35q26 11 26 -1q-1 -4 -5 -11l-61 -98q1 0 4.5 0.5t5.5 0.5q96 0 96 -67zM179 43q53 85 145.5 236t137.5 223q-112 -42 -222 -162q-104 -112 -120 -200q-15 -81 59 -97z" />
    <glyph glyph-name="sterling" unicode="&#xa3;" horiz-adv-x="673" 
d="M669 29q0 -49 -41 -74.5t-89 -25.5q-55 0 -136 24.5t-136 54.5q-56 -35 -102 -35q-48 0 -89.5 32t-41.5 78q0 28 33 28q20 0 50 -10t48.5 -19t57.5 -29t43 -22q48 39 84 130h-78q-9 0 -9 6q0 7 5.5 12t12.5 5h77q25 74 70 170.5t83 141.5q18 21 45.5 36.5t52.5 15.5
q29 0 47 -18.5t18 -48.5q0 -34 -23 -63t-48 -43q-17 -10 -21 -9t9 20q2 2 12.5 14t16.5 19.5t14.5 19.5t12.5 25t4 25q0 50 -40 35q-40 -16 -88 -94.5t-72.5 -137t-42.5 -108.5h97q6 0 6 -5q0 -18 -22 -18h-90q-8 -24 -39.5 -66t-66.5 -73q37 -23 101 -39.5t111 -16.5
q20 0 40.5 2.5t44 9.5t38.5 21.5t15 35.5q0 16 -14 30t-14 17q0 5 4 5q8 0 11 -3q39 -27 39 -55zM242 19q-23 16 -72.5 35.5t-72.5 19.5q-9 0 -9 -5q0 -33 18 -53.5t50 -20.5q18 0 44.5 7t41.5 17z" />
    <glyph glyph-name="currency" unicode="&#xa4;" horiz-adv-x="623" 
d="M201 228l7 22q16 44 54 75l-46 131l89 -100q43 24 85 24q44 0 66 -25l171 101l-154 -132q9 -28 2 -56q-11 -44 -61 -94l48 -130l-91 100q-45 -24 -84 -24q-41 0 -67 24l-169 -100l151 130q-8 27 -1 54zM244 250q-10 -45 9 -75.5t58 -30.5t75 31t46 75q10 43 -10.5 74
t-58.5 31t-73.5 -31t-45.5 -74z" />
    <glyph glyph-name="yen" unicode="&#xa5;" horiz-adv-x="336" 
d="M307 146h-75q-61 -97 -61 -153q0 -20 2.5 -23t18.5 -3q14 0 9 -12q-7 -15 -23 -12q-17 2 -28 4.5t-18.5 10.5t-4.5 21q7 27 19 54t29.5 60.5t26.5 52.5h-109q-20 0 -7 15q21 20 49 22h83q11 28 23 78h-90q-20 0 -7 15q21 20 49 22h51q-5 171 -102 253q-7 5 -5 13
q5 14 20.5 23t29.5 10q18 1 32.5 -13.5t24 -43.5t16 -57t10 -68t5.5 -63t3 -54h19q9 10 47.5 56.5t54.5 65t46 51.5t57 58q2 18 32.5 44.5t48.5 26.5q14 0 26 -12.5t12 -26.5q0 -10 -10 -17q-48 -33 -121.5 -101.5t-140.5 -144.5h48q62 0 62 -12q0 -11 -30 -18t-64 -7h-48
q-31 -41 -60 -78h82q62 0 62 -12q0 -11 -30 -18t-64 -7z" />
    <glyph glyph-name="brokenbar" unicode="&#xa6;" horiz-adv-x="500" 
d="M274 335h-44q41 219 78 383q2 19 20 26q19 6 21 -12q1 -7 -1 -16zM220 279h44l-83 -433q-4 -13 -21 -11t-13 21q15 80 38.5 220.5t34.5 202.5z" />
    <glyph glyph-name="section" unicode="&#xa7;" horiz-adv-x="514" 
d="M603 532q-11 -24 -36 -43q-9 -5 -13 3q-4 7 6 15q55 60 -2 76q-48 13 -118 -10q-16 -6 -28 -12q-30 -16 -51.5 -32.5t-34 -30.5t-16 -29.5t-3 -27.5t10.5 -27.5t18.5 -26t27 -26.5t30.5 -25t34.5 -26t34.5 -26q51 -42 1 -92q-47 -48 -135 -64q-33 -6 -64 -4l53 -39
q53 -42 0 -92q-49 -47 -139 -63q-99 -18 -145 27q-9 7 4 12q12 4 19 -3q19 -15 55.5 -17.5t72 6t62 31t26.5 53.5q0 24 -18.5 44.5t-44 36.5t-50.5 32.5t-41 37.5t-13 46q6 43 50.5 84t106.5 69q-16 21 -12 46q5 44 55.5 88.5t112.5 71t108 26.5q45 0 69.5 -23.5t6.5 -65.5z
M267 362q-56 -30 -82 -58.5t-22.5 -55t20 -48.5t49.5 -49q37 -6 78.5 -1.5t74.5 29t33 59.5q0 27 -22 48.5t-60.5 45.5t-53.5 37q-13 -6 -15 -7z" />
    <glyph glyph-name="dieresis" unicode="&#xa8;" horiz-adv-x="282" 
d="M126 539q0 -9 -15 -30t-23 -21q-35 0 -35 22q0 13 18.5 33t32.5 20q9 0 16 -7.5t6 -16.5zM246 539q0 -9 -15 -30t-23 -21q-35 0 -35 22q0 13 18.5 33t32.5 20q9 0 16 -7.5t6 -16.5z" />
    <glyph glyph-name="copyright" unicode="&#xa9;" horiz-adv-x="756" 
d="M686 344q0 -114 -118 -214q-102 -88 -227 -112q-130 -25 -187 42q-33 39 -33 104q0 79 57 158.5t146.5 130.5t179.5 51q75 0 128.5 -41t53.5 -119zM637 338q0 63 -40 104.5t-103 41.5q-73 0 -148.5 -47.5t-125 -122.5t-49.5 -148q0 -117 93 -131q85 -12 196 58
q107 67 153 157q24 46 24 88zM543 365q0 -19 -12 -39t-25 -26q-10 -5 -14 -0.5t-1 12.5q1 5 7.5 14.5t11.5 18t7.5 17t-3.5 13.5t-22 5q-64 0 -132 -69t-68 -132q0 -17 10.5 -27.5t27.5 -10.5q37 0 82 19.5t75 48.5q13 10 14 2q1 -7 -11 -21q-20 -27 -68 -48.5t-103 -21.5
q-79 0 -77 58q2 57 69 126q79 80 165 92q12 2 24 2q43 0 43 -33z" />
    <glyph glyph-name="ordfeminine" unicode="&#xaa;" horiz-adv-x="314" 
d="M206 368q-10 0 -22.5 12t-12.5 22q0 25 43 95q-9 -8 -35.5 -41t-50.5 -57.5t-37 -24.5q-17 0 -26.5 11t-9.5 28q0 54 65 119.5t114 65.5q45 0 45 -37q0 -19 -7 -19l-13 13q-13 13 -28 13q-37 0 -82.5 -49.5t-63.5 -93.5q-6 -14 -6 -23q0 -7 3 -7q1 0 5 2q63 34 120 109
q5 7 21 32q5 5 8 5q8 0 15.5 -11t7.5 -19v-5q-17 -14 -33.5 -48t-23.5 -62q-3 -10 2 -8q13 4 55 45t62 63q5 5 7 5q6 0 6 -5q0 -8 -59.5 -69t-68.5 -61z" />
    <glyph glyph-name="guillemotleft" unicode="&#xab;" horiz-adv-x="331" 
d="M231 -21q0 -23 -11 0l-1 3q-34 73 -44 92q-7 10 -6 18t15 17q44 26 100 66q13 13 19 7q3 -2 -1 -8q-12 -16 -44.5 -48t-53.5 -44q27 -77 27 -103zM146 0q0 -23 -11 0l-1 3q-34 73 -44 92q-7 10 -6 18t15 17q44 26 100 66q13 13 19 7q3 -2 -1 -8q-12 -16 -44.5 -48
t-53.5 -44q27 -77 27 -103z" />
    <glyph glyph-name="logicalnot" unicode="&#xac;" horiz-adv-x="674" 
d="M144 210q-27 2 -25 11q2 8 12 9q119 4 271.5 8t209.5 6q28 1 32.5 -11t-15.5 -33q-11 -12 -43.5 -47t-60.5 -67.5t-44 -57.5q-15 -25 -15 -13q0 5 4 22q1 5 1 7q6 27 32 66t43 59t27 30q-40 1 -198.5 2.5t-230.5 8.5z" />
    <glyph glyph-name="uni00AD" unicode="&#xad;" horiz-adv-x="402" 
d="M284 216h-165q-20 0 -7 15q21 20 49 22h155q62 0 62 -12q0 -11 -30 -18t-64 -7z" />
    <glyph glyph-name="registered" unicode="&#xae;" horiz-adv-x="753" 
d="M686 344q0 -114 -118 -214q-102 -88 -227 -112q-130 -25 -187 42q-33 39 -33 104q0 79 57 158.5t146.5 130.5t179.5 51q75 0 128.5 -41t53.5 -119zM378 407q-16 0 -15 7q2 11 25 17q6 2 13 2q20 0 43.5 -4t49.5 -13t43.5 -26.5t19.5 -39.5q3 -49 -47.5 -77.5
t-114.5 -36.5q14 -37 41 -78t45 -41q3 0 7.5 -0.5t5.5 -0.5q-3 -2 -6 -4.5t-6 -4.5l-6 -4h1q17 0 22 8q2 3 -2 4q-1 1 -3 1q63 47 103 106t40 116q0 63 -40 104.5t-103 41.5q-73 0 -148.5 -47.5t-125 -122.5t-49.5 -148q0 -63 28.5 -96.5t73.5 -36t98 15.5t105 54
q-19 0 -36.5 8t-29.5 19t-24 27.5t-18 27t-13 25.5l-7 15q-5 10 -2 16.5t10 7.5q36 5 71.5 16t67.5 36t30 57q-5 49 -147 49zM273 107q0 -9 6 -9q2 0 2.5 -3t-1 -6t-4.5 -3q-20 0 -20 23q-3 37 29.5 117.5t60.5 127.5q1 2 5 9.5t5.5 9.5t5 7.5t5.5 7t6.5 5.5t8 5t9.5 2t12 1
q14 0 15 -9q0 -6 -6 -14q-10 -17 -29 -46.5t-34 -53.5t-27 -48q-1 -2 -17 -31.5t-24.5 -52.5t-7.5 -39z" />
    <glyph glyph-name="macron" unicode="&#xaf;" horiz-adv-x="228" 
d="M168 422h-129q-15 0 -14 7q2 11 27 19q9 3 18 3h112q35 0 35 -12q0 -17 -49 -17z" />
    <glyph glyph-name="degree" unicode="&#xb0;" horiz-adv-x="351" 
d="M249 514h3q31 4 50 -17t12 -53q-6 -30 -35.5 -56t-61.5 -28q-34 -4 -53 15.5t-12 51.5q6 32 35 57.5t62 29.5zM238 473h-1q-18 -2 -32.5 -15.5t-17.5 -30.5q-5 -17 5.5 -27.5t28.5 -8.5q17 2 32 15.5t20 30.5q3 17 -7.5 27.5t-27.5 8.5z" />
    <glyph glyph-name="plusminus" unicode="&#xb1;" horiz-adv-x="406" 
d="M234 437q12 3 12 -35q0 -41 -15 -142h71q73 0 94 2v-1q1 -1 1 -2q0 -21 -174 -43q-8 -31 -30.5 -90t-34.5 -59q-8 0 -13.5 8.5t-5.5 17.5q0 7 13.5 55t18.5 64q-152 0 -152 23q0 9 8 16.5t17 7.5q24 0 71 0.5t70 0.5q5 18 16.5 55.5t19.5 66t13 55.5zM187 -16h-165
q-20 0 -7 15q21 20 49 22h155q62 0 62 -12q0 -11 -30 -18t-64 -7z" />
    <glyph glyph-name="twosuperior" unicode="&#xb2;" horiz-adv-x="456" 
d="M136 329q99 -15 152 -15q19 0 37.5 7.5t18.5 23.5q0 13 -17 22.5t-17 11.5q0 5 7 5h3q41 -11 41 -39q0 -25 -25 -38.5t-51 -13.5q-49 0 -170 22q-49 -23 -67 -23q-14 0 -14 10q0 9 9.5 17t19.5 11q19 6 55 4q110 67 147 95q32 25 51.5 48t24.5 53q1 3 1 8q0 24 -31 24
q-33 0 -76 -19.5t-73 -43.5q-2 -2 -4 -2q-7 0 -7 7q0 3 4 7q32 28 88.5 52.5t95.5 24.5q46 0 46 -35q0 -30 -28.5 -65.5t-74 -67.5t-79.5 -53t-67 -38z" />
    <glyph glyph-name="threesuperior" unicode="&#xb3;" horiz-adv-x="465" 
d="M318 481q26 0 46 -13.5t20 -38.5q0 -10 -1 -14q-16 -59 -84.5 -91t-137.5 -32q-39 0 -74.5 13t-35.5 45q0 13 10 33q11 21 43.5 35.5t58.5 14.5q6 0 6 -5q0 -7 -8 -7q-17 0 -41.5 -15.5t-28.5 -30.5q-2 -5 -2 -16q0 -28 26 -40t57 -12q56 0 107.5 29t70.5 79q5 8 5 16
q0 34 -65 34q-27 0 -49 -7q-4 -2 -10 -2q-10 0 -10 9q0 16 16 16q41 0 81 15.5t47 48.5v6q0 19 -26 19q-48 0 -111 -39q-2 -2 -5 -2q-5 0 -5 9q0 12 10 17q7 3 12 5.5t7.5 4.5t7.5 7t9 8q2 3 5 3q5 0 5 -6q0 -2 -3 -5q53 19 81 19q50 0 47 -34q-2 -31 -39 -58
q-20 -14 -42 -18z" />
    <glyph glyph-name="acute" unicode="&#xb4;" horiz-adv-x="221" 
d="M52 397q2 4 5 7q16 14 58 39t54 33q15 6 18 6q5 -1 10 -8.5t5 -13.5q-2 -12 -11 -17q-10 -8 -68 -29.5t-64 -21.5q-7 0 -7 5z" />
    <glyph glyph-name="mu" unicode="&#xb5;" 
d="M130 40q26 0 132 131q38 69 57 97q16 25 47 25q32 0 32 -19q0 -7 -8 -15q-75 -81 -109 -154q-23 -42 -23 -75q0 -15 8 -18q3 1 11 3t12 4q10 6 31.5 26.5t38.5 39.5t41.5 47t28.5 32q5 5 8 5q7 0 7 -8q0 -3 -6 -11q-25 -28 -67.5 -79.5t-55.5 -66.5q-19 -21 -40 -21
q-22 0 -43 17.5t-21 38.5q0 29 17 65q-83 -95 -119 -95q-23 0 -31 33q-96 -162 -128 -292v-2l-1 -2q0 -14 12 -14q8 0 24 10t23 10l2 -1q0 -12 -34.5 -31.5t-47.5 -19.5q-22 0 -22 27q0 41 38 124t84 160.5t84 149t38 92.5q0 5 -6.5 5.5t-11.5 -2.5q-12 -8 -22 -14.5
t-18.5 -13t-12.5 -9.5q-5 -4 -8.5 -5t-5 0t-1.5 3q-1 4 2 10q0 9 42 34.5t53 25.5q49 0 49 -15v-4l2 -8v-3q-4 -35 -52.5 -100.5t-53.5 -88.5q-2 -11 5 -19.5t19 -8.5z" />
    <glyph glyph-name="paragraph" unicode="&#xb6;" horiz-adv-x="568" 
d="M249 245q-83 -150 -127 -269q-5 -5 -9 -5q-10 -2 -11 10q9 42 120 264q-74 -1 -107.5 30t-24.5 81q14 75 104.5 135.5t212.5 76.5q35 5 75.5 2t38.5 -14q0 -1 -2 -3q-216 -348 -291 -555q-25 -25 -26 -25q-5 -1 -8 20q9 44 119 260l-27 -5q-1 0 -37 -3zM234 265
q113 226 152 278q-99 -21 -166.5 -76.5t-77.5 -112.5q-7 -42 10.5 -66.5t81.5 -22.5zM425 532q-152 -247 -162 -265q46 10 66 17q81 159 144 259q-37 0 -47 -2q1 -1 1 -6q0 -1 -2 -3z" />
    <glyph glyph-name="periodcentered" unicode="&#xb7;" horiz-adv-x="302" 
d="M230 292q0 -9 -15 -30t-23 -21q-35 0 -35 22q0 13 18.5 33t32.5 20q9 0 16 -7.5t6 -16.5z" />
    <glyph glyph-name="cedilla" unicode="&#xb8;" horiz-adv-x="224" 
d="M145 -126q0 -32 -48.5 -46t-80.5 3q-6 4 -4 9q1 4 9 1q31 -9 59.5 -2t28.5 28q0 9 -20.5 36t-20.5 40q0 31 20.5 48t51.5 17q5 0 8.5 -3t-3.5 -7q-30 -5 -41.5 -20t-7.5 -32q1 -5 25 -29.5t24 -42.5z" />
    <glyph glyph-name="onesuperior" unicode="&#xb9;" horiz-adv-x="381" 
d="M126 321q13 0 45.5 -2t33.5 -2q12 -2 1 -10q-5 -4 -9 -4q-19 1 -77.5 -1.5t-78.5 -2.5q-9 1 -9 15q0 9 5 9h68q21 36 63 113.5t53 96.5q-49 -27 -63 -27q-5 0 -5 6t5 7q4 2 13 6t13 7q16 8 60 41q6 13 23 13q15 0 15 -7z" />
    <glyph glyph-name="ordmasculine" unicode="&#xba;" horiz-adv-x="293" 
d="M282 501q0 -1 -2.5 -4t-2.5 -4q-65 -76 -136 -87q-44 -44 -78 -44q-20 0 -31.5 16.5t-11.5 37.5q0 34 25.5 78t54.5 77q8 9 23 -1q41 29 76 29q33 0 33 -34q0 -49 -51 -114q-14 -18 -21 -25q11 3 21.5 8t18 9.5t18.5 13t15.5 12.5t17 15.5t15.5 14.5q7 7 13 7q3 0 3 -5z
M201 564q0 13 -12 13q-26 0 -57 -23v-2q0 -7 -11 -21t-25.5 -30t-18.5 -22q-2 -29 12.5 -45.5t42.5 -11.5q69 83 69 142zM115 405q-29 2 -59 36q-4 -7 -7.5 -22t-1 -29.5t15.5 -14.5q19 0 52 30z" />
    <glyph glyph-name="guillemotright" unicode="&#xbb;" horiz-adv-x="346" 
d="M158 183q0 23 11 0l1 -3q34 -73 44 -92q7 -10 6 -18t-15 -17q-44 -26 -100 -66q-13 -13 -19 -7q-3 2 1 8q12 16 44 46.5t54 45.5q-27 73 -27 103zM243 162q0 23 11 0l1 -3q34 -73 44 -92q7 -10 6 -18t-15 -17q-44 -26 -100 -66q-13 -13 -19 -7q-3 2 1 8q12 16 44 46.5
t54 45.5q-27 73 -27 103z" />
    <glyph glyph-name="onequarter" unicode="&#xbc;" horiz-adv-x="756" 
d="M514 108q7 0 27 -2.5t30 -2.5q14 0 25 8.5t11 22.5q0 2 -1 5.5t-1 5.5q0 5 6 5q7 0 12 -11.5t5 -20.5q0 -29 -59 -29q-12 0 -37 1t-29 1q-28 -38 -28 -100q0 -7 -8 -7q-5 0 -8.5 9t-3.5 15q0 12 27 83q-40 1 -72.5 -1t-52 -4.5t-24.5 -2.5q-12 0 -12 15q0 9 6.5 13
t18 5.5t14.5 2.5q19 9 53 27q32 17 99.5 65.5t93.5 72.5q12 12 19 12q17 0 17 -10q0 -1 -1 -2q-93 -124 -127 -176zM570 234q-120 -95 -203 -127q69 6 121 0q38 78 82 127zM126 321q38 2 79 -4q12 -3 1 -11q-5 -3 -10 -3q-16 0 -74 -2t-81 -2q-9 1 -9 15q0 9 5 9h68
q17 28 37 64t43.5 80t35.5 66q-7 -5 -32.5 -16t-30.5 -11t-5 6q0 5 5 7q4 2 13 6t13 7q18 9 60 41q6 13 23 13q15 0 15 -7q0 -2 -156 -258zM53 4q105 110 259.5 294t242.5 276q14 16 39 13q20 -4 6 -21l-513 -561q-8 -11 -29 -11q-15 0 -5 10z" />
    <glyph glyph-name="onehalf" unicode="&#xbd;" horiz-adv-x="799" 
d="M126 321q38 2 79 -4q12 -3 1 -11q-5 -3 -10 -3q-16 0 -74 -2t-81 -2q-9 1 -9 15q0 9 5 9h68q17 28 37 64t43.5 80t35.5 66q-7 -5 -32.5 -16t-30.5 -11t-5 6q0 5 5 7q4 2 13 6t13 7q18 9 60 41q6 13 23 13q15 0 15 -7q0 -2 -156 -258zM382 29q103 -15 152 -15q19 0 37.5 8
t18.5 23q0 13 -17 22.5t-17 11.5q0 5 7 5h3q41 -15 41 -39t-25 -38t-51 -14q-60 0 -170 22q-55 -23 -67 -23q-14 0 -14 10q0 9 9.5 17t19.5 11q19 6 55 4q115 69 147 95q69 53 76 101q1 2 1 8q0 24 -30 24q-33 0 -77.5 -19.5t-72.5 -43.5q-2 -2 -4 -2q-7 0 -7 7q0 3 4 7
q32 28 88.5 52.5t95.5 24.5q46 0 46 -35q0 -39 -52.5 -89.5t-102 -81t-94.5 -53.5zM53 4q105 110 259.5 294t242.5 276q14 16 39 13q20 -4 6 -21l-513 -561q-8 -11 -29 -11q-15 0 -5 10z" />
    <glyph glyph-name="threequarters" unicode="&#xbe;" horiz-adv-x="870" 
d="M352 481q27 -1 46.5 -14.5t19.5 -37.5q0 -11 -1 -14q-11 -41 -50.5 -70t-84 -41t-87.5 -12q-39 0 -74.5 13t-35.5 45q0 11 10 33q11 21 43.5 35.5t58.5 14.5q6 0 6 -5q0 -7 -8 -7q-16 0 -41 -15.5t-29 -30.5q-2 -5 -2 -16q0 -29 25.5 -40.5t57.5 -11.5q56 0 107.5 29
t70.5 79q5 8 5 16q0 34 -65 34q-29 0 -49 -7q-8 -2 -10 -2q-10 0 -10 9q0 6 4.5 11t11.5 5q41 0 81 15.5t47 48.5v6q0 19 -26 19q-51 0 -111 -39q-2 -2 -5 -2q-5 0 -5 9q0 13 10 17q10 3 14.5 5.5t11.5 9.5l10 10t5 3q5 0 5 -6q0 -2 -3 -5q53 19 81 19q48 0 47 -33
q-1 -31 -37 -58q-21 -15 -44 -19zM639 108q7 0 27 -2.5t30 -2.5q14 0 25 8.5t11 22.5q0 2 -1 5.5t-1 5.5q0 5 6 5q7 0 12 -11.5t5 -20.5q0 -29 -59 -29q-12 0 -37 1t-29 1q-28 -38 -28 -100q0 -7 -8 -7q-5 0 -8.5 9t-3.5 15q0 12 27 83q-40 1 -72.5 -1t-52 -4.5t-24.5 -2.5
q-12 0 -12 15q0 9 6.5 13t18 5.5t14.5 2.5q19 9 53 27q32 17 99.5 65.5t93.5 72.5q12 12 19 12q17 0 17 -10q0 -1 -1 -2q-93 -124 -127 -176zM695 234q-120 -95 -203 -127q69 6 121 0q38 78 82 127zM178 4q105 110 259.5 294t242.5 276q14 16 39 13q20 -4 6 -21l-513 -561
q-8 -11 -29 -11q-15 0 -5 10z" />
    <glyph glyph-name="questiondown" unicode="&#xbf;" horiz-adv-x="416" 
d="M272 155q8 14 19 17q14 3 2 -33q-11 -28 -46.5 -53.5t-80 -46t-89.5 -42t-82.5 -51.5t-50.5 -64q-2 -3 -2 -13q0 -38 41.5 -59t83.5 -21q25 0 50.5 3.5t52 18.5t26.5 40q0 5 -2 16t-2 17q0 9 6 10q11 0 19 -12.5t8 -26.5q0 -51 -49.5 -74.5t-127.5 -23.5
q-57 0 -102.5 25.5t-45.5 78.5q0 107 210 181q59 22 98.5 47t63.5 66zM311 279q0 9 15 30t23 21q35 0 35 -22q0 -13 -18.5 -33t-32.5 -20q-9 0 -16 7.5t-6 16.5z" />
    <glyph glyph-name="Agrave" unicode="&#xc0;" horiz-adv-x="469" 
d="M432 98q-32 -77 -40 -115t2 -55q1 -2 -4 -5t-8 -1q-17 7 -21.5 26.5t5.5 57t17 59t25 68.5q31 76 76.5 219t55.5 190q-108 -44 -189.5 -110.5t-173.5 -172.5h141q87 0 87 -14q0 -16 -85.5 -23.5t-150.5 -7.5q-30 0 -71 -54.5t-71.5 -119t-41.5 -107.5q0 -8 -5 -8
q-6 0 -12.5 10t-6.5 16q0 48 42 129t83 132q-18 0 -51.5 -0.5t-51.5 -0.5q-15 0 -21 15q5 13 36.5 18t70.5 6t49 4q64 82 214.5 201.5t222.5 119.5q17 0 38.5 -7t21.5 -21q0 -12 -13.5 -50t-37 -94.5t-45 -105.5t-49.5 -112.5t-38 -86.5zM673 637q0 -5 -7 -5q-6 0 -64 21.5
t-68 29.5q-9 5 -11 17q0 6 5 13.5t10 8.5q3 0 18 -6q12 -8 54 -33t58 -39q3 -3 5 -7z" />
    <glyph glyph-name="Aacute" unicode="&#xc1;" horiz-adv-x="469" 
d="M432 98q-32 -77 -40 -115t2 -55q1 -2 -4 -5t-8 -1q-17 7 -21.5 26.5t5.5 57t17 59t25 68.5q31 76 76.5 219t55.5 190q-108 -44 -189.5 -110.5t-173.5 -172.5h141q87 0 87 -14q0 -16 -85.5 -23.5t-150.5 -7.5q-30 0 -71 -54.5t-71.5 -119t-41.5 -107.5q0 -8 -5 -8
q-6 0 -12.5 10t-6.5 16q0 48 42 129t83 132q-18 0 -51.5 -0.5t-51.5 -0.5q-15 0 -21 15q5 13 36.5 18t70.5 6t49 4q64 82 214.5 201.5t222.5 119.5q17 0 38.5 -7t21.5 -21q0 -12 -13.5 -50t-37 -94.5t-45 -105.5t-49.5 -112.5t-38 -86.5zM538 647q2 4 5 7q16 14 58 39t54 33
q15 6 18 6q5 -1 10 -8.5t5 -13.5q-2 -12 -11 -17q-10 -8 -68 -29.5t-64 -21.5q-7 0 -7 5z" />
    <glyph glyph-name="Acircumflex" unicode="&#xc2;" horiz-adv-x="469" 
d="M432 98q-32 -77 -40 -115t2 -55q1 -2 -4 -5t-8 -1q-17 7 -21.5 26.5t5.5 57t17 59t25 68.5q31 76 76.5 219t55.5 190q-108 -44 -189.5 -110.5t-173.5 -172.5h141q87 0 87 -14q0 -16 -85.5 -23.5t-150.5 -7.5q-30 0 -71 -54.5t-71.5 -119t-41.5 -107.5q0 -8 -5 -8
q-6 0 -12.5 10t-6.5 16q0 48 42 129t83 132q-18 0 -51.5 -0.5t-51.5 -0.5q-15 0 -21 15q5 13 36.5 18t70.5 6t49 4q64 82 214.5 201.5t222.5 119.5q17 0 38.5 -7t21.5 -21q0 -12 -13.5 -50t-37 -94.5t-45 -105.5t-49.5 -112.5t-38 -86.5zM703 674q7 -16 -6 -16
q-12 0 -38 31.5t-30 47.5q-58 -49 -105 -80q-11 -7 -14 2q-2 5 7 12q2 2 57 51.5t63 52.5q15 7 20 -4q15 -49 46 -97z" />
    <glyph glyph-name="Atilde" unicode="&#xc3;" horiz-adv-x="469" 
d="M432 98q-32 -77 -40 -115t2 -55q1 -2 -4 -5t-8 -1q-17 7 -21.5 26.5t5.5 57t17 59t25 68.5q31 76 76.5 219t55.5 190q-108 -44 -189.5 -110.5t-173.5 -172.5h141q87 0 87 -14q0 -16 -85.5 -23.5t-150.5 -7.5q-30 0 -71 -54.5t-71.5 -119t-41.5 -107.5q0 -8 -5 -8
q-6 0 -12.5 10t-6.5 16q0 48 42 129t83 132q-18 0 -51.5 -0.5t-51.5 -0.5q-15 0 -21 15q5 13 36.5 18t70.5 6t49 4q64 82 214.5 201.5t222.5 119.5q17 0 38.5 -7t21.5 -21q0 -12 -13.5 -50t-37 -94.5t-45 -105.5t-49.5 -112.5t-38 -86.5zM723 714q8 11 15 3q2 -2 1 -6
q-19 -52 -62 -58q-17 -1 -48.5 13.5t-52.5 14.5q-34 0 -60 -33q-9 -11 -13 -6t-1 16q3 20 25 42.5t55 22.5q16 0 49.5 -15t49.5 -15q24 0 42 21z" />
    <glyph glyph-name="Adieresis" unicode="&#xc4;" horiz-adv-x="469" 
d="M432 98q-32 -77 -40 -115t2 -55q1 -2 -4 -5t-8 -1q-17 7 -21.5 26.5t5.5 57t17 59t25 68.5q31 76 76.5 219t55.5 190q-108 -44 -189.5 -110.5t-173.5 -172.5h141q87 0 87 -14q0 -16 -85.5 -23.5t-150.5 -7.5q-30 0 -71 -54.5t-71.5 -119t-41.5 -107.5q0 -8 -5 -8
q-6 0 -12.5 10t-6.5 16q0 48 42 129t83 132q-18 0 -51.5 -0.5t-51.5 -0.5q-15 0 -21 15q5 13 36.5 18t70.5 6t49 4q64 82 214.5 201.5t222.5 119.5q17 0 38.5 -7t21.5 -21q0 -12 -13.5 -50t-37 -94.5t-45 -105.5t-49.5 -112.5t-38 -86.5zM591 708q0 -9 -15 -30t-23 -21
q-35 0 -35 22q0 13 18.5 33t32.5 20q9 0 16 -7.5t6 -16.5zM711 708q0 -9 -15 -30t-23 -21q-35 0 -35 22q0 13 18.5 33t32.5 20q9 0 16 -7.5t6 -16.5z" />
    <glyph glyph-name="Aring" unicode="&#xc5;" horiz-adv-x="469" 
d="M432 98q-32 -77 -40 -115t2 -55q1 -2 -4 -5t-8 -1q-17 7 -21.5 26.5t5.5 57t17 59t25 68.5q31 76 76.5 219t55.5 190q-108 -44 -189.5 -110.5t-173.5 -172.5h141q87 0 87 -14q0 -16 -85.5 -23.5t-150.5 -7.5q-30 0 -71 -54.5t-71.5 -119t-41.5 -107.5q0 -8 -5 -8
q-6 0 -12.5 10t-6.5 16q0 48 42 129t83 132q-18 0 -51.5 -0.5t-51.5 -0.5q-15 0 -21 15q5 13 36.5 18t70.5 6t49 4q64 82 214.5 201.5t222.5 119.5q17 0 38.5 -7t21.5 -21q0 -12 -13.5 -50t-37 -94.5t-45 -105.5t-49.5 -112.5t-38 -86.5zM671 660q0 -36 -28 -65t-64 -29
q-41 0 -45 40q-3 41 31 77q28 29 63 29q19 0 31 -16t12 -36zM645 659q0 36 -22 36q-28 0 -45 -43q-17 -42 -2 -60q4 -6 12 -6q30 0 43.5 22.5t13.5 50.5z" />
    <glyph glyph-name="AE" unicode="&#xc6;" horiz-adv-x="887" 
d="M975 541q-19 8 -79 8q-44 0 -113.5 -7t-88.5 -19q-12 -7 -50 -57t-82 -111.5t-48 -66.5q42 -2 119.5 3.5t110.5 5.5q83 0 110 -3q34 -5 -22 -22q-1 -1 -3 -1q-67 -11 -195 -16.5t-147 -7.5q-9 -17 -18 -40.5t-17.5 -59.5t-6 -64t24.5 -46t66 -12q94 13 217.5 50.5
t194.5 77.5q10 5 11.5 0.5t-4.5 -11.5q-37 -54 -191 -111t-238 -57q-126 0 -141 111q-8 53 39 152q-48 -8 -128.5 -14.5t-102.5 -6.5q-41 -4 -88.5 -59.5t-78 -117.5t-41.5 -106q0 -8 -5 -8q-6 0 -12.5 10t-6.5 16q0 48 42 129t83 132q-18 0 -51.5 -0.5t-51.5 -0.5
q-15 0 -21 15q5 13 36.5 18t70.5 6t49 4q64 82 214.5 201.5t222.5 119.5q28 0 50 -13q58 22 229 22q90 0 144 -9q30 -9 28 -31q-1 -16 -13 -17q-10 -1 -18 14zM388 267q37 0 50 -2l19 37q25 48 49.5 84t51.5 69.5t37 48.5q-2 4 -11.5 8t-11.5 17q-2 8 4 15l-36 -2
q-57 -23 -103 -51t-89.5 -67t-73 -70t-79.5 -89q21 0 95.5 1t97.5 1z" />
    <glyph glyph-name="Ccedilla" unicode="&#xc7;" horiz-adv-x="554" 
d="M226 -32q-74 0 -124.5 38.5t-56.5 110.5q-8 88 67 201.5t185 193t197 77.5q35 -1 60.5 -22.5t28.5 -55.5t-18.5 -57t-54.5 -22q-17 0 -18 8q3 7 13 15.5t18.5 16t15 23.5t4.5 37q-4 33 -42 33q-61 1 -135.5 -50.5t-134 -125.5t-98 -159t-32.5 -145q5 -43 37.5 -65.5
t76.5 -23.5q54 -1 120.5 21t130 59t98 60t65.5 46q5 4 5 -5t-9 -18q-70 -72 -188.5 -132.5t-210.5 -58.5zM225 -151q0 -32 -48.5 -46t-80.5 3q-6 4 -4 9q1 4 9 1q31 -9 59.5 -2t28.5 28q0 9 -20.5 36t-20.5 40q0 31 20.5 48t51.5 17q5 0 8.5 -3t-3.5 -7q-30 -5 -41.5 -20
t-7.5 -32q1 -5 25 -29.5t24 -42.5z" />
    <glyph glyph-name="Egrave" unicode="&#xc8;" horiz-adv-x="589" 
d="M677 541q-19 8 -79 8q-44 0 -113.5 -7t-88.5 -19q-17 -10 -64.5 -67.5t-75.5 -95.5q42 -2 119.5 3.5t110.5 5.5q83 0 110 -3q34 -5 -22 -22q-1 -1 -3 -1q-30 -5 -162 -10.5t-194 -32.5q-1 -2 -11 -19.5t-17 -32.5t-18.5 -39.5t-17.5 -44.5t-11.5 -44t-2 -42t12.5 -33
t29.5 -23.5t51.5 -8.5q83 0 207.5 45t211.5 95q10 5 11.5 0.5t-4.5 -11.5q-37 -54 -191 -111t-238 -57q-126 0 -141 111q-2 21 1 43t13 48.5t17 42t22.5 46.5l18.5 37q-58 0 -61 28q-1 5 1.5 7.5t7 3t9 0t10 -1t7.5 -0.5q34 0 62.5 26t62.5 79t39 60q-2 4 -11.5 8t-11.5 17
q-8 55 262 55q90 0 144 -9q30 -9 28 -31q-1 -16 -13 -17q-10 -1 -18 14zM611 644q0 -5 -7 -5q-6 0 -64 21.5t-68 29.5q-9 5 -11 17q0 6 5 13.5t10 8.5q3 0 18 -6q12 -8 54 -33t58 -39q3 -3 5 -7z" />
    <glyph glyph-name="Eacute" unicode="&#xc9;" horiz-adv-x="589" 
d="M677 541q-19 8 -79 8q-44 0 -113.5 -7t-88.5 -19q-17 -10 -64.5 -67.5t-75.5 -95.5q42 -2 119.5 3.5t110.5 5.5q83 0 110 -3q34 -5 -22 -22q-1 -1 -3 -1q-30 -5 -162 -10.5t-194 -32.5q-1 -2 -11 -19.5t-17 -32.5t-18.5 -39.5t-17.5 -44.5t-11.5 -44t-2 -42t12.5 -33
t29.5 -23.5t51.5 -8.5q83 0 207.5 45t211.5 95q10 5 11.5 0.5t-4.5 -11.5q-37 -54 -191 -111t-238 -57q-126 0 -141 111q-2 21 1 43t13 48.5t17 42t22.5 46.5l18.5 37q-58 0 -61 28q-1 5 1.5 7.5t7 3t9 0t10 -1t7.5 -0.5q34 0 62.5 26t62.5 79t39 60q-2 4 -11.5 8t-11.5 17
q-8 55 262 55q90 0 144 -9q30 -9 28 -31q-1 -16 -13 -17q-10 -1 -18 14zM497 675q2 4 5 7q16 14 58 39t54 33q15 6 18 6q5 -1 10 -8.5t5 -13.5q-2 -12 -11 -17q-10 -8 -68 -29.5t-64 -21.5q-7 0 -7 5z" />
    <glyph glyph-name="Ecircumflex" unicode="&#xca;" horiz-adv-x="589" 
d="M677 541q-19 8 -79 8q-44 0 -113.5 -7t-88.5 -19q-17 -10 -64.5 -67.5t-75.5 -95.5q42 -2 119.5 3.5t110.5 5.5q83 0 110 -3q34 -5 -22 -22q-1 -1 -3 -1q-30 -5 -162 -10.5t-194 -32.5q-1 -2 -11 -19.5t-17 -32.5t-18.5 -39.5t-17.5 -44.5t-11.5 -44t-2 -42t12.5 -33
t29.5 -23.5t51.5 -8.5q83 0 207.5 45t211.5 95q10 5 11.5 0.5t-4.5 -11.5q-37 -54 -191 -111t-238 -57q-126 0 -141 111q-2 21 1 43t13 48.5t17 42t22.5 46.5l18.5 37q-58 0 -61 28q-1 5 1.5 7.5t7 3t9 0t10 -1t7.5 -0.5q34 0 62.5 26t62.5 79t39 60q-2 4 -11.5 8t-11.5 17
q-8 55 262 55q90 0 144 -9q30 -9 28 -31q-1 -16 -13 -17q-10 -1 -18 14zM652 672q7 -16 -6 -16q-12 0 -38 31.5t-30 47.5q-58 -49 -105 -80q-11 -7 -14 2q-2 5 7 12q2 2 57 51.5t63 52.5q15 7 20 -4q15 -49 46 -97z" />
    <glyph glyph-name="Edieresis" unicode="&#xcb;" horiz-adv-x="589" 
d="M677 541q-19 8 -79 8q-44 0 -113.5 -7t-88.5 -19q-17 -10 -64.5 -67.5t-75.5 -95.5q42 -2 119.5 3.5t110.5 5.5q83 0 110 -3q34 -5 -22 -22q-1 -1 -3 -1q-30 -5 -162 -10.5t-194 -32.5q-1 -2 -11 -19.5t-17 -32.5t-18.5 -39.5t-17.5 -44.5t-11.5 -44t-2 -42t12.5 -33
t29.5 -23.5t51.5 -8.5q83 0 207.5 45t211.5 95q10 5 11.5 0.5t-4.5 -11.5q-37 -54 -191 -111t-238 -57q-126 0 -141 111q-2 21 1 43t13 48.5t17 42t22.5 46.5l18.5 37q-58 0 -61 28q-1 5 1.5 7.5t7 3t9 0t10 -1t7.5 -0.5q34 0 62.5 26t62.5 79t39 60q-2 4 -11.5 8t-11.5 17
q-8 55 262 55q90 0 144 -9q30 -9 28 -31q-1 -16 -13 -17q-10 -1 -18 14zM533 725q0 -9 -15 -30t-23 -21q-35 0 -35 22q0 13 18.5 33t32.5 20q9 0 16 -7.5t6 -16.5zM653 725q0 -9 -15 -30t-23 -21q-35 0 -35 22q0 13 18.5 33t32.5 20q9 0 16 -7.5t6 -16.5z" />
    <glyph glyph-name="Igrave" unicode="&#xcc;" horiz-adv-x="407" 
d="M709 571q-5 -10 -46 -14.5t-95.5 -17t-85.5 -41.5q-71 -65 -158 -206t-118 -236q33 -1 91 0.5t82 1.5q27 0 27 -8t-14 -12.5t-24 -4.5q-202 -16 -337 -47q-1 0 -4.5 -0.5t-5.5 -0.5q-14 0 -16 14q-1 10 5.5 17.5t20 13t27.5 9t33 6t32 4t29.5 2.5t19.5 1
q26 100 115.5 267.5t155.5 222.5q-26 0 -73.5 -16.5t-62.5 -16.5q-8 0 -15 8t-7 16q-2 19 39 28.5t91.5 13.5t59.5 9q4 2 14 15t16 13q16 0 44 -28q85 0 145 -5q14 0 15 -8zM628 658q0 -5 -7 -5q-6 0 -64 21.5t-68 29.5q-9 5 -11 17q0 6 5 13.5t10 8.5q3 0 18 -6
q12 -8 54 -33t58 -39q3 -3 5 -7z" />
    <glyph glyph-name="Iacute" unicode="&#xcd;" horiz-adv-x="407" 
d="M709 571q-5 -10 -46 -14.5t-95.5 -17t-85.5 -41.5q-71 -65 -158 -206t-118 -236q33 -1 91 0.5t82 1.5q27 0 27 -8t-14 -12.5t-24 -4.5q-202 -16 -337 -47q-1 0 -4.5 -0.5t-5.5 -0.5q-14 0 -16 14q-1 10 5.5 17.5t20 13t27.5 9t33 6t32 4t29.5 2.5t19.5 1
q26 100 115.5 267.5t155.5 222.5q-26 0 -73.5 -16.5t-62.5 -16.5q-8 0 -15 8t-7 16q-2 19 39 28.5t91.5 13.5t59.5 9q4 2 14 15t16 13q16 0 44 -28q85 0 145 -5q14 0 15 -8zM514 672q2 4 5 7q16 14 58 39t54 33q15 6 18 6q5 -1 10 -8.5t5 -13.5q-2 -12 -11 -17
q-10 -8 -68 -29.5t-64 -21.5q-7 0 -7 5z" />
    <glyph glyph-name="Icircumflex" unicode="&#xce;" horiz-adv-x="407" 
d="M709 571q-5 -10 -46 -14.5t-95.5 -17t-85.5 -41.5q-71 -65 -158 -206t-118 -236q33 -1 91 0.5t82 1.5q27 0 27 -8t-14 -12.5t-24 -4.5q-202 -16 -337 -47q-1 0 -4.5 -0.5t-5.5 -0.5q-14 0 -16 14q-1 10 5.5 17.5t20 13t27.5 9t33 6t32 4t29.5 2.5t19.5 1
q26 100 115.5 267.5t155.5 222.5q-26 0 -73.5 -16.5t-62.5 -16.5q-8 0 -15 8t-7 16q-2 19 39 28.5t91.5 13.5t59.5 9q4 2 14 15t16 13q16 0 44 -28q85 0 145 -5q14 0 15 -8zM656 680q7 -16 -6 -16q-12 0 -38 31.5t-30 47.5q-58 -49 -105 -80q-11 -7 -14 2q-2 5 7 12
q2 2 57 51.5t63 52.5q15 7 20 -4q15 -49 46 -97z" />
    <glyph glyph-name="Idieresis" unicode="&#xcf;" horiz-adv-x="407" 
d="M709 571q-5 -10 -46 -14.5t-95.5 -17t-85.5 -41.5q-71 -65 -158 -206t-118 -236q33 -1 91 0.5t82 1.5q27 0 27 -8t-14 -12.5t-24 -4.5q-202 -16 -337 -47q-1 0 -4.5 -0.5t-5.5 -0.5q-14 0 -16 14q-1 10 5.5 17.5t20 13t27.5 9t33 6t32 4t29.5 2.5t19.5 1
q26 100 115.5 267.5t155.5 222.5q-26 0 -73.5 -16.5t-62.5 -16.5q-8 0 -15 8t-7 16q-2 19 39 28.5t91.5 13.5t59.5 9q4 2 14 15t16 13q16 0 44 -28q85 0 145 -5q14 0 15 -8zM549 730q0 -9 -15 -30t-23 -21q-35 0 -35 22q0 13 18.5 33t32.5 20q9 0 16 -7.5t6 -16.5zM669 730
q0 -9 -15 -30t-23 -21q-35 0 -35 22q0 13 18.5 33t32.5 20q9 0 16 -7.5t6 -16.5z" />
    <glyph glyph-name="Eth" unicode="&#xd0;" horiz-adv-x="587" 
d="M671 367q7 -61 -20 -119t-76.5 -102t-111 -78t-126 -51.5t-120.5 -17.5q-13 0 -41.5 8t-28.5 16q0 11 50 11q45 0 104.5 19.5t119.5 55t110.5 78.5t80 95.5t24.5 100.5q-4 36 -19.5 64t-34.5 46t-50.5 30.5t-56.5 19t-63 10t-60.5 4t-58.5 0.5q-104 0 -149 -15
q-29 -9 -41 -9q-11 0 -11 4q-4 22 37 36.5t79 18.5t61 4q375 0 402 -229zM193 176h-60q-51 -93 -46 -144q2 -14 12 -14q9 0 19 6.5t11 6.5q-1 0 2 -3q0 -1 1 -2q2 -17 -10.5 -32.5t-29.5 -15.5q-30 0 -39 55q-4 36 41 143h-66q-20 0 -7 15q21 20 49 22h41q55 121 122.5 223
t101.5 102q11 0 28 -10t19 -21q0 -4 -36.5 -47.5t-94 -115.5t-95.5 -131h69q62 0 62 -12q0 -11 -30 -18t-64 -7z" />
    <glyph glyph-name="Ntilde" unicode="&#xd1;" horiz-adv-x="578" 
d="M380 -6q-40 0 -62.5 31.5t-25 82t2.5 108t18.5 116.5t24.5 99t19 63q-41 -47 -85.5 -103t-100 -132.5t-90.5 -147.5t-35 -115q0 -17 10 -17q18 0 18 -8t-13 -8q-23 0 -33 10t-10 33q0 69 86 221t161 253q-15 4 -15 10q0 9 49 54.5t61 45.5q16 0 29.5 -13t13.5 -30
q0 -2 -2 -8q-5 -18 -10 -39.5t-14.5 -63.5t-16 -82t-12.5 -87t-5.5 -86t5.5 -72t21 -51.5t41 -18.5q47 0 98.5 64t95.5 161q38 80 64 191q29 122 -8 122q-5 0 -16.5 -3.5t-18.5 -3.5q-12 0 -12 7q0 13 23.5 24.5t39.5 11.5q72 0 53 -117q-19 -122 -111 -278
q-93 -156 -181 -206q-31 -18 -57 -18zM690 738q8 11 15 3q2 -2 1 -6q-19 -52 -62 -58q-17 -1 -48.5 13.5t-52.5 14.5q-34 0 -60 -33q-9 -11 -13 -6t-1 16q3 20 25 42.5t55 22.5q16 0 49.5 -15t49.5 -15q24 0 42 21z" />
    <glyph glyph-name="Ograve" unicode="&#xd2;" horiz-adv-x="657" 
d="M761 377q0 -62 -38 -124.5t-98.5 -111t-132 -87t-144 -59t-129.5 -20.5q-160 0 -160 161q0 167 240 375q-94 -32 -179 -109q-15 -14 -21.5 -7.5t5.5 21.5q60 81 170 128t217 47q71 0 129.5 -20.5t99.5 -70.5t41 -123zM714 421q0 51 -34 84t-77 44t-93 11q-73 0 -142 -22
q19 -3 37 -13t18 -26q0 -8 -11 -13q-101 -33 -209.5 -147.5t-108.5 -212.5q0 -118 117 -118q69 0 157 36.5t164.5 93t129 133.5t52.5 150zM661 650q0 -5 -7 -5q-6 0 -64 21.5t-68 29.5q-9 5 -11 17q0 6 5 13.5t10 8.5q3 0 18 -6q12 -8 54 -33t58 -39q3 -3 5 -7z" />
    <glyph glyph-name="Oacute" unicode="&#xd3;" horiz-adv-x="657" 
d="M761 377q0 -62 -38 -124.5t-98.5 -111t-132 -87t-144 -59t-129.5 -20.5q-160 0 -160 161q0 167 240 375q-94 -32 -179 -109q-15 -14 -21.5 -7.5t5.5 21.5q60 81 170 128t217 47q71 0 129.5 -20.5t99.5 -70.5t41 -123zM714 421q0 51 -34 84t-77 44t-93 11q-73 0 -142 -22
q19 -3 37 -13t18 -26q0 -8 -11 -13q-101 -33 -209.5 -147.5t-108.5 -212.5q0 -118 117 -118q69 0 157 36.5t164.5 93t129 133.5t52.5 150zM519 666q2 4 5 7q16 14 58 39t54 33q15 6 18 6q5 -1 10 -8.5t5 -13.5q-2 -12 -11 -17q-10 -8 -68 -29.5t-64 -21.5q-7 0 -7 5z" />
    <glyph glyph-name="Ocircumflex" unicode="&#xd4;" horiz-adv-x="657" 
d="M761 377q0 -62 -38 -124.5t-98.5 -111t-132 -87t-144 -59t-129.5 -20.5q-160 0 -160 161q0 167 240 375q-94 -32 -179 -109q-15 -14 -21.5 -7.5t5.5 21.5q60 81 170 128t217 47q71 0 129.5 -20.5t99.5 -70.5t41 -123zM714 421q0 51 -34 84t-77 44t-93 11q-73 0 -142 -22
q19 -3 37 -13t18 -26q0 -8 -11 -13q-101 -33 -209.5 -147.5t-108.5 -212.5q0 -118 117 -118q69 0 157 36.5t164.5 93t129 133.5t52.5 150zM668 667q7 -16 -6 -16q-12 0 -38 31.5t-30 47.5q-58 -49 -105 -80q-11 -7 -14 2q-2 5 7 12q2 2 57 51.5t63 52.5q15 7 20 -4
q15 -49 46 -97z" />
    <glyph glyph-name="Otilde" unicode="&#xd5;" horiz-adv-x="657" 
d="M761 377q0 -62 -38 -124.5t-98.5 -111t-132 -87t-144 -59t-129.5 -20.5q-160 0 -160 161q0 167 240 375q-94 -32 -179 -109q-15 -14 -21.5 -7.5t5.5 21.5q60 81 170 128t217 47q71 0 129.5 -20.5t99.5 -70.5t41 -123zM714 421q0 51 -34 84t-77 44t-93 11q-73 0 -142 -22
q19 -3 37 -13t18 -26q0 -8 -11 -13q-101 -33 -209.5 -147.5t-108.5 -212.5q0 -118 117 -118q69 0 157 36.5t164.5 93t129 133.5t52.5 150zM698 737q8 11 15 3q2 -2 1 -6q-19 -52 -62 -58q-17 -1 -48.5 13.5t-52.5 14.5q-34 0 -60 -33q-9 -11 -13 -6t-1 16q3 20 25 42.5
t55 22.5q16 0 49.5 -15t49.5 -15q24 0 42 21z" />
    <glyph glyph-name="Odieresis" unicode="&#xd6;" horiz-adv-x="657" 
d="M761 377q0 -62 -38 -124.5t-98.5 -111t-132 -87t-144 -59t-129.5 -20.5q-160 0 -160 161q0 167 240 375q-94 -32 -179 -109q-15 -14 -21.5 -7.5t5.5 21.5q60 81 170 128t217 47q71 0 129.5 -20.5t99.5 -70.5t41 -123zM714 421q0 51 -34 84t-77 44t-93 11q-73 0 -142 -22
q19 -3 37 -13t18 -26q0 -8 -11 -13q-101 -33 -209.5 -147.5t-108.5 -212.5q0 -118 117 -118q69 0 157 36.5t164.5 93t129 133.5t52.5 150zM563 727q0 -9 -15 -30t-23 -21q-35 0 -35 22q0 13 18.5 33t32.5 20q9 0 16 -7.5t6 -16.5zM683 727q0 -9 -15 -30t-23 -21
q-35 0 -35 22q0 13 18.5 33t32.5 20q9 0 16 -7.5t6 -16.5z" />
    <glyph glyph-name="multiply" unicode="&#xd7;" horiz-adv-x="435" 
d="M229 181l121 91q34 24 63 20q15 -2 15 -6q1 -5 -32 -29q-2 -1 -4 -3q-11 -9 -65 -41.5t-91 -57.5q4 -19 15 -60.5t14 -57.5q5 -19 -2 -20.5t-14 15.5q-30 92 -37 110q-29 -19 -80.5 -59.5t-73.5 -55.5q-18 -11 -20 -3q-3 9 21 24q12 8 60.5 48t85.5 67q-8 22 -20.5 48
t-15.5 33q-8 23 12 40q16 15 25 -2q1 -3 2 -7q3 -11 9 -41t12 -53z" />
    <glyph glyph-name="Oslash" unicode="&#xd8;" horiz-adv-x="657" 
d="M4 -96l100 107q-45 40 -45 125q0 167 240 375q-94 -32 -179 -109q-15 -14 -21.5 -7.5t5.5 21.5q60 81 170 128t217 47q60 0 105 -14l58 62q13 18 50 16q29 -1 27 -14q-1 -6 -7 -12l-70 -75q107 -55 107 -177q0 -62 -38 -124.5t-98.5 -111t-132 -87t-144 -59t-129.5 -20.5
q-53 0 -87 18l-84 -91q-12 -12 -37 -12q-19 1 -7 14zM714 421q0 78 -77 115l-482 -519q23 -9 56 -9q69 0 157 36.5t164.5 93t129 133.5t52.5 150zM94 126q0 -62 32 -91q81 90 228.5 264t220.5 255q-33 6 -65 6q-73 0 -142 -22q19 -3 37 -13t18 -26q0 -8 -11 -13
q-101 -33 -209.5 -147.5t-108.5 -212.5z" />
    <glyph glyph-name="Ugrave" unicode="&#xd9;" horiz-adv-x="492" 
d="M478 -57q2 -3 -1.5 -5.5t-7.5 -2.5q-19 0 -33 20t-20.5 50t-9 54.5t-2.5 42.5q0 45 9 115q-41 -46 -86 -89.5t-110 -87t-109 -43.5q-41 0 -63.5 27.5t-22.5 70.5q0 60 58 198.5t103 206.5q4 5 18 28t20 30t21 16t33 9q12 0 19.5 -2t9.5 -6.5t1.5 -9t-5 -11.5t-8 -12
t-10 -12.5t-9.5 -11.5q-40 -57 -64 -94t-64.5 -105.5t-62 -128.5t-21.5 -106q0 -56 40 -56q49 0 102.5 33t97 80.5t87.5 111.5t72 112.5t52 97.5q5 10 24 52.5t32 61.5q14 19 41 19q13 0 27.5 -5t14.5 -15q0 -3 -12.5 -23t-36.5 -60t-44 -78q-78 -152 -99 -276t19 -196z
M545 666q0 -5 -7 -5q-6 0 -64 21.5t-68 29.5q-9 5 -11 17q0 6 5 13.5t10 8.5q3 0 18 -6q12 -8 54 -33t58 -39q3 -3 5 -7z" />
    <glyph glyph-name="Uacute" unicode="&#xda;" horiz-adv-x="492" 
d="M478 -57q2 -3 -1.5 -5.5t-7.5 -2.5q-19 0 -33 20t-20.5 50t-9 54.5t-2.5 42.5q0 45 9 115q-41 -46 -86 -89.5t-110 -87t-109 -43.5q-41 0 -63.5 27.5t-22.5 70.5q0 60 58 198.5t103 206.5q4 5 18 28t20 30t21 16t33 9q12 0 19.5 -2t9.5 -6.5t1.5 -9t-5 -11.5t-8 -12
t-10 -12.5t-9.5 -11.5q-40 -57 -64 -94t-64.5 -105.5t-62 -128.5t-21.5 -106q0 -56 40 -56q49 0 102.5 33t97 80.5t87.5 111.5t72 112.5t52 97.5q5 10 24 52.5t32 61.5q14 19 41 19q13 0 27.5 -5t14.5 -15q0 -3 -12.5 -23t-36.5 -60t-44 -78q-78 -152 -99 -276t19 -196z
M428 661q2 4 5 7q16 14 58 39t54 33q15 6 18 6q5 -1 10 -8.5t5 -13.5q-2 -12 -11 -17q-10 -8 -68 -29.5t-64 -21.5q-7 0 -7 5z" />
    <glyph glyph-name="Ucircumflex" unicode="&#xdb;" horiz-adv-x="492" 
d="M478 -57q2 -3 -1.5 -5.5t-7.5 -2.5q-19 0 -33 20t-20.5 50t-9 54.5t-2.5 42.5q0 45 9 115q-41 -46 -86 -89.5t-110 -87t-109 -43.5q-41 0 -63.5 27.5t-22.5 70.5q0 60 58 198.5t103 206.5q4 5 18 28t20 30t21 16t33 9q12 0 19.5 -2t9.5 -6.5t1.5 -9t-5 -11.5t-8 -12
t-10 -12.5t-9.5 -11.5q-40 -57 -64 -94t-64.5 -105.5t-62 -128.5t-21.5 -106q0 -56 40 -56q49 0 102.5 33t97 80.5t87.5 111.5t72 112.5t52 97.5q5 10 24 52.5t32 61.5q14 19 41 19q13 0 27.5 -5t14.5 -15q0 -3 -12.5 -23t-36.5 -60t-44 -78q-78 -152 -99 -276t19 -196z
M586 666q7 -16 -6 -16q-12 0 -38 31.5t-30 47.5q-58 -49 -105 -80q-11 -7 -14 2q-2 5 7 12q2 2 57 51.5t63 52.5q15 7 20 -4q15 -49 46 -97z" />
    <glyph glyph-name="Udieresis" unicode="&#xdc;" horiz-adv-x="492" 
d="M478 -57q2 -3 -1.5 -5.5t-7.5 -2.5q-19 0 -33 20t-20.5 50t-9 54.5t-2.5 42.5q0 45 9 115q-41 -46 -86 -89.5t-110 -87t-109 -43.5q-41 0 -63.5 27.5t-22.5 70.5q0 60 58 198.5t103 206.5q4 5 18 28t20 30t21 16t33 9q12 0 19.5 -2t9.5 -6.5t1.5 -9t-5 -11.5t-8 -12
t-10 -12.5t-9.5 -11.5q-40 -57 -64 -94t-64.5 -105.5t-62 -128.5t-21.5 -106q0 -56 40 -56q49 0 102.5 33t97 80.5t87.5 111.5t72 112.5t52 97.5q5 10 24 52.5t32 61.5q14 19 41 19q13 0 27.5 -5t14.5 -15q0 -3 -12.5 -23t-36.5 -60t-44 -78q-78 -152 -99 -276t19 -196z
M456 719q0 -9 -15 -30t-23 -21q-35 0 -35 22q0 13 18.5 33t32.5 20q9 0 16 -7.5t6 -16.5zM576 719q0 -9 -15 -30t-23 -21q-35 0 -35 22q0 13 18.5 33t32.5 20q9 0 16 -7.5t6 -16.5z" />
    <glyph glyph-name="Yacute" unicode="&#xdd;" horiz-adv-x="336" 
d="M171 -7q0 -20 2.5 -23t18.5 -3q14 0 9 -12q-7 -15 -23 -12q-41 5 -41 46q0 30 24.5 86t49 100t24.5 45q0 4 -2 10.5t-2 10.5q0 3 6.5 17t6.5 23q0 74 -72 174q-3 -29 -7 -30q-4 0 -22 33q-33 60 -73 88q-9 8 -9 14q0 14 13.5 22.5t27.5 8.5q39 0 81.5 -64.5t68.5 -137.5
t28 -112q14 17 64.5 79t85.5 100.5t72 72.5q2 18 32.5 44.5t48.5 26.5q14 0 26 -12.5t12 -26.5q0 -10 -10 -17q-69 -49 -168 -146.5t-185.5 -216.5t-86.5 -188zM306 616q2 4 5 7q16 14 58 39t54 33q15 6 18 6q5 -1 10 -8.5t5 -13.5q-2 -12 -11 -17q-10 -8 -68 -29.5
t-64 -21.5q-7 0 -7 5z" />
    <glyph glyph-name="Thorn" unicode="&#xde;" horiz-adv-x="461" 
d="M81 -10q0 -14 -6 -14q-11 0 -19 19t-8 31q-5 58 72.5 212.5t178.5 312.5q-77 -6 -140 -39q-8 -3 -8 2q-2 29 51 47t102 18h13q40 61 75 108q4 4 10.5 14.5t11.5 18.5t13.5 16.5t15.5 9t17 -3.5q23 -13 24 -30q0 -4 -11 -19t-40 -54t-49 -66q196 -28 206 -141
q3 -47 -22.5 -86t-67 -63.5t-93.5 -42t-99.5 -25t-87.5 -7.5q-26 0 -39 4q-32 12 3 19q53 7 108.5 21t119.5 38.5t103 63.5t36 86q-6 90 -185 109q-297 -401 -285 -559z" />
    <glyph glyph-name="germandbls" unicode="&#xdf;" horiz-adv-x="466" 
d="M174 33q0 -39 57 -42.5t114 25.5t57 69q0 36 -23 70.5t-44 65t-18 57.5q6 47 59.5 82t111.5 37q7 17 17 32q36 63 12 96q-22 31 -71 5q-29 -15 -59 -48q-54 -61 -102 -132.5t-118.5 -190t-104.5 -172.5q0 -1 -8 -12.5t-14.5 -21t-19 -26.5t-24 -31t-28 -32t-32 -32
t-34.5 -28t-37.5 -23.5t-40 -15.5t-41.5 -6q-23 0 -43 13.5t-25 31.5q-3 14 -2 23t4.5 13.5t7.5 2.5q9 -5 16.5 -19.5t22.5 -24t49 -9.5q106 0 302 364q102 182 155 254q117 162 206 162q15 0 36 -8q18 -7 35.5 -35.5t12.5 -55.5q-9 -56 -47 -81q-4 -5 -8 -7t-12.5 -3
t-10.5 -2q-74 -19 -99 -39q-21 -16 -23.5 -41.5t11 -54.5t31.5 -54.5t41 -50.5q35 -50 12 -92t-95.5 -65t-150.5 -9q-28 6 -46 23.5t-18 45.5q0 34 27 63.5t54 44.5q17 10 21 9t-9 -20q-1 -1 -13 -13.5t-18 -20t-15 -20.5t-13.5 -26t-4.5 -25z" />
    <glyph glyph-name="agrave" unicode="&#xe0;" horiz-adv-x="314" 
d="M230 -19q-14 0 -31 16t-17 30q0 19 21 60.5t38 67.5q-13 -11 -48 -54.5t-68 -77.5t-51 -34q-23 0 -36 15t-13 38q0 73 88.5 161.5t153.5 88.5q28 0 44.5 -13t16.5 -37q0 -26 -9 -26q-1 0 -18 18t-37 18q-50 0 -111.5 -67.5t-86.5 -126.5q-8 -18 -8 -31q0 -9 4 -9q1 0 7 2
q87 48 162 148q5 8 14 22t15 21q4 7 10 7q11 0 21.5 -15t10.5 -26q0 -5 -1 -6q-22 -19 -44.5 -65.5t-32.5 -83.5q-3 -11 0 -11q1 -1 3 0q18 5 75.5 61t82.5 85q7 7 10 7q7 0 7 -7q0 -11 -80 -93.5t-92 -82.5zM347 378q0 -5 -7 -5q-6 0 -64 21.5t-68 29.5q-9 5 -11 17
q0 6 5 13.5t10 8.5q3 0 18 -6q12 -8 54 -33t58 -39q3 -3 5 -7z" />
    <glyph glyph-name="aacute" unicode="&#xe1;" horiz-adv-x="314" 
d="M230 -19q-14 0 -31 16t-17 30q0 19 21 60.5t38 67.5q-13 -11 -48 -54.5t-68 -77.5t-51 -34q-23 0 -36 15t-13 38q0 73 88.5 161.5t153.5 88.5q28 0 44.5 -13t16.5 -37q0 -26 -9 -26q-1 0 -18 18t-37 18q-50 0 -111.5 -67.5t-86.5 -126.5q-8 -18 -8 -31q0 -9 4 -9q1 0 7 2
q87 48 162 148q5 8 14 22t15 21q4 7 10 7q11 0 21.5 -15t10.5 -26q0 -5 -1 -6q-22 -19 -44.5 -65.5t-32.5 -83.5q-3 -11 0 -11q1 -1 3 0q18 5 75.5 61t82.5 85q7 7 10 7q7 0 7 -7q0 -11 -80 -93.5t-92 -82.5zM259 351q2 4 5 7q16 14 58 39t54 33q15 6 18 6q5 -1 10 -8.5
t5 -13.5q-2 -12 -11 -17q-10 -8 -68 -29.5t-64 -21.5q-7 0 -7 5z" />
    <glyph glyph-name="acircumflex" unicode="&#xe2;" horiz-adv-x="314" 
d="M230 -19q-14 0 -31 16t-17 30q0 19 21 60.5t38 67.5q-13 -11 -48 -54.5t-68 -77.5t-51 -34q-23 0 -36 15t-13 38q0 73 88.5 161.5t153.5 88.5q28 0 44.5 -13t16.5 -37q0 -26 -9 -26q-1 0 -18 18t-37 18q-50 0 -111.5 -67.5t-86.5 -126.5q-8 -18 -8 -31q0 -9 4 -9q1 0 7 2
q87 48 162 148q5 8 14 22t15 21q4 7 10 7q11 0 21.5 -15t10.5 -26q0 -5 -1 -6q-22 -19 -44.5 -65.5t-32.5 -83.5q-3 -11 0 -11q1 -1 3 0q18 5 75.5 61t82.5 85q7 7 10 7q7 0 7 -7q0 -11 -80 -93.5t-92 -82.5zM389 379q7 -16 -6 -16q-12 0 -38 31.5t-30 47.5
q-58 -49 -105 -80q-11 -7 -14 2q-2 5 7 12q2 2 57 51.5t63 52.5q15 7 20 -4q15 -49 46 -97z" />
    <glyph glyph-name="atilde" unicode="&#xe3;" horiz-adv-x="314" 
d="M230 -19q-14 0 -31 16t-17 30q0 19 21 60.5t38 67.5q-13 -11 -48 -54.5t-68 -77.5t-51 -34q-23 0 -36 15t-13 38q0 73 88.5 161.5t153.5 88.5q28 0 44.5 -13t16.5 -37q0 -26 -9 -26q-1 0 -18 18t-37 18q-50 0 -111.5 -67.5t-86.5 -126.5q-8 -18 -8 -31q0 -9 4 -9q1 0 7 2
q87 48 162 148q5 8 14 22t15 21q4 7 10 7q11 0 21.5 -15t10.5 -26q0 -5 -1 -6q-22 -19 -44.5 -65.5t-32.5 -83.5q-3 -11 0 -11q1 -1 3 0q18 5 75.5 61t82.5 85q7 7 10 7q7 0 7 -7q0 -11 -80 -93.5t-92 -82.5zM415 430q8 11 15 3q2 -2 1 -6q-19 -52 -62 -58
q-17 -1 -48.5 13.5t-52.5 14.5q-34 0 -60 -33q-9 -11 -13 -6t-1 16q3 20 25 42.5t55 22.5q16 0 49.5 -15t49.5 -15q24 0 42 21z" />
    <glyph glyph-name="adieresis" unicode="&#xe4;" horiz-adv-x="314" 
d="M230 -19q-14 0 -31 16t-17 30q0 19 21 60.5t38 67.5q-13 -11 -48 -54.5t-68 -77.5t-51 -34q-23 0 -36 15t-13 38q0 73 88.5 161.5t153.5 88.5q28 0 44.5 -13t16.5 -37q0 -26 -9 -26q-1 0 -18 18t-37 18q-50 0 -111.5 -67.5t-86.5 -126.5q-8 -18 -8 -31q0 -9 4 -9q1 0 7 2
q87 48 162 148q5 8 14 22t15 21q4 7 10 7q11 0 21.5 -15t10.5 -26q0 -5 -1 -6q-22 -19 -44.5 -65.5t-32.5 -83.5q-3 -11 0 -11q1 -1 3 0q18 5 75.5 61t82.5 85q7 7 10 7q7 0 7 -7q0 -11 -80 -93.5t-92 -82.5zM292 443q0 -9 -15 -30t-23 -21q-35 0 -35 22q0 13 18.5 33
t32.5 20q9 0 16 -7.5t6 -16.5zM412 443q0 -9 -15 -30t-23 -21q-35 0 -35 22q0 13 18.5 33t32.5 20q9 0 16 -7.5t6 -16.5z" />
    <glyph glyph-name="aring" unicode="&#xe5;" horiz-adv-x="314" 
d="M230 -19q-14 0 -31 16t-17 30q0 19 21 60.5t38 67.5q-13 -11 -48 -54.5t-68 -77.5t-51 -34q-23 0 -36 15t-13 38q0 73 88.5 161.5t153.5 88.5q28 0 44.5 -13t16.5 -37q0 -26 -9 -26q-1 0 -18 18t-37 18q-50 0 -111.5 -67.5t-86.5 -126.5q-8 -18 -8 -31q0 -9 4 -9q1 0 7 2
q87 48 162 148q5 8 14 22t15 21q4 7 10 7q11 0 21.5 -15t10.5 -26q0 -5 -1 -6q-22 -19 -44.5 -65.5t-32.5 -83.5q-3 -11 0 -11q1 -1 3 0q18 5 75.5 61t82.5 85q7 7 10 7q7 0 7 -7q0 -11 -80 -93.5t-92 -82.5zM402 442q0 -36 -28 -65t-64 -29q-41 0 -45 40q-3 41 31 77
q28 29 63 29q19 0 31 -16t12 -36zM376 441q0 36 -22 36q-28 0 -45 -43q-17 -42 -2 -60q4 -6 12 -6q30 0 43.5 22.5t13.5 50.5z" />
    <glyph glyph-name="ae" unicode="&#xe6;" horiz-adv-x="466" 
d="M346 -1q-44 0 -56 32q-52 -50 -60 -50q-14 0 -31 16t-17 30q0 19 21 60.5t38 67.5q-13 -11 -48 -54.5t-68 -77.5t-51 -34q-23 0 -36 15t-13 38q0 73 88.5 161.5t153.5 88.5q28 0 44.5 -13t16.5 -37q0 -26 -9 -26q-1 0 -18 18t-37 18q-50 0 -111.5 -67.5t-86.5 -126.5
q-8 -18 -8 -31q0 -9 4 -9q1 0 7 2q87 48 162 148q5 8 14 22t15 21q4 7 10 7q11 0 21.5 -15t10.5 -26q0 -5 -1 -6q-22 -19 -44.5 -65.5t-32.5 -83.5q-3 -11 0 -11q1 -1 3 0q12 3 59 45v2q0 61 70 146.5t128 85.5q13 0 17 -15q1 -3 2.5 -9t3.5 -10q10 -18 10 -29
q0 -16 -17 -31q-23 -20 -76 -51t-77 -34q-28 -44 -28 -72q0 -23 19 -23q27 0 89.5 47.5t98.5 83.5l32 34q6 6 13 6q6 0 6 -5q0 -10 -52.5 -61t-74.5 -69q-62 -53 -104 -53zM489 250q-1 1 -4 1q-17 0 -44.5 -24.5t-44.5 -46.5t-32 -43q126 75 126 108q0 4 -1 5z" />
    <glyph glyph-name="ccedilla" unicode="&#xe7;" horiz-adv-x="249" 
d="M99 -24q-33 0 -52.5 22t-19.5 56q0 61 71.5 142t132.5 102q15 5 24 5q16 0 22 -14t10 -16q11 -6 11 -21q0 -20 -13 -42.5t-32 -22.5q-13 0 -13 11q0 6 14 23.5t14 27.5q0 9 -9 9q-42 0 -117.5 -91.5t-75.5 -136.5q0 -30 26 -30q28 0 68 23t67 48q46 41 107 102q3 3 7 3
q9 0 9 -8q0 -7 -53 -60.5t-67 -63.5q-27 -26 -64.5 -47t-66.5 -21zM104 -144q0 -32 -48.5 -46t-80.5 3q-6 4 -4 9q1 4 9 1q32 -9 60 -2t28 28q0 9 -20.5 36t-20.5 40q0 31 20.5 48t51.5 17q5 0 8.5 -3t-3.5 -7q-30 -5 -41.5 -20t-7.5 -32q1 -5 25 -29.5t24 -42.5z" />
    <glyph glyph-name="egrave" unicode="&#xe8;" horiz-adv-x="222" 
d="M102 -1q-60 0 -60 59q0 61 70 146.5t128 85.5q13 0 17 -15l3 -9t3 -10q10 -18 10 -29q0 -16 -17 -31q-23 -20 -76 -51t-77 -34q-28 -44 -28 -72q0 -23 19 -23q27 0 89.5 47.5t98.5 83.5l32 34q6 6 13 6q6 0 6 -5q0 -10 -52.5 -61t-74.5 -69q-62 -53 -104 -53zM245 250
q-1 1 -4 1q-17 0 -44.5 -24.5t-44.5 -46.5t-32 -43q126 75 126 108q0 4 -1 5zM305 365q0 -5 -7 -5q-6 0 -64 21.5t-68 29.5q-9 5 -11 17q0 6 5 13.5t10 8.5q3 0 18 -6q12 -8 54 -33t58 -39q3 -3 5 -7z" />
    <glyph glyph-name="eacute" unicode="&#xe9;" horiz-adv-x="222" 
d="M102 -1q-60 0 -60 59q0 61 70 146.5t128 85.5q13 0 17 -15l3 -9t3 -10q10 -18 10 -29q0 -16 -17 -31q-23 -20 -76 -51t-77 -34q-28 -44 -28 -72q0 -23 19 -23q27 0 89.5 47.5t98.5 83.5l32 34q6 6 13 6q6 0 6 -5q0 -10 -52.5 -61t-74.5 -69q-62 -53 -104 -53zM245 250
q-1 1 -4 1q-17 0 -44.5 -24.5t-44.5 -46.5t-32 -43q126 75 126 108q0 4 -1 5zM234 351q2 4 5 7q16 14 58 39t54 33q15 6 18 6q5 -1 10 -8.5t5 -13.5q-2 -12 -11 -17q-10 -8 -68 -29.5t-64 -21.5q-7 0 -7 5z" />
    <glyph glyph-name="ecircumflex" unicode="&#xea;" horiz-adv-x="222" 
d="M102 -1q-60 0 -60 59q0 61 70 146.5t128 85.5q13 0 17 -15l3 -9t3 -10q10 -18 10 -29q0 -16 -17 -31q-23 -20 -76 -51t-77 -34q-28 -44 -28 -72q0 -23 19 -23q27 0 89.5 47.5t98.5 83.5l32 34q6 6 13 6q6 0 6 -5q0 -10 -52.5 -61t-74.5 -69q-62 -53 -104 -53zM245 250
q-1 1 -4 1q-17 0 -44.5 -24.5t-44.5 -46.5t-32 -43q126 75 126 108q0 4 -1 5zM341 366q7 -16 -6 -16q-12 0 -38 31.5t-30 47.5q-58 -49 -105 -80q-11 -7 -14 2q-2 5 7 12q2 2 57 51.5t63 52.5q15 7 20 -4q15 -49 46 -97z" />
    <glyph glyph-name="edieresis" unicode="&#xeb;" horiz-adv-x="222" 
d="M102 -1q-60 0 -60 59q0 61 70 146.5t128 85.5q13 0 17 -15l3 -9t3 -10q10 -18 10 -29q0 -16 -17 -31q-23 -20 -76 -51t-77 -34q-28 -44 -28 -72q0 -23 19 -23q27 0 89.5 47.5t98.5 83.5l32 34q6 6 13 6q6 0 6 -5q0 -10 -52.5 -61t-74.5 -69q-62 -53 -104 -53zM245 250
q-1 1 -4 1q-17 0 -44.5 -24.5t-44.5 -46.5t-32 -43q126 75 126 108q0 4 -1 5zM226 420q0 -9 -15 -30t-23 -21q-35 0 -35 22q0 13 18.5 33t32.5 20q9 0 16 -7.5t6 -16.5zM346 420q0 -9 -15 -30t-23 -21q-35 0 -35 22q0 13 18.5 33t32.5 20q9 0 16 -7.5t6 -16.5z" />
    <glyph glyph-name="igrave" unicode="&#xec;" horiz-adv-x="209" 
d="M301 165q0 -6 -5 -14q-8 -10 -18 -20.5t-22.5 -22.5t-18.5 -19q-59 -59 -99 -104q-14 -16 -28 -16q-15 0 -29 13t-17 28q6 35 36 100.5t54 102.5q-7 -6 -81 -77q-7 -7 -11 -7q-7 0 -7.5 5t4.5 10q18 20 56.5 60.5t57.5 61.5q1 1 4 5t4 5t3.5 4t4 3.5t4 2.5t4.5 2.5t5 1
t7 0.5q15 0 32 -7t10 -19q-1 -2 -32 -47t-53.5 -79t-44 -74t-21.5 -55q0 -6 4 -6t14.5 7t20 15t21.5 18t13 11q69 58 110 107q10 10 13 10q5 0 5 -6zM311 382q0 -5 -7 -5q-6 0 -64 21.5t-68 29.5q-9 5 -11 17q0 6 5 13.5t10 8.5q3 0 18 -6q12 -8 54 -33t58 -39q3 -3 5 -7z
" />
    <glyph glyph-name="iacute" unicode="&#xed;" horiz-adv-x="209" 
d="M301 165q0 -6 -5 -14q-8 -10 -18 -20.5t-22.5 -22.5t-18.5 -19q-59 -59 -99 -104q-14 -16 -28 -16q-15 0 -29 13t-17 28q6 35 36 100.5t54 102.5q-7 -6 -81 -77q-7 -7 -11 -7q-7 0 -7.5 5t4.5 10q18 20 56.5 60.5t57.5 61.5q1 1 4 5t4 5t3.5 4t4 3.5t4 2.5t4.5 2.5t5 1
t7 0.5q15 0 32 -7t10 -19q-1 -2 -32 -47t-53.5 -79t-44 -74t-21.5 -55q0 -6 4 -6t14.5 7t20 15t21.5 18t13 11q69 58 110 107q10 10 13 10q5 0 5 -6zM211 382q2 4 5 7q16 14 58 39t54 33q15 6 18 6q5 -1 10 -8.5t5 -13.5q-2 -12 -11 -17q-10 -8 -68 -29.5t-64 -21.5
q-7 0 -7 5z" />
    <glyph glyph-name="icircumflex" unicode="&#xee;" horiz-adv-x="209" 
d="M301 165q0 -6 -5 -14q-8 -10 -18 -20.5t-22.5 -22.5t-18.5 -19q-59 -59 -99 -104q-14 -16 -28 -16q-15 0 -29 13t-17 28q6 35 36 100.5t54 102.5q-7 -6 -81 -77q-7 -7 -11 -7q-7 0 -7.5 5t4.5 10q18 20 56.5 60.5t57.5 61.5q1 1 4 5t4 5t3.5 4t4 3.5t4 2.5t4.5 2.5t5 1
t7 0.5q15 0 32 -7t10 -19q-1 -2 -32 -47t-53.5 -79t-44 -74t-21.5 -55q0 -6 4 -6t14.5 7t20 15t21.5 18t13 11q69 58 110 107q10 10 13 10q5 0 5 -6zM362 379q7 -16 -6 -16q-12 0 -38 31.5t-30 47.5q-58 -49 -105 -80q-11 -7 -14 2q-2 5 7 12q2 2 57 51.5t63 52.5
q15 7 20 -4q15 -49 46 -97z" />
    <glyph glyph-name="idieresis" unicode="&#xef;" horiz-adv-x="209" 
d="M301 165q0 -6 -5 -14q-8 -10 -18 -20.5t-22.5 -22.5t-18.5 -19q-59 -59 -99 -104q-14 -16 -28 -16q-15 0 -29 13t-17 28q6 35 36 100.5t54 102.5q-7 -6 -81 -77q-7 -7 -11 -7q-7 0 -7.5 5t4.5 10q18 20 56.5 60.5t57.5 61.5q1 1 4 5t4 5t3.5 4t4 3.5t4 2.5t4.5 2.5t5 1
t7 0.5q15 0 32 -7t10 -19q-1 -2 -32 -47t-53.5 -79t-44 -74t-21.5 -55q0 -6 4 -6t14.5 7t20 15t21.5 18t13 11q69 58 110 107q10 10 13 10q5 0 5 -6zM249 438q0 -9 -15 -30t-23 -21q-35 0 -35 22q0 13 18.5 33t32.5 20q9 0 16 -7.5t6 -16.5zM369 438q0 -9 -15 -30t-23 -21
q-35 0 -35 22q0 13 18.5 33t32.5 20q9 0 16 -7.5t6 -16.5z" />
    <glyph glyph-name="eth" unicode="&#xf0;" horiz-adv-x="362" 
d="M288 393q0 32 -3 55l-70 -26q-10 -3 -10 4q1 13 22 29q7 6 13 8l40 14q-17 70 -64 70q-3 0 -9.5 -0.5t-9.5 -0.5t-7 1t-5.5 4t-1.5 8q0 10 22 15t40 5q64 0 85 -83l23 9q11 5 27.5 8.5t18.5 -1.5q2 -9 -18 -22.5t-45 -22.5q3 -30 3 -51q0 -76 -19 -146q-9 -37 -25 -78
t-42 -89.5t-66 -80t-84 -31.5q-57 0 -57 50q0 28 21 72q16 37 59.5 95.5t74.5 61.5h9q24 0 35 -12q0 -3 0.5 -6.5t0.5 -5.5q0 -5 -2.5 -6t-7.5 0t-6 1q-34 0 -79.5 -81t-45.5 -114q0 -24 22 -24q29 0 60.5 37.5t49 73.5t26.5 64q25 80 25 196z" />
    <glyph glyph-name="ntilde" unicode="&#xf1;" horiz-adv-x="356" 
d="M132 102q32 36 112 103l71 58q26 23 29 25q6 4 37 4q13 0 22.5 -6.5t9.5 -18.5q0 -5 -1 -9t-3.5 -7.5t-4 -5.5t-6 -6t-6.5 -6q-146 -146 -146 -215q0 -9 1 -12q37 14 92.5 63t91.5 92q8 8 11 8q5 0 5 -7q0 -4 -3 -9q-30 -41 -85 -94t-93 -76q-7 -4 -16 -4q-18 0 -35 9.5
t-17 25.5q0 33 60 120t66 100q-26 -10 -65 -42q-73 -55 -138 -144q-2 -3 -14.5 -22t-19.5 -28q-5 -6 -15.5 -11.5t-19.5 -3.5t-9 14q0 18 29.5 69t71.5 113.5t45 68.5q-28 -28 -41 -36q-7 -6 -73 -75q-10 -10 -17 -10q-5 0 -5 5q0 7 34 43.5t74.5 77.5t46.5 49q22 29 49 29
q10 0 22.5 -9t12.5 -19q0 -3 -2 -5q-68 -57 -158 -196zM482 464q8 11 15 3q2 -2 1 -6q-19 -52 -62 -58q-17 -1 -48.5 13.5t-52.5 14.5q-34 0 -60 -33q-9 -11 -13 -6t-1 16q3 20 25 42.5t55 22.5q16 0 49.5 -15t49.5 -15q24 0 42 21z" />
    <glyph glyph-name="ograve" unicode="&#xf2;" horiz-adv-x="293" 
d="M390 165q0 -2 -3.5 -6t-3.5 -5q-87 -102 -183 -117q-58 -58 -105 -58q-27 0 -42 22t-15 50q0 46 34 105t73 103q12 14 31 -1q55 39 102 39q45 0 45 -46q0 -62 -69 -153q-15 -20 -28 -33q12 3 23.5 7.5t24 12.5t19 12t20.5 16l17.5 15t20 18.5t17.5 16.5q9 9 17 9
q5 0 5 -7zM281 249q0 18 -17 18q-35 0 -76 -31v-3q0 -9 -15 -28t-34.5 -40.5t-24.5 -29.5q-3 -38 17 -60.5t57 -15.5q36 44 64.5 96.5t28.5 93.5zM165 36q-39 4 -79 49q-4 -7 -7.5 -20.5t-5 -29.5t4 -27.5t18.5 -11.5q26 0 69 40zM359 359q0 -5 -7 -5q-6 0 -64 21.5
t-68 29.5q-9 5 -11 17q0 6 5 13.5t10 8.5q3 0 18 -6q12 -8 54 -33t58 -39q3 -3 5 -7z" />
    <glyph glyph-name="oacute" unicode="&#xf3;" horiz-adv-x="293" 
d="M390 165q0 -2 -3.5 -6t-3.5 -5q-87 -102 -183 -117q-58 -58 -105 -58q-27 0 -42 22t-15 50q0 46 34 105t73 103q12 14 31 -1q55 39 102 39q45 0 45 -46q0 -62 -69 -153q-15 -20 -28 -33q12 3 23.5 7.5t24 12.5t19 12t20.5 16l17.5 15t20 18.5t17.5 16.5q9 9 17 9
q5 0 5 -7zM281 249q0 18 -17 18q-35 0 -76 -31v-3q0 -9 -15 -28t-34.5 -40.5t-24.5 -29.5q-3 -38 17 -60.5t57 -15.5q36 44 64.5 96.5t28.5 93.5zM165 36q-39 4 -79 49q-4 -7 -7.5 -20.5t-5 -29.5t4 -27.5t18.5 -11.5q26 0 69 40zM261 376q2 4 5 7q16 14 58 39t54 33
q15 6 18 6q5 -1 10 -8.5t5 -13.5q-2 -12 -11 -17q-10 -8 -68 -29.5t-64 -21.5q-7 0 -7 5z" />
    <glyph glyph-name="ocircumflex" unicode="&#xf4;" horiz-adv-x="293" 
d="M390 165q0 -2 -3.5 -6t-3.5 -5q-87 -102 -183 -117q-58 -58 -105 -58q-27 0 -42 22t-15 50q0 46 34 105t73 103q12 14 31 -1q55 39 102 39q45 0 45 -46q0 -62 -69 -153q-15 -20 -28 -33q12 3 23.5 7.5t24 12.5t19 12t20.5 16l17.5 15t20 18.5t17.5 16.5q9 9 17 9
q5 0 5 -7zM281 249q0 18 -17 18q-35 0 -76 -31v-3q0 -9 -15 -28t-34.5 -40.5t-24.5 -29.5q-3 -38 17 -60.5t57 -15.5q36 44 64.5 96.5t28.5 93.5zM165 36q-39 4 -79 49q-4 -7 -7.5 -20.5t-5 -29.5t4 -27.5t18.5 -11.5q26 0 69 40zM400 379q7 -16 -6 -16q-12 0 -38 31.5
t-30 47.5q-58 -49 -105 -80q-11 -7 -14 2q-2 5 7 12q2 2 57 51.5t63 52.5q15 7 20 -4q15 -49 46 -97z" />
    <glyph glyph-name="otilde" unicode="&#xf5;" horiz-adv-x="293" 
d="M390 165q0 -2 -3.5 -6t-3.5 -5q-87 -102 -183 -117q-58 -58 -105 -58q-27 0 -42 22t-15 50q0 46 34 105t73 103q12 14 31 -1q55 39 102 39q45 0 45 -46q0 -62 -69 -153q-15 -20 -28 -33q12 3 23.5 7.5t24 12.5t19 12t20.5 16l17.5 15t20 18.5t17.5 16.5q9 9 17 9
q5 0 5 -7zM281 249q0 18 -17 18q-35 0 -76 -31v-3q0 -9 -15 -28t-34.5 -40.5t-24.5 -29.5q-3 -38 17 -60.5t57 -15.5q36 44 64.5 96.5t28.5 93.5zM165 36q-39 4 -79 49q-4 -7 -7.5 -20.5t-5 -29.5t4 -27.5t18.5 -11.5q26 0 69 40zM411 423q8 11 15 3q2 -2 1 -6
q-19 -52 -62 -58q-17 -1 -48.5 13.5t-52.5 14.5q-34 0 -60 -33q-9 -11 -13 -6t-1 16q3 20 25 42.5t55 22.5q16 0 49.5 -15t49.5 -15q24 0 42 21z" />
    <glyph glyph-name="odieresis" unicode="&#xf6;" horiz-adv-x="293" 
d="M390 165q0 -2 -3.5 -6t-3.5 -5q-87 -102 -183 -117q-58 -58 -105 -58q-27 0 -42 22t-15 50q0 46 34 105t73 103q12 14 31 -1q55 39 102 39q45 0 45 -46q0 -62 -69 -153q-15 -20 -28 -33q12 3 23.5 7.5t24 12.5t19 12t20.5 16l17.5 15t20 18.5t17.5 16.5q9 9 17 9
q5 0 5 -7zM281 249q0 18 -17 18q-35 0 -76 -31v-3q0 -9 -15 -28t-34.5 -40.5t-24.5 -29.5q-3 -38 17 -60.5t57 -15.5q36 44 64.5 96.5t28.5 93.5zM165 36q-39 4 -79 49q-4 -7 -7.5 -20.5t-5 -29.5t4 -27.5t18.5 -11.5q26 0 69 40zM290 425q0 -9 -15 -30t-23 -21
q-35 0 -35 22q0 13 18.5 33t32.5 20q9 0 16 -7.5t6 -16.5zM410 425q0 -9 -15 -30t-23 -21q-35 0 -35 22q0 13 18.5 33t32.5 20q9 0 16 -7.5t6 -16.5z" />
    <glyph glyph-name="divide" unicode="&#xf7;" horiz-adv-x="384" 
d="M273 147h-165q-20 0 -7 15q21 20 49 22h155q62 0 62 -12q0 -11 -30 -18t-64 -7zM297 280q0 -9 -15 -30t-23 -21q-35 0 -35 22q0 13 18.5 33t32.5 20q9 0 16 -7.5t6 -16.5zM207 76q0 -9 -15 -30t-23 -21q-35 0 -35 22q0 13 18.5 33t32.5 20q9 0 16 -7.5t6 -16.5z" />
    <glyph glyph-name="oslash" unicode="&#xf8;" horiz-adv-x="293" 
d="M-34 -129q43 44 96 120q-24 23 -24 60q0 46 34 105t73 103q12 14 31 -1q50 35 97 39q27 35 52 61q8 11 27 7q14 -2 5 -11l-50 -66q16 -10 16 -37q0 -62 -69 -153q-15 -20 -28 -33q12 3 23.5 7.5t24 12.5t19 12t20.5 16l17.5 15t20 18.5t17.5 16.5q9 9 17 9q5 0 5 -7
q0 -2 -3.5 -6t-3.5 -5q-87 -102 -183 -117q-58 -58 -105 -58q-10 0 -22 5l-87 -114q-8 -8 -19 -4q-5 1 -1 5zM96 -4q19 0 50.5 21t45.5 42q37 44 66 98t29 97q0 2 -1 4v3l-202 -262q4 -3 12 -3zM86 85q-6 -11 -10 -33t0 -42q17 25 81 120.5t96 139.5q-28 -8 -65 -34
q-4 -5 -18 -20t-25.5 -28.5t-28 -41.5t-30.5 -61z" />
    <glyph glyph-name="ugrave" unicode="&#xf9;" 
d="M275 -17q-22 0 -43 17.5t-21 38.5q0 42 33 96q-14 -15 -39.5 -41.5t-46 -49t-38.5 -42.5q-10 -12 -24 -12q-18 0 -35 19.5t-17 38.5q0 6 1 8q14 40 36 73q11 18 49 72q10 11 18 26q4 8 2 24q29 38 60 38q8 0 24 -5.5t16 -10.5q0 -4 -4 -8q-2 -2 -10 -9t-12 -12
q-44 -44 -84 -100q-1 -2 -10 -14t-14 -20l-12.5 -20t-11 -21.5t-3.5 -15.5q0 -10 9 -10q23 0 85 60.5t97 102.5q26 31 41 56q21 31 45 31q33 0 33 -14q0 -7 -8 -15q-82 -88 -112 -153q-21 -38 -21 -81q0 -28 31 -11q10 6 31.5 26.5t38.5 39.5t41.5 47t28.5 32q5 5 8 5
q7 0 7 -8q0 -3 -6 -11q-25 -28 -67.5 -79.5t-55.5 -66.5q-19 -21 -40 -21zM372 362q0 -5 -7 -5q-6 0 -64 21.5t-68 29.5q-9 5 -11 17q0 6 5 13.5t10 8.5q3 0 18 -6q12 -8 54 -33t58 -39q3 -3 5 -7z" />
    <glyph glyph-name="uacute" unicode="&#xfa;" 
d="M275 -17q-22 0 -43 17.5t-21 38.5q0 42 33 96q-14 -15 -39.5 -41.5t-46 -49t-38.5 -42.5q-10 -12 -24 -12q-18 0 -35 19.5t-17 38.5q0 6 1 8q14 40 36 73q11 18 49 72q10 11 18 26q4 8 2 24q29 38 60 38q8 0 24 -5.5t16 -10.5q0 -4 -4 -8q-2 -2 -10 -9t-12 -12
q-44 -44 -84 -100q-1 -2 -10 -14t-14 -20l-12.5 -20t-11 -21.5t-3.5 -15.5q0 -10 9 -10q23 0 85 60.5t97 102.5q26 31 41 56q21 31 45 31q33 0 33 -14q0 -7 -8 -15q-82 -88 -112 -153q-21 -38 -21 -81q0 -28 31 -11q10 6 31.5 26.5t38.5 39.5t41.5 47t28.5 32q5 5 8 5
q7 0 7 -8q0 -3 -6 -11q-25 -28 -67.5 -79.5t-55.5 -66.5q-19 -21 -40 -21zM313 373q2 4 5 7q16 14 58 39t54 33q15 6 18 6q5 -1 10 -8.5t5 -13.5q-2 -12 -11 -17q-10 -8 -68 -29.5t-64 -21.5q-7 0 -7 5z" />
    <glyph glyph-name="ucircumflex" unicode="&#xfb;" 
d="M275 -17q-22 0 -43 17.5t-21 38.5q0 42 33 96q-14 -15 -39.5 -41.5t-46 -49t-38.5 -42.5q-10 -12 -24 -12q-18 0 -35 19.5t-17 38.5q0 6 1 8q14 40 36 73q11 18 49 72q10 11 18 26q4 8 2 24q29 38 60 38q8 0 24 -5.5t16 -10.5q0 -4 -4 -8q-2 -2 -10 -9t-12 -12
q-44 -44 -84 -100q-1 -2 -10 -14t-14 -20l-12.5 -20t-11 -21.5t-3.5 -15.5q0 -10 9 -10q23 0 85 60.5t97 102.5q26 31 41 56q21 31 45 31q33 0 33 -14q0 -7 -8 -15q-82 -88 -112 -153q-21 -38 -21 -81q0 -28 31 -11q10 6 31.5 26.5t38.5 39.5t41.5 47t28.5 32q5 5 8 5
q7 0 7 -8q0 -3 -6 -11q-25 -28 -67.5 -79.5t-55.5 -66.5q-19 -21 -40 -21zM438 372q7 -16 -6 -16q-12 0 -38 31.5t-30 47.5q-58 -49 -105 -80q-11 -7 -14 2q-2 5 7 12q2 2 57 51.5t63 52.5q15 7 20 -4q15 -49 46 -97z" />
    <glyph glyph-name="udieresis" unicode="&#xfc;" 
d="M275 -17q-22 0 -43 17.5t-21 38.5q0 42 33 96q-14 -15 -39.5 -41.5t-46 -49t-38.5 -42.5q-10 -12 -24 -12q-18 0 -35 19.5t-17 38.5q0 6 1 8q14 40 36 73q11 18 49 72q10 11 18 26q4 8 2 24q29 38 60 38q8 0 24 -5.5t16 -10.5q0 -4 -4 -8q-2 -2 -10 -9t-12 -12
q-44 -44 -84 -100q-1 -2 -10 -14t-14 -20l-12.5 -20t-11 -21.5t-3.5 -15.5q0 -10 9 -10q23 0 85 60.5t97 102.5q26 31 41 56q21 31 45 31q33 0 33 -14q0 -7 -8 -15q-82 -88 -112 -153q-21 -38 -21 -81q0 -28 31 -11q10 6 31.5 26.5t38.5 39.5t41.5 47t28.5 32q5 5 8 5
q7 0 7 -8q0 -3 -6 -11q-25 -28 -67.5 -79.5t-55.5 -66.5q-19 -21 -40 -21zM336 422q0 -9 -15 -30t-23 -21q-35 0 -35 22q0 13 18.5 33t32.5 20q9 0 16 -7.5t6 -16.5zM456 422q0 -9 -15 -30t-23 -21q-35 0 -35 22q0 13 18.5 33t32.5 20q9 0 16 -7.5t6 -16.5z" />
    <glyph glyph-name="yacute" unicode="&#xfd;" 
d="M298 7q-46 -123 -121 -213.5t-187 -155.5q-52 -31 -90 -31q-46 0 -46 46q0 6 2 20q7 33 32 67t65 65.5t67 50t68 43.5q47 31 157 96q20 49 20 127v8q-28 -42 -91 -91.5t-104 -49.5q-27 0 -27 33q0 41 24.5 93.5t49 88t24.5 36.5t-2.5 1h-5.5t-4.5 1t0.5 5q36 43 75 43
q8 0 17 -5.5t9 -13.5q0 -5 -6 -11q-31 -31 -42 -44q-26 -30 -62 -91t-36 -96q0 -9 5 -13q33 -2 97.5 64.5t88.5 109.5q11 20 33 20q10 0 15 -3.5t5.5 -8t0.5 -14.5q0 -71 -21 -135q64 55 122 116q3 8 10 8q6 0 6 -6q0 -9 -6 -16q-7 -8 -21 -23t-19 -21q-57 -62 -102 -100z
M239 -35q0 1 -2 3q-1 0 -2 1q-15 -10 -58 -40t-68 -46q-224 -155 -224 -222q0 -14 11.5 -21.5t26.5 -7.5q33 0 80.5 35.5t78 68.5t59.5 69q42 57 63 92q22 36 35 68zM271 336q2 4 5 7q16 14 58 39t54 33q15 6 18 6q5 -1 10 -8.5t5 -13.5q-2 -12 -11 -17q-10 -8 -68 -29.5
t-64 -21.5q-7 0 -7 5z" />
    <glyph glyph-name="thorn" unicode="&#xfe;" horiz-adv-x="294" 
d="M-34 -258q0 -14 -6 -14q-11 0 -19 19t-8 31q-4 45 52 169l15 31q67 143 179 317q-20 27 -20 34q0 19 20 14q5 0 24 -10q46 68 74 106q4 4 10.5 14.5t11.5 18.5t13.5 16.5t15.5 9t17 -3.5q23 -13 24 -30q0 -4 -13.5 -22.5t-49 -65.5t-58.5 -78l9 -8q32 -32 44 -68
q14 -45 -2.5 -90.5t-52 -78.5t-81.5 -53t-87 -19q-18 0 -32 10l-16 -32q-20 -48 -41 -93q-27 -75 -23 -124zM132 4q57 8 97 65t30 122q-6 41 -39 68q-95 -131 -155 -235q5 -1 14 -10q16 -16 53 -10z" />
    <glyph glyph-name="ydieresis" unicode="&#xff;" 
d="M298 7q-46 -123 -121 -213.5t-187 -155.5q-52 -31 -90 -31q-46 0 -46 46q0 6 2 20q7 33 32 67t65 65.5t67 50t68 43.5q47 31 157 96q20 49 20 127v8q-28 -42 -91 -91.5t-104 -49.5q-27 0 -27 33q0 41 24.5 93.5t49 88t24.5 36.5t-2.5 1h-5.5t-4.5 1t0.5 5q36 43 75 43
q8 0 17 -5.5t9 -13.5q0 -5 -6 -11q-31 -31 -42 -44q-26 -30 -62 -91t-36 -96q0 -9 5 -13q33 -2 97.5 64.5t88.5 109.5q11 20 33 20q10 0 15 -3.5t5.5 -8t0.5 -14.5q0 -71 -21 -135q64 55 122 116q3 8 10 8q6 0 6 -6q0 -9 -6 -16q-7 -8 -21 -23t-19 -21q-57 -62 -102 -100z
M239 -35q0 1 -2 3q-1 0 -2 1q-15 -10 -58 -40t-68 -46q-224 -155 -224 -222q0 -14 11.5 -21.5t26.5 -7.5q33 0 80.5 35.5t78 68.5t59.5 69q42 57 63 92q22 36 35 68zM258 417q0 -9 -15 -30t-23 -21q-35 0 -35 22q0 13 18.5 33t32.5 20q9 0 16 -7.5t6 -16.5zM378 417
q0 -9 -15 -30t-23 -21q-35 0 -35 22q0 13 18.5 33t32.5 20q9 0 16 -7.5t6 -16.5z" />
    <glyph glyph-name="Amacron" unicode="&#x100;" horiz-adv-x="469" 
d="M432 98q-32 -77 -40 -115t2 -55q1 -2 -4 -5t-8 -1q-17 7 -21.5 26.5t5.5 57t17 59t25 68.5q31 76 76.5 219t55.5 190q-108 -44 -189.5 -110.5t-173.5 -172.5h141q87 0 87 -14q0 -16 -85.5 -23.5t-150.5 -7.5q-30 0 -71 -54.5t-71.5 -119t-41.5 -107.5q0 -8 -5 -8
q-6 0 -12.5 10t-6.5 16q0 48 42 129t83 132q-18 0 -51.5 -0.5t-51.5 -0.5q-15 0 -21 15q5 13 36.5 18t70.5 6t49 4q64 82 214.5 201.5t222.5 119.5q17 0 38.5 -7t21.5 -21q0 -12 -13.5 -50t-37 -94.5t-45 -105.5t-49.5 -112.5t-38 -86.5zM647 660h-129q-15 0 -14 7
q2 11 27 19q9 3 18 3h112q35 0 35 -12q0 -17 -49 -17z" />
    <glyph glyph-name="amacron" unicode="&#x101;" horiz-adv-x="314" 
d="M230 -19q-14 0 -31 16t-17 30q0 19 21 60.5t38 67.5q-13 -11 -48 -54.5t-68 -77.5t-51 -34q-23 0 -36 15t-13 38q0 73 88.5 161.5t153.5 88.5q28 0 44.5 -13t16.5 -37q0 -26 -9 -26q-1 0 -18 18t-37 18q-50 0 -111.5 -67.5t-86.5 -126.5q-8 -18 -8 -31q0 -9 4 -9q1 0 7 2
q87 48 162 148q5 8 14 22t15 21q4 7 10 7q11 0 21.5 -15t10.5 -26q0 -5 -1 -6q-22 -19 -44.5 -65.5t-32.5 -83.5q-3 -11 0 -11q1 -1 3 0q18 5 75.5 61t82.5 85q7 7 10 7q7 0 7 -7q0 -11 -80 -93.5t-92 -82.5zM357 362h-129q-15 0 -14 7q2 11 27 19q9 3 18 3h112q35 0 35 -12
q0 -17 -49 -17z" />
    <glyph glyph-name="Abreve" unicode="&#x102;" horiz-adv-x="469" 
d="M432 98q-32 -77 -40 -115t2 -55q1 -2 -4 -5t-8 -1q-17 7 -21.5 26.5t5.5 57t17 59t25 68.5q31 76 76.5 219t55.5 190q-108 -44 -189.5 -110.5t-173.5 -172.5h141q87 0 87 -14q0 -16 -85.5 -23.5t-150.5 -7.5q-30 0 -71 -54.5t-71.5 -119t-41.5 -107.5q0 -8 -5 -8
q-6 0 -12.5 10t-6.5 16q0 48 42 129t83 132q-18 0 -51.5 -0.5t-51.5 -0.5q-15 0 -21 15q5 13 36.5 18t70.5 6t49 4q64 82 214.5 201.5t222.5 119.5q17 0 38.5 -7t21.5 -21q0 -12 -13.5 -50t-37 -94.5t-45 -105.5t-49.5 -112.5t-38 -86.5zM607 645q-66 0 -86 59q-4 7 -1 20.5
t16 13.5q4 0 9.5 -15t21 -30.5t42.5 -15.5q29 0 52 16.5t30 42.5q3 6 9 6t7 -9q-6 -35 -35 -61.5t-65 -26.5z" />
    <glyph glyph-name="abreve" unicode="&#x103;" horiz-adv-x="314" 
d="M230 -19q-14 0 -31 16t-17 30q0 19 21 60.5t38 67.5q-13 -11 -48 -54.5t-68 -77.5t-51 -34q-23 0 -36 15t-13 38q0 73 88.5 161.5t153.5 88.5q28 0 44.5 -13t16.5 -37q0 -26 -9 -26q-1 0 -18 18t-37 18q-50 0 -111.5 -67.5t-86.5 -126.5q-8 -18 -8 -31q0 -9 4 -9q1 0 7 2
q87 48 162 148q5 8 14 22t15 21q4 7 10 7q11 0 21.5 -15t10.5 -26q0 -5 -1 -6q-22 -19 -44.5 -65.5t-32.5 -83.5q-3 -11 0 -11q1 -1 3 0q18 5 75.5 61t82.5 85q7 7 10 7q7 0 7 -7q0 -11 -80 -93.5t-92 -82.5zM309 361q-66 0 -86 59q-4 7 -1 20.5t16 13.5q4 0 9.5 -15
t21 -30.5t42.5 -15.5q29 0 52 16.5t30 42.5q3 6 9 6t7 -9q-6 -35 -35 -61.5t-65 -26.5z" />
    <glyph glyph-name="Aogonek" unicode="&#x104;" horiz-adv-x="469" 
d="M432 98q-32 -77 -40 -115t2 -55q1 -2 -4 -5t-8 -1q-17 7 -21.5 26.5t5.5 57t17 59t25 68.5q31 76 76.5 219t55.5 190q-108 -44 -189.5 -110.5t-173.5 -172.5h141q87 0 87 -14q0 -16 -85.5 -23.5t-150.5 -7.5q-30 0 -71 -54.5t-71.5 -119t-41.5 -107.5q0 -8 -5 -8
q-6 0 -12.5 10t-6.5 16q0 48 42 129t83 132q-18 0 -51.5 -0.5t-51.5 -0.5q-15 0 -21 15q5 13 36.5 18t70.5 6t49 4q64 82 214.5 201.5t222.5 119.5q17 0 38.5 -7t21.5 -21q0 -12 -13.5 -50t-37 -94.5t-45 -105.5t-49.5 -112.5t-38 -86.5zM484 -186q0 -14 -44 -28t-64 -14
q-23 0 -39 10t-16 32q0 25 21 71.5t42 46.5l3 -3q-34 -48 -34 -88q0 -20 12.5 -30.5t32.5 -10.5q17 0 45.5 11.5t29.5 11.5q11 0 11 -9z" />
    <glyph glyph-name="aogonek" unicode="&#x105;" horiz-adv-x="314" 
d="M230 -19q-14 0 -31 16t-17 30q0 19 21 60.5t38 67.5q-13 -11 -48 -54.5t-68 -77.5t-51 -34q-23 0 -36 15t-13 38q0 73 88.5 161.5t153.5 88.5q28 0 44.5 -13t16.5 -37q0 -26 -9 -26q-1 0 -18 18t-37 18q-50 0 -111.5 -67.5t-86.5 -126.5q-8 -18 -8 -31q0 -9 4 -9q1 0 7 2
q87 48 162 148q5 8 14 22t15 21q4 7 10 7q11 0 21.5 -15t10.5 -26q0 -5 -1 -6q-22 -19 -44.5 -65.5t-32.5 -83.5q-3 -11 0 -11q1 -1 3 0q18 5 75.5 61t82.5 85q7 7 10 7q7 0 7 -7q0 -11 -80 -93.5t-92 -82.5zM328 -119q0 -14 -44 -28t-64 -14q-23 0 -39 10t-16 32
q0 25 21 71.5t42 46.5l3 -3q-34 -48 -34 -88q0 -20 12.5 -30.5t32.5 -10.5q17 0 45.5 11.5t29.5 11.5q11 0 11 -9z" />
    <glyph glyph-name="Cacute" unicode="&#x106;" horiz-adv-x="554" 
d="M226 -32q-74 0 -124.5 38.5t-56.5 110.5q-8 88 67 201.5t185 193t197 77.5q35 -1 60.5 -22.5t28.5 -55.5t-18.5 -57t-54.5 -22q-17 0 -18 8q3 7 13 15.5t18.5 16t15 23.5t4.5 37q-4 33 -42 33q-61 1 -135.5 -50.5t-134 -125.5t-98 -159t-32.5 -145q5 -43 37.5 -65.5
t76.5 -23.5q54 -1 120.5 21t130 59t98 60t65.5 46q5 4 5 -5t-9 -18q-70 -72 -188.5 -132.5t-210.5 -58.5zM502 669q2 4 5 7q16 14 58 39t54 33q15 6 18 6q5 -1 10 -8.5t5 -13.5q-2 -12 -11 -17q-10 -8 -68 -29.5t-64 -21.5q-7 0 -7 5z" />
    <glyph glyph-name="cacute" unicode="&#x107;" horiz-adv-x="249" 
d="M99 -24q-33 0 -52.5 22t-19.5 56q0 61 71.5 142t132.5 102q15 5 24 5q16 0 22 -14t10 -16q11 -6 11 -21q0 -20 -13 -42.5t-32 -22.5q-13 0 -13 11q0 6 14 23.5t14 27.5q0 9 -9 9q-42 0 -117.5 -91.5t-75.5 -136.5q0 -30 26 -30q28 0 68 23t67 48q46 41 107 102q3 3 7 3
q9 0 9 -8q0 -7 -53 -60.5t-67 -63.5q-27 -26 -64.5 -47t-66.5 -21zM256 378q2 4 5 7q16 14 58 39t54 33q15 6 18 6q5 -1 10 -8.5t5 -13.5q-2 -12 -11 -17q-10 -8 -68 -29.5t-64 -21.5q-7 0 -7 5z" />
    <glyph glyph-name="Ccaron" unicode="&#x10c;" horiz-adv-x="554" 
d="M226 -32q-74 0 -124.5 38.5t-56.5 110.5q-8 88 67 201.5t185 193t197 77.5q35 -1 60.5 -22.5t28.5 -55.5t-18.5 -57t-54.5 -22q-17 0 -18 8q3 7 13 15.5t18.5 16t15 23.5t4.5 37q-4 33 -42 33q-61 1 -135.5 -50.5t-134 -125.5t-98 -159t-32.5 -145q5 -43 37.5 -65.5
t76.5 -23.5q54 -1 120.5 21t130 59t98 60t65.5 46q5 4 5 -5t-9 -18q-70 -72 -188.5 -132.5t-210.5 -58.5zM489 749q-7 16 6 16t38.5 -31.5t29.5 -47.5q98 76 105 80q11 7 14 -2q2 -5 -7 -12q-3 -2 -58 -52t-62 -52q-15 -7 -20 4q-15 49 -46 97z" />
    <glyph glyph-name="ccaron" unicode="&#x10d;" horiz-adv-x="249" 
d="M99 -24q-33 0 -52.5 22t-19.5 56q0 61 71.5 142t132.5 102q15 5 24 5q16 0 22 -14t10 -16q11 -6 11 -21q0 -20 -13 -42.5t-32 -22.5q-13 0 -13 11q0 6 14 23.5t14 27.5q0 9 -9 9q-42 0 -117.5 -91.5t-75.5 -136.5q0 -30 26 -30q28 0 68 23t67 48q46 41 107 102q3 3 7 3
q9 0 9 -8q0 -7 -53 -60.5t-67 -63.5q-27 -26 -64.5 -47t-66.5 -21zM225 463q-7 16 6 16t38.5 -31.5t29.5 -47.5q98 76 105 80q11 7 14 -2q2 -5 -7 -12q-3 -2 -58 -52t-62 -52q-15 -7 -20 4q-15 49 -46 97z" />
    <glyph glyph-name="Dcaron" unicode="&#x10e;" horiz-adv-x="587" 
d="M671 367q7 -61 -20 -119t-76.5 -102t-111 -78t-126 -51.5t-120.5 -17.5q-13 0 -41.5 8t-28.5 16q0 11 50 11q45 0 104.5 19.5t119.5 55t110.5 78.5t80 95.5t24.5 100.5q-4 36 -19.5 64t-34.5 46t-50.5 30.5t-56.5 19t-63 10t-60.5 4t-58.5 0.5q-104 0 -149 -15
q-29 -9 -41 -9q-11 0 -11 4q-4 22 37 36.5t79 18.5t61 4q375 0 402 -229zM87 32q2 -14 12 -14q9 0 19 6.5t11 6.5q-1 0 2 -3q0 -1 1 -2q2 -17 -10.5 -32.5t-29.5 -15.5q-30 0 -39 55q-4 41 50.5 164.5t125.5 232t106 108.5q11 0 28 -10t19 -21q1 -4 -46.5 -61t-105.5 -128
t-103 -154t-40 -132zM461 737q-7 16 6 16t38.5 -31.5t29.5 -47.5q98 76 105 80q11 7 14 -2q2 -5 -7 -12q-3 -2 -58 -52t-62 -52q-15 -7 -20 4q-15 49 -46 97z" />
    <glyph glyph-name="dcaron" unicode="&#x10f;" horiz-adv-x="755" 
d="M551 456q-7 -9 -53.5 -50.5t-54.5 -51.5q-188 -200 -228 -323q0 -1 -0.5 -4t-0.5 -5.5v-5.5t1.5 -4.5t3.5 -0.5q18 5 75.5 61t82.5 85q7 7 10 7q7 0 7 -7q0 -11 -80 -93.5t-92 -82.5q-14 0 -32 15.5t-18 29.5q0 9 5 23.5t15 33t17 30t19 31.5t13 21q-4 -5 -24.5 -30.5
t-38.5 -46.5t-40.5 -45t-40.5 -38t-29 -14l-2 1h-2q-36 13 -36 54q0 60 79 160t135 100q21 0 36.5 -12.5t18.5 -40.5q64 81 108 129q21 25 58 62.5t58 46.5q9 3 26 -9.5t4 -25.5zM272 233q-12 23 -33 23q-6 0 -13 -2t-13 -4.5t-13.5 -8t-13.5 -9.5t-13.5 -11.5t-12 -11.5
t-12 -12.5t-10.5 -11.5t-10 -11t-8 -9q-20 -24 -35.5 -58.5t-15.5 -61.5q0 -19 9 -19q4 0 9 5q89 78 185 202zM676 505q-11 -46 -54.5 -90t-73.5 -53q-1 0 -1 5t37.5 44.5t39.5 57.5q0 3 -2.5 8.5t-1.5 10.5q0 14 17.5 31.5t27.5 17.5q17 0 11 -32z" />
    <glyph glyph-name="Dcroat" unicode="&#x110;" horiz-adv-x="587" 
d="M671 367q7 -61 -20 -119t-76.5 -102t-111 -78t-126 -51.5t-120.5 -17.5q-13 0 -41.5 8t-28.5 16q0 11 50 11q45 0 104.5 19.5t119.5 55t110.5 78.5t80 95.5t24.5 100.5q-4 36 -19.5 64t-34.5 46t-50.5 30.5t-56.5 19t-63 10t-60.5 4t-58.5 0.5q-104 0 -149 -15
q-29 -9 -41 -9q-11 0 -11 4q-4 22 37 36.5t79 18.5t61 4q375 0 402 -229zM193 176h-60q-51 -93 -46 -144q2 -14 12 -14q9 0 19 6.5t11 6.5q-1 0 2 -3q0 -1 1 -2q2 -17 -10.5 -32.5t-29.5 -15.5q-30 0 -39 55q-4 36 41 143h-66q-20 0 -7 15q21 20 49 22h41q55 121 122.5 223
t101.5 102q11 0 28 -10t19 -21q0 -4 -36.5 -47.5t-94 -115.5t-95.5 -131h69q62 0 62 -12q0 -11 -30 -18t-64 -7z" />
    <glyph glyph-name="dcroat" unicode="&#x111;" horiz-adv-x="306" 
d="M551 456q-7 -9 -53.5 -50.5t-54.5 -51.5q-188 -200 -228 -323q0 -1 -0.5 -4t-0.5 -5.5v-5.5t1.5 -4.5t3.5 -0.5q18 5 75.5 61t82.5 85q7 7 10 7q7 0 7 -7q0 -11 -80 -93.5t-92 -82.5q-14 0 -32 15.5t-18 29.5q0 9 5 23.5t15 33t17 30t19 31.5t13 21q-4 -5 -24.5 -30.5
t-38.5 -46.5t-40.5 -45t-40.5 -38t-29 -14l-2 1h-2q-36 13 -36 54q0 60 79 160t135 100q21 0 36.5 -12.5t18.5 -40.5q64 81 108 129q21 25 58 62.5t58 46.5q9 3 26 -9.5t4 -25.5zM272 233q-12 23 -33 23q-6 0 -13 -2t-13 -4.5t-13.5 -8t-13.5 -9.5t-13.5 -11.5t-12 -11.5
t-12 -12.5t-10.5 -11.5t-10 -11t-8 -9q-20 -24 -35.5 -58.5t-15.5 -61.5q0 -19 9 -19q4 0 9 5q89 78 185 202zM490 360h-165q-20 0 -7 15q21 20 49 22h155q62 0 62 -12q0 -11 -30 -18t-64 -7z" />
    <glyph glyph-name="Emacron" unicode="&#x112;" horiz-adv-x="589" 
d="M677 541q-19 8 -79 8q-44 0 -113.5 -7t-88.5 -19q-17 -10 -64.5 -67.5t-75.5 -95.5q42 -2 119.5 3.5t110.5 5.5q83 0 110 -3q34 -5 -22 -22q-1 -1 -3 -1q-30 -5 -162 -10.5t-194 -32.5q-1 -2 -11 -19.5t-17 -32.5t-18.5 -39.5t-17.5 -44.5t-11.5 -44t-2 -42t12.5 -33
t29.5 -23.5t51.5 -8.5q83 0 207.5 45t211.5 95q10 5 11.5 0.5t-4.5 -11.5q-37 -54 -191 -111t-238 -57q-126 0 -141 111q-2 21 1 43t13 48.5t17 42t22.5 46.5l18.5 37q-58 0 -61 28q-1 5 1.5 7.5t7 3t9 0t10 -1t7.5 -0.5q34 0 62.5 26t62.5 79t39 60q-2 4 -11.5 8t-11.5 17
q-8 55 262 55q90 0 144 -9q30 -9 28 -31q-1 -16 -13 -17q-10 -1 -18 14zM597 678h-129q-15 0 -14 7q2 11 27 19q9 3 18 3h112q35 0 35 -12q0 -17 -49 -17z" />
    <glyph glyph-name="emacron" unicode="&#x113;" horiz-adv-x="222" 
d="M102 -1q-60 0 -60 59q0 61 70 146.5t128 85.5q13 0 17 -15l3 -9t3 -10q10 -18 10 -29q0 -16 -17 -31q-23 -20 -76 -51t-77 -34q-28 -44 -28 -72q0 -23 19 -23q27 0 89.5 47.5t98.5 83.5l32 34q6 6 13 6q6 0 6 -5q0 -10 -52.5 -61t-74.5 -69q-62 -53 -104 -53zM245 250
q-1 1 -4 1q-17 0 -44.5 -24.5t-44.5 -46.5t-32 -43q126 75 126 108q0 4 -1 5zM294 370h-129q-15 0 -14 7q2 11 27 19q9 3 18 3h112q35 0 35 -12q0 -17 -49 -17z" />
    <glyph glyph-name="Edotaccent" unicode="&#x116;" horiz-adv-x="589" 
d="M677 541q-19 8 -79 8q-44 0 -113.5 -7t-88.5 -19q-17 -10 -64.5 -67.5t-75.5 -95.5q42 -2 119.5 3.5t110.5 5.5q83 0 110 -3q34 -5 -22 -22q-1 -1 -3 -1q-30 -5 -162 -10.5t-194 -32.5q-1 -2 -11 -19.5t-17 -32.5t-18.5 -39.5t-17.5 -44.5t-11.5 -44t-2 -42t12.5 -33
t29.5 -23.5t51.5 -8.5q83 0 207.5 45t211.5 95q10 5 11.5 0.5t-4.5 -11.5q-37 -54 -191 -111t-238 -57q-126 0 -141 111q-2 21 1 43t13 48.5t17 42t22.5 46.5l18.5 37q-58 0 -61 28q-1 5 1.5 7.5t7 3t9 0t10 -1t7.5 -0.5q34 0 62.5 26t62.5 79t39 60q-2 4 -11.5 8t-11.5 17
q-8 55 262 55q90 0 144 -9q30 -9 28 -31q-1 -16 -13 -17q-10 -1 -18 14zM590 692q0 -9 -15 -30t-23 -21q-35 0 -35 22q0 13 18.5 33t32.5 20q9 0 16 -7.5t6 -16.5z" />
    <glyph glyph-name="edotaccent" unicode="&#x117;" horiz-adv-x="222" 
d="M102 -1q-60 0 -60 59q0 61 70 146.5t128 85.5q13 0 17 -15l3 -9t3 -10q10 -18 10 -29q0 -16 -17 -31q-23 -20 -76 -51t-77 -34q-28 -44 -28 -72q0 -23 19 -23q27 0 89.5 47.5t98.5 83.5l32 34q6 6 13 6q6 0 6 -5q0 -10 -52.5 -61t-74.5 -69q-62 -53 -104 -53zM245 250
q-1 1 -4 1q-17 0 -44.5 -24.5t-44.5 -46.5t-32 -43q126 75 126 108q0 4 -1 5zM305 408q0 -9 -15 -30t-23 -21q-35 0 -35 22q0 13 18.5 33t32.5 20q9 0 16 -7.5t6 -16.5z" />
    <glyph glyph-name="Eogonek" unicode="&#x118;" horiz-adv-x="589" 
d="M677 541q-19 8 -79 8q-44 0 -113.5 -7t-88.5 -19q-17 -10 -64.5 -67.5t-75.5 -95.5q42 -2 119.5 3.5t110.5 5.5q83 0 110 -3q34 -5 -22 -22q-1 -1 -3 -1q-30 -5 -162 -10.5t-194 -32.5q-1 -2 -11 -19.5t-17 -32.5t-18.5 -39.5t-17.5 -44.5t-11.5 -44t-2 -42t12.5 -33
t29.5 -23.5t51.5 -8.5q83 0 207.5 45t211.5 95q10 5 11.5 0.5t-4.5 -11.5q-37 -54 -191 -111t-238 -57q-126 0 -141 111q-2 21 1 43t13 48.5t17 42t22.5 46.5l18.5 37q-58 0 -61 28q-1 5 1.5 7.5t7 3t9 0t10 -1t7.5 -0.5q34 0 62.5 26t62.5 79t39 60q-2 4 -11.5 8t-11.5 17
q-8 55 262 55q90 0 144 -9q30 -9 28 -31q-1 -16 -13 -17q-10 -1 -18 14zM337 -138q0 -14 -44 -28t-64 -14q-23 0 -39 10t-16 32q0 25 21 71.5t42 46.5l3 -3q-34 -48 -34 -88q0 -20 12.5 -30.5t32.5 -10.5q17 0 45.5 11.5t29.5 11.5q11 0 11 -9z" />
    <glyph glyph-name="eogonek" unicode="&#x119;" horiz-adv-x="222" 
d="M102 -1q-60 0 -60 59q0 61 70 146.5t128 85.5q13 0 17 -15l3 -9t3 -10q10 -18 10 -29q0 -16 -17 -31q-23 -20 -76 -51t-77 -34q-28 -44 -28 -72q0 -23 19 -23q27 0 89.5 47.5t98.5 83.5l32 34q6 6 13 6q6 0 6 -5q0 -10 -52.5 -61t-74.5 -69q-62 -53 -104 -53zM245 250
q-1 1 -4 1q-17 0 -44.5 -24.5t-44.5 -46.5t-32 -43q126 75 126 108q0 4 -1 5zM189 -111q0 -14 -44.5 -28t-63.5 -14q-23 0 -39 10t-16 32q0 25 21 71.5t42 46.5l3 -3q-34 -48 -34 -88q0 -20 12.5 -30.5t32.5 -10.5q17 0 45.5 11.5t29.5 11.5q11 0 11 -9z" />
    <glyph glyph-name="Ecaron" unicode="&#x11a;" horiz-adv-x="589" 
d="M677 541q-19 8 -79 8q-44 0 -113.5 -7t-88.5 -19q-17 -10 -64.5 -67.5t-75.5 -95.5q42 -2 119.5 3.5t110.5 5.5q83 0 110 -3q34 -5 -22 -22q-1 -1 -3 -1q-30 -5 -162 -10.5t-194 -32.5q-1 -2 -11 -19.5t-17 -32.5t-18.5 -39.5t-17.5 -44.5t-11.5 -44t-2 -42t12.5 -33
t29.5 -23.5t51.5 -8.5q83 0 207.5 45t211.5 95q10 5 11.5 0.5t-4.5 -11.5q-37 -54 -191 -111t-238 -57q-126 0 -141 111q-2 21 1 43t13 48.5t17 42t22.5 46.5l18.5 37q-58 0 -61 28q-1 5 1.5 7.5t7 3t9 0t10 -1t7.5 -0.5q34 0 62.5 26t62.5 79t39 60q-2 4 -11.5 8t-11.5 17
q-8 55 262 55q90 0 144 -9q30 -9 28 -31q-1 -16 -13 -17q-10 -1 -18 14zM488 734q-7 16 6 16t38.5 -31.5t29.5 -47.5q98 76 105 80q11 7 14 -2q2 -5 -7 -12q-3 -2 -58 -52t-62 -52q-15 -7 -20 4q-15 49 -46 97z" />
    <glyph glyph-name="ecaron" unicode="&#x11b;" horiz-adv-x="222" 
d="M102 -1q-60 0 -60 59q0 61 70 146.5t128 85.5q13 0 17 -15l3 -9t3 -10q10 -18 10 -29q0 -16 -17 -31q-23 -20 -76 -51t-77 -34q-28 -44 -28 -72q0 -23 19 -23q27 0 89.5 47.5t98.5 83.5l32 34q6 6 13 6q6 0 6 -5q0 -10 -52.5 -61t-74.5 -69q-62 -53 -104 -53zM245 250
q-1 1 -4 1q-17 0 -44.5 -24.5t-44.5 -46.5t-32 -43q126 75 126 108q0 4 -1 5zM188 454q-7 16 6 16t38.5 -31.5t29.5 -47.5q98 76 105 80q11 7 14 -2q2 -5 -7 -12q-3 -2 -58 -52t-62 -52q-15 -7 -20 4q-15 49 -46 97z" />
    <glyph glyph-name="Gbreve" unicode="&#x11e;" horiz-adv-x="750" 
d="M857 237q0 -5 -6 -7t-16 -2.5t-19.5 0t-19 1.5t-12.5 1q-43 0 -98.5 -57t-90.5 -125.5t-27 -100.5q-9 -4 -16 -4q-29 0 -29 39q0 16 10 38t25.5 48.5t19.5 36.5q-73 -50 -192.5 -92.5t-201.5 -42.5q-147 0 -147 135q0 83 59.5 175.5t146 163.5t188 117.5t182.5 46.5
q39 0 67 -31t28 -70q0 -34 -30 -68.5t-64 -34.5q-11 0 -11 8q0 5 16.5 22t33 42.5t16.5 50.5q0 42 -56 42q-60 0 -154 -50t-179 -121t-147 -156t-62 -148q0 -79 127 -79q45 0 114.5 16t141 42t128.5 67t70 84q-33 4 -70 0.5t-99.5 -13.5t-75.5 -11q-25 -6 -53.5 -15.5
t-44.5 -14.5t-30 -7.5t-20 2.5t-6 19q0 25 55.5 42t138.5 23.5t136 9t91 2.5q183 0 183 -24zM652 647q-66 0 -86 59q-4 7 -1 20.5t16 13.5q4 0 9.5 -15t21 -30.5t42.5 -15.5q29 0 52 16.5t30 42.5q3 6 9 6t7 -9q-6 -35 -35 -61.5t-65 -26.5z" />
    <glyph glyph-name="gbreve" unicode="&#x11f;" horiz-adv-x="307" 
d="M245 3q-46 -123 -119.5 -211t-186.5 -154q-52 -31 -90 -31q-46 0 -46 46q0 6 2 20q7 33 32 67t65 65.5t67 50t68 43.5q47 31 157 96q28 70 27 130q-115 -133 -164 -133q-19 0 -29 16.5t-10 36.5q0 69 87 156.5t154 87.5q22 0 38.5 -15t16.5 -36q0 -22 -15 -22
q-6 0 -15.5 11t-26.5 11q-48 0 -132 -84q-42 -42 -64 -102q-8 -22 -8 -33q0 -10 7 -10l8 2q39 16 87.5 69.5t78.5 103.5l4 6q6 19 26 19q18 0 18 -14q0 -88 -23 -152q42 33 72 64q9 9 29.5 31.5t31.5 33.5q5 5 10 5q6 0 6 -6q0 -10 -68 -77.5t-95 -90.5zM188 -35q0 1 -2 3
q-1 0 -2 1q-15 -10 -58 -40t-68 -46q-224 -155 -224 -222q0 -14 11.5 -21.5t26.5 -7.5q33 0 80.5 35.5t78 68.5t59.5 69q42 57 63 92q22 36 35 68zM304 348q-66 0 -86 59q-4 7 -1 20.5t16 13.5q4 0 9.5 -15.5t21 -30.5t42.5 -15q29 0 52 16.5t30 42.5q3 6 9 6t7 -9
q-6 -35 -35 -61.5t-65 -26.5z" />
    <glyph glyph-name="uni0122" unicode="&#x122;" horiz-adv-x="750" 
d="M857 237q0 -5 -6 -7t-16 -2.5t-19.5 0t-19 1.5t-12.5 1q-43 0 -98.5 -57t-90.5 -125.5t-27 -100.5q-9 -4 -16 -4q-29 0 -29 39q0 16 10 38t25.5 48.5t19.5 36.5q-73 -50 -192.5 -92.5t-201.5 -42.5q-147 0 -147 135q0 83 59.5 175.5t146 163.5t188 117.5t182.5 46.5
q39 0 67 -31t28 -70q0 -34 -30 -68.5t-64 -34.5q-11 0 -11 8q0 5 16.5 22t33 42.5t16.5 50.5q0 42 -56 42q-60 0 -154 -50t-179 -121t-147 -156t-62 -148q0 -79 127 -79q45 0 114.5 16t141 42t128.5 67t70 84q-33 4 -70 0.5t-99.5 -13.5t-75.5 -11q-25 -6 -53.5 -15.5
t-44.5 -14.5t-30 -7.5t-20 2.5t-6 19q0 25 55.5 42t138.5 23.5t136 9t91 2.5q183 0 183 -24zM267 -118q-11 -46 -54.5 -90t-73.5 -53q-1 0 -1 5t37.5 44.5t39.5 57.5q0 3 -2.5 8.5t-1.5 10.5q0 14 17.5 31.5t27.5 17.5q17 0 11 -32z" />
    <glyph glyph-name="uni0123" unicode="&#x123;" horiz-adv-x="307" 
d="M245 3q-46 -123 -119.5 -211t-186.5 -154q-52 -31 -90 -31q-46 0 -46 46q0 6 2 20q7 33 32 67t65 65.5t67 50t68 43.5q47 31 157 96q28 70 27 130q-115 -133 -164 -133q-19 0 -29 16.5t-10 36.5q0 69 87 156.5t154 87.5q22 0 38.5 -15t16.5 -36q0 -22 -15 -22
q-6 0 -15.5 11t-26.5 11q-48 0 -132 -84q-42 -42 -64 -102q-8 -22 -8 -33q0 -10 7 -10l8 2q39 16 87.5 69.5t78.5 103.5l4 6q6 19 26 19q18 0 18 -14q0 -88 -23 -152q42 33 72 64q9 9 29.5 31.5t31.5 33.5q5 5 10 5q6 0 6 -6q0 -10 -68 -77.5t-95 -90.5zM188 -35q0 1 -2 3
q-1 0 -2 1q-15 -10 -58 -40t-68 -46q-224 -155 -224 -222q0 -14 11.5 -21.5t26.5 -7.5q33 0 80.5 35.5t78 68.5t59.5 69q42 57 63 92q22 36 35 68zM260 406q11 47 53.5 89t74.5 54q1 -1 1 -5q0 -5 -37.5 -44.5t-39.5 -57.5q0 -3 2.5 -8.5t1.5 -10.5q0 -14 -17.5 -31.5
t-27.5 -17.5q-17 0 -11 32z" />
    <glyph glyph-name="Imacron" unicode="&#x12a;" horiz-adv-x="407" 
d="M709 571q-5 -10 -46 -14.5t-95.5 -17t-85.5 -41.5q-71 -65 -158 -206t-118 -236q33 -1 91 0.5t82 1.5q27 0 27 -8t-14 -12.5t-24 -4.5q-202 -16 -337 -47q-1 0 -4.5 -0.5t-5.5 -0.5q-14 0 -16 14q-1 10 5.5 17.5t20 13t27.5 9t33 6t32 4t29.5 2.5t19.5 1
q26 100 115.5 267.5t155.5 222.5q-26 0 -73.5 -16.5t-62.5 -16.5q-8 0 -15 8t-7 16q-2 19 39 28.5t91.5 13.5t59.5 9q4 2 14 15t16 13q16 0 44 -28q85 0 145 -5q14 0 15 -8zM629 694h-129q-15 0 -14 7q2 11 27 19q9 3 18 3h112q35 0 35 -12q0 -17 -49 -17z" />
    <glyph glyph-name="imacron" unicode="&#x12b;" horiz-adv-x="209" 
d="M301 165q0 -6 -5 -14q-8 -10 -18 -20.5t-22.5 -22.5t-18.5 -19q-59 -59 -99 -104q-14 -16 -28 -16q-15 0 -29 13t-17 28q6 35 36 100.5t54 102.5q-7 -6 -81 -77q-7 -7 -11 -7q-7 0 -7.5 5t4.5 10q18 20 56.5 60.5t57.5 61.5q1 1 4 5t4 5t3.5 4t4 3.5t4 2.5t4.5 2.5t5 1
t7 0.5q15 0 32 -7t10 -19q-1 -2 -32 -47t-53.5 -79t-44 -74t-21.5 -55q0 -6 4 -6t14.5 7t20 15t21.5 18t13 11q69 58 110 107q10 10 13 10q5 0 5 -6zM312 397h-129q-15 0 -14 7q2 11 27 19q9 3 18 3h112q35 0 35 -12q0 -17 -49 -17z" />
    <glyph glyph-name="Iogonek" unicode="&#x12e;" horiz-adv-x="407" 
d="M709 571q-5 -10 -46 -14.5t-95.5 -17t-85.5 -41.5q-71 -65 -158 -206t-118 -236q33 -1 91 0.5t82 1.5q27 0 27 -8t-14 -12.5t-24 -4.5q-202 -16 -337 -47q-1 0 -4.5 -0.5t-5.5 -0.5q-14 0 -16 14q-1 10 5.5 17.5t20 13t27.5 9t33 6t32 4t29.5 2.5t19.5 1
q26 100 115.5 267.5t155.5 222.5q-26 0 -73.5 -16.5t-62.5 -16.5q-8 0 -15 8t-7 16q-2 19 39 28.5t91.5 13.5t59.5 9q4 2 14 15t16 13q16 0 44 -28q85 0 145 -5q14 0 15 -8zM286 -95q0 -14 -44.5 -28t-63.5 -14q-23 0 -39 10t-16 32q0 25 21 71.5t42 46.5l3 -3
q-34 -48 -34 -88q0 -20 12.5 -30.5t32.5 -10.5q17 0 45.5 11.5t29.5 11.5q11 0 11 -9z" />
    <glyph glyph-name="iogonek" unicode="&#x12f;" horiz-adv-x="209" 
d="M341 438q-4 -22 -17.5 -42t-31.5 -26q-10 -3 -22 -3q-23 0 -23 18q1 23 32 38q9 5 19 7t23.5 4t19.5 4zM301 165q0 -6 -5 -14q-8 -10 -18 -20.5t-22.5 -22.5t-18.5 -19q-59 -59 -99 -104q-14 -16 -28 -16q-15 0 -29 13t-17 28q6 35 36 100.5t54 102.5q-7 -6 -81 -77
q-7 -7 -11 -7q-7 0 -7.5 5t4.5 10q18 20 56.5 60.5t57.5 61.5q1 1 4 5t4 5t3.5 4t4 3.5t4 2.5t4.5 2.5t5 1t7 0.5q15 0 32 -7t10 -19q-1 -2 -32 -47t-53.5 -79t-44 -74t-21.5 -55q0 -6 4 -6t14.5 7t20 15t21.5 18t13 11q69 58 110 107q10 10 13 10q5 0 5 -6zM204 -127
q0 -14 -44 -28t-64 -14q-23 0 -39 10t-16 32q0 25 21 71.5t42 46.5l3 -3q-34 -48 -34 -88q0 -20 12.5 -30.5t32.5 -10.5q17 0 45.5 11.5t29.5 11.5q11 0 11 -9z" />
    <glyph glyph-name="Idotaccent" unicode="&#x130;" horiz-adv-x="407" 
d="M709 571q-5 -10 -46 -14.5t-95.5 -17t-85.5 -41.5q-71 -65 -158 -206t-118 -236q33 -1 91 0.5t82 1.5q27 0 27 -8t-14 -12.5t-24 -4.5q-202 -16 -337 -47q-1 0 -4.5 -0.5t-5.5 -0.5q-14 0 -16 14q-1 10 5.5 17.5t20 13t27.5 9t33 6t32 4t29.5 2.5t19.5 1
q26 100 115.5 267.5t155.5 222.5q-26 0 -73.5 -16.5t-62.5 -16.5q-8 0 -15 8t-7 16q-2 19 39 28.5t91.5 13.5t59.5 9q4 2 14 15t16 13q16 0 44 -28q85 0 145 -5q14 0 15 -8zM609 736q0 -9 -15 -30t-23 -21q-35 0 -35 22q0 13 18.5 33t32.5 20q9 0 16 -7.5t6 -16.5z" />
    <glyph glyph-name="dotlessi" unicode="&#x131;" horiz-adv-x="209" 
d="M301 165q0 -6 -5 -14q-8 -10 -18 -20.5t-22.5 -22.5t-18.5 -19q-59 -59 -99 -104q-14 -16 -28 -16q-15 0 -29 13t-17 28q6 35 36 100.5t54 102.5q-7 -6 -81 -77q-7 -7 -11 -7q-7 0 -7.5 5t4.5 10q18 20 56.5 60.5t57.5 61.5q1 1 4 5t4 5t3.5 4t4 3.5t4 2.5t4.5 2.5t5 1
t7 0.5q15 0 32 -7t10 -19q-1 -2 -32 -47t-53.5 -79t-44 -74t-21.5 -55q0 -6 4 -6t14.5 7t20 15t21.5 18t13 11q69 58 110 107q10 10 13 10q5 0 5 -6z" />
    <glyph glyph-name="uni0136" unicode="&#x136;" horiz-adv-x="586" 
d="M322 286q7 -30 37.5 -96.5t73 -128t69.5 -61.5q29 0 39 38.5t7 73.5q0 15 5 15q11 0 21 -21t10 -34q2 -38 -25 -68.5t-65 -30.5q-31 0 -60 27q-33 33 -87 114t-84 136q-61 -22 -122 -92.5t-57 -132.5q2 -17 12 -17q4 0 5.5 -5.5t-1.5 -11.5t-9 -6q-35 0 -40 44
q-8 105 196 463q2 3 21.5 38.5t31.5 50.5q9 11 36 11q28 0 29 -18q0 -10 -11 -28q-14 -22 -44.5 -70.5t-48 -76.5t-41 -70t-39.5 -79q66 31 144.5 76.5t119 71t144 94.5l121.5 81q16 10 26 10q13 0 14 -10q2 -15 -91 -76.5t-207.5 -130.5t-129.5 -80zM233 -52
q-11 -46 -54.5 -90t-73.5 -53q-1 0 -1 5t37.5 44.5t39.5 57.5q0 3 -2.5 8.5t-1.5 10.5q0 14 17.5 31.5t27.5 17.5q17 0 11 -32z" />
    <glyph glyph-name="uni0137" unicode="&#x137;" horiz-adv-x="361" 
d="M118 117q-6 -12 -26.5 -57.5t-32.5 -65.5q-3 -6 -18 -6q-16 0 -20 11t2.5 25t18.5 25l72 128q-4 -4 -16 -14.5t-19 -17.5q-12 -10 -13 -1q-1 4 5 12q9 12 32.5 37.5t49 56.5t48.5 67q34 51 110.5 138t112.5 112q9 6 20 -5t12 -24q0 -10 -8 -15q-39 -32 -44 -36
q-54 -48 -126 -133.5t-118 -157.5q5 -5 23 11q77 65 155 119q30 18 47 18t27 -11q29 -9 29 -29t-41 -50q-61 -40 -168 -61q-19 -63 -18.5 -125t33.5 -62q8 0 20.5 6.5t28 19t25.5 21t25.5 23t16.5 15.5q3 3 38.5 36.5t43.5 42.5q2 4 6 -1q6 -7 -10 -26q-3 -1 -6 -6
q-8 -10 -11 -13q-110 -124 -150 -145q-12 -5 -20 -5q-34 0 -54 18t-25 49t-2 64t13 72q-33 -23 -68 -60zM385 295q-3 7 -11 7q-21 0 -135 -83q35 7 88 30.5t58 45.5zM138 -82q-11 -46 -54.5 -90t-73.5 -53q-1 0 -1 5t37.5 44.5t39.5 57.5q0 3 -2.5 8.5t-1.5 10.5
q0 14 17.5 31.5t27.5 17.5q17 0 11 -32z" />
    <glyph glyph-name="Lacute" unicode="&#x139;" horiz-adv-x="515" 
d="M529 541q1 -2 0 -6.5t-4 -4.5q-6 3 -12 8t-12.5 8t-17.5 3q-62 0 -158.5 -102t-169 -224t-80.5 -185q116 18 297 18q131 0 134 -31q0 -4 -10.5 -6.5t-26.5 -2.5t-31.5 0.5t-29 1.5t-15.5 1q-115 0 -233 -19q-10 -1 -66 -14t-60 -13q-16 0 -17 15q-3 22 2.5 33t27.5 10
q2 67 72 205t167 254t160 116q20 0 50.5 -23t32.5 -42zM462 663q2 4 5 7q16 14 58 39t54 33q15 6 18 6q5 -1 10 -8.5t5 -13.5q-2 -12 -11 -17q-10 -8 -68 -29.5t-64 -21.5q-7 0 -7 5z" />
    <glyph glyph-name="lacute" unicode="&#x13a;" horiz-adv-x="233" 
d="M122 246q29 52 77.5 115.5t113 124.5t114.5 78q15 5 23 5q14 0 28 -15t19 -18q8 -5 8 -16q0 -31 -52.5 -86t-125.5 -110t-123.5 -90t-73.5 -49q-41 -80 -41 -132q0 -41 23 -41q19 0 51 19.5t53 38.5q27 22 93 93q5 5 9 5q6 0 6 -7q0 -6 -5 -11q-6 -7 -31 -34.5t-36.5 -40
t-33 -33t-40.5 -34t-39 -23.5q-12 -5 -20 -5q-18 0 -42.5 13t-31.5 28q-6 11 -6 24q0 56 83 201zM468 502q7 16 -10.5 20.5t-30.5 -1.5q-41 -14 -131.5 -115.5t-133.5 -168.5q42 14 169 126.5t137 138.5zM448 645q2 4 5 7q16 14 58 39t54 33q15 6 18 6q5 -1 10 -8.5t5 -13.5
q-2 -12 -11 -17q-10 -8 -68 -29.5t-64 -21.5q-7 0 -7 5z" />
    <glyph glyph-name="uni013B" unicode="&#x13b;" horiz-adv-x="515" 
d="M529 541q1 -2 0 -6.5t-4 -4.5q-6 3 -12 8t-12.5 8t-17.5 3q-62 0 -158.5 -102t-169 -224t-80.5 -185q116 18 297 18q131 0 134 -31q0 -4 -10.5 -6.5t-26.5 -2.5t-31.5 0.5t-29 1.5t-15.5 1q-115 0 -233 -19q-10 -1 -66 -14t-60 -13q-16 0 -17 15q-3 22 2.5 33t27.5 10
q2 67 72 205t167 254t160 116q20 0 50.5 -23t32.5 -42zM233 -52q-11 -46 -54.5 -90t-73.5 -53q-1 0 -1 5t37.5 44.5t39.5 57.5q0 3 -2.5 8.5t-1.5 10.5q0 14 17.5 31.5t27.5 17.5q17 0 11 -32z" />
    <glyph glyph-name="uni013C" unicode="&#x13c;" horiz-adv-x="233" 
d="M122 246q29 52 77.5 115.5t113 124.5t114.5 78q15 5 23 5q14 0 28 -15t19 -18q8 -5 8 -16q0 -31 -52.5 -86t-125.5 -110t-123.5 -90t-73.5 -49q-41 -80 -41 -132q0 -41 23 -41q19 0 51 19.5t53 38.5q27 22 93 93q5 5 9 5q6 0 6 -7q0 -6 -5 -11q-6 -7 -31 -34.5t-36.5 -40
t-33 -33t-40.5 -34t-39 -23.5q-12 -5 -20 -5q-18 0 -42.5 13t-31.5 28q-6 11 -6 24q0 56 83 201zM468 502q7 16 -10.5 20.5t-30.5 -1.5q-41 -14 -131.5 -115.5t-133.5 -168.5q42 14 169 126.5t137 138.5zM99 -83q-11 -46 -54.5 -90t-73.5 -53q-1 0 -1 5t37.5 44.5t39.5 57.5
q0 3 -2.5 8.5t-1.5 10.5q0 14 17.5 31.5t27.5 17.5q17 0 11 -32z" />
    <glyph glyph-name="Lcaron" unicode="&#x13d;" horiz-adv-x="515" 
d="M529 541q1 -2 0 -6.5t-4 -4.5q-6 3 -12 8t-12.5 8t-17.5 3q-62 0 -158.5 -102t-169 -224t-80.5 -185q116 18 297 18q131 0 134 -31q0 -4 -10.5 -6.5t-26.5 -2.5t-31.5 0.5t-29 1.5t-15.5 1q-115 0 -233 -19q-10 -1 -66 -14t-60 -13q-16 0 -17 15q-3 22 2.5 33t27.5 10
q2 67 72 205t167 254t160 116q20 0 50.5 -23t32.5 -42zM438 758q-7 16 6 16t38.5 -31.5t29.5 -47.5q98 76 105 80q11 7 14 -2q2 -5 -7 -12q-3 -2 -58 -52t-62 -52q-15 -7 -20 4q-15 49 -46 97z" />
    <glyph glyph-name="lcaron" unicode="&#x13e;" horiz-adv-x="424" 
d="M122 246q29 52 77.5 115.5t113 124.5t114.5 78q15 5 23 5q14 0 28 -15t19 -18q8 -5 8 -16q0 -31 -52.5 -86t-125.5 -110t-123.5 -90t-73.5 -49q-41 -80 -41 -132q0 -41 23 -41q19 0 51 19.5t53 38.5q27 22 93 93q5 5 9 5q6 0 6 -7q0 -6 -5 -11q-6 -7 -31 -34.5t-36.5 -40
t-33 -33t-40.5 -34t-39 -23.5q-12 -5 -20 -5q-18 0 -42.5 13t-31.5 28q-6 11 -6 24q0 56 83 201zM468 502q7 16 -10.5 20.5t-30.5 -1.5q-41 -14 -131.5 -115.5t-133.5 -168.5q42 14 169 126.5t137 138.5zM630 524q-11 -46 -54.5 -90t-73.5 -53q-1 0 -1 5t37.5 44.5
t39.5 57.5q0 3 -2.5 8.5t-1.5 10.5q0 14 17.5 31.5t27.5 17.5q17 0 11 -32z" />
    <glyph glyph-name="Lslash" unicode="&#x141;" horiz-adv-x="515" 
d="M185 194l-54 -15q-50 -92 -56 -141q116 18 297 18q131 0 134 -31q0 -4 -10.5 -6.5t-26.5 -2.5t-31.5 0.5t-29 1.5t-15.5 1q-115 0 -233 -19q-10 -1 -66 -14t-60 -13q-16 0 -17 15q-3 22 2.5 33t27.5 10q0 44 40 137l-73 -19q-14 -3 -14 4q1 11 28 27q12 7 22 10
q27 6 54 14q45 93 104.5 182.5t125.5 154.5t112 65q20 0 50.5 -23t32.5 -42q1 -2 0 -6.5t-4 -4.5q-6 3 -12 8t-12.5 8t-17.5 3q-63 0 -160 -103t-171 -230l58 15q16 6 38.5 9t27.5 -2q2 -9 -28 -23.5t-63 -20.5z" />
    <glyph glyph-name="lslash" unicode="&#x142;" horiz-adv-x="291" 
d="M221 146l-58 -16q-16 -48 -16 -77q0 -41 23 -41q19 0 51 19.5t53 38.5q27 22 93 93q5 5 9 5q6 0 6 -7q0 -6 -5 -11q-6 -7 -31 -34.5t-36.5 -40t-33 -33t-40.5 -34t-39 -23.5q-12 -5 -20 -5q-18 0 -42.5 13t-31.5 28q-6 11 -6 24q0 22 18 73q-4 -1 -65 -17q-14 -3 -14 4
q1 11 28 27q12 7 22 10l45 12q17 36 49 92q29 52 77.5 115.5t113 124.5t114.5 78q15 5 23 5q14 0 28 -15t19 -18q8 -5 8 -16q0 -31 -52.5 -86t-125.5 -110t-123.5 -90t-73.5 -49q-6 -10 -10 -20l68 18q16 6 38.5 9t27.5 -2q2 -9 -28 -23.5t-63 -20.5zM526 502
q7 16 -10.5 20.5t-30.5 -1.5q-41 -14 -131.5 -115t-133.5 -169q42 14 169 126.5t137 138.5z" />
    <glyph glyph-name="Nacute" unicode="&#x143;" horiz-adv-x="578" 
d="M380 -6q-40 0 -62.5 31.5t-25 82t2.5 108t18.5 116.5t24.5 99t19 63q-41 -47 -85.5 -103t-100 -132.5t-90.5 -147.5t-35 -115q0 -17 10 -17q18 0 18 -8t-13 -8q-23 0 -33 10t-10 33q0 69 86 221t161 253q-15 4 -15 10q0 9 49 54.5t61 45.5q16 0 29.5 -13t13.5 -30
q0 -2 -2 -8q-5 -18 -10 -39.5t-14.5 -63.5t-16 -82t-12.5 -87t-5.5 -86t5.5 -72t21 -51.5t41 -18.5q47 0 98.5 64t95.5 161q38 80 64 191q29 122 -8 122q-5 0 -16.5 -3.5t-18.5 -3.5q-12 0 -12 7q0 13 23.5 24.5t39.5 11.5q72 0 53 -117q-19 -122 -111 -278
q-93 -156 -181 -206q-31 -18 -57 -18zM507 691q2 4 5 7q16 14 58 39t54 33q15 6 18 6q5 -1 10 -8.5t5 -13.5q-2 -12 -11 -17q-10 -8 -68 -29.5t-64 -21.5q-7 0 -7 5z" />
    <glyph glyph-name="nacute" unicode="&#x144;" horiz-adv-x="356" 
d="M132 102q32 36 112 103l71 58q26 23 29 25q6 4 37 4q13 0 22.5 -6.5t9.5 -18.5q0 -5 -1 -9t-3.5 -7.5t-4 -5.5t-6 -6t-6.5 -6q-146 -146 -146 -215q0 -9 1 -12q37 14 92.5 63t91.5 92q8 8 11 8q5 0 5 -7q0 -4 -3 -9q-30 -41 -85 -94t-93 -76q-7 -4 -16 -4q-18 0 -35 9.5
t-17 25.5q0 33 60 120t66 100q-26 -10 -65 -42q-73 -55 -138 -144q-2 -3 -14.5 -22t-19.5 -28q-5 -6 -15.5 -11.5t-19.5 -3.5t-9 14q0 18 29.5 69t71.5 113.5t45 68.5q-28 -28 -41 -36q-7 -6 -73 -75q-10 -10 -17 -10q-5 0 -5 5q0 7 34 43.5t74.5 77.5t46.5 49q22 29 49 29
q10 0 22.5 -9t12.5 -19q0 -3 -2 -5q-68 -57 -158 -196zM317 394q2 4 5 7q16 14 58 39t54 33q15 6 18 6q5 -1 10 -8.5t5 -13.5q-2 -12 -11 -17q-10 -8 -68 -29.5t-64 -21.5q-7 0 -7 5z" />
    <glyph glyph-name="uni0145" unicode="&#x145;" horiz-adv-x="578" 
d="M380 -6q-40 0 -62.5 31.5t-25 82t2.5 108t18.5 116.5t24.5 99t19 63q-41 -47 -85.5 -103t-100 -132.5t-90.5 -147.5t-35 -115q0 -17 10 -17q18 0 18 -8t-13 -8q-23 0 -33 10t-10 33q0 69 86 221t161 253q-15 4 -15 10q0 9 49 54.5t61 45.5q16 0 29.5 -13t13.5 -30
q0 -2 -2 -8q-5 -18 -10 -39.5t-14.5 -63.5t-16 -82t-12.5 -87t-5.5 -86t5.5 -72t21 -51.5t41 -18.5q47 0 98.5 64t95.5 161q38 80 64 191q29 122 -8 122q-5 0 -16.5 -3.5t-18.5 -3.5q-12 0 -12 7q0 13 23.5 24.5t39.5 11.5q72 0 53 -117q-19 -122 -111 -278
q-93 -156 -181 -206q-31 -18 -57 -18zM233 -52q-11 -46 -54.5 -90t-73.5 -53q-1 0 -1 5t37.5 44.5t39.5 57.5q0 3 -2.5 8.5t-1.5 10.5q0 14 17.5 31.5t27.5 17.5q17 0 11 -32z" />
    <glyph glyph-name="uni0146" unicode="&#x146;" horiz-adv-x="356" 
d="M132 102q32 36 112 103l71 58q26 23 29 25q6 4 37 4q13 0 22.5 -6.5t9.5 -18.5q0 -5 -1 -9t-3.5 -7.5t-4 -5.5t-6 -6t-6.5 -6q-146 -146 -146 -215q0 -9 1 -12q37 14 92.5 63t91.5 92q8 8 11 8q5 0 5 -7q0 -4 -3 -9q-30 -41 -85 -94t-93 -76q-7 -4 -16 -4q-18 0 -35 9.5
t-17 25.5q0 33 60 120t66 100q-26 -10 -65 -42q-73 -55 -138 -144q-2 -3 -14.5 -22t-19.5 -28q-5 -6 -15.5 -11.5t-19.5 -3.5t-9 14q0 18 29.5 69t71.5 113.5t45 68.5q-28 -28 -41 -36q-7 -6 -73 -75q-10 -10 -17 -10q-5 0 -5 5q0 7 34 43.5t74.5 77.5t46.5 49q22 29 49 29
q10 0 22.5 -9t12.5 -19q0 -3 -2 -5q-68 -57 -158 -196zM146 -80q-11 -46 -54.5 -90t-73.5 -53q-1 0 -1 5t37.5 44.5t39.5 57.5q0 3 -2.5 8.5t-1.5 10.5q0 14 17.5 31.5t27.5 17.5q17 0 11 -32z" />
    <glyph glyph-name="Ncaron" unicode="&#x147;" horiz-adv-x="578" 
d="M380 -6q-40 0 -62.5 31.5t-25 82t2.5 108t18.5 116.5t24.5 99t19 63q-41 -47 -85.5 -103t-100 -132.5t-90.5 -147.5t-35 -115q0 -17 10 -17q18 0 18 -8t-13 -8q-23 0 -33 10t-10 33q0 69 86 221t161 253q-15 4 -15 10q0 9 49 54.5t61 45.5q16 0 29.5 -13t13.5 -30
q0 -2 -2 -8q-5 -18 -10 -39.5t-14.5 -63.5t-16 -82t-12.5 -87t-5.5 -86t5.5 -72t21 -51.5t41 -18.5q47 0 98.5 64t95.5 161q38 80 64 191q29 122 -8 122q-5 0 -16.5 -3.5t-18.5 -3.5q-12 0 -12 7q0 13 23.5 24.5t39.5 11.5q72 0 53 -117q-19 -122 -111 -278
q-93 -156 -181 -206q-31 -18 -57 -18zM501 762q-7 16 6 16t38.5 -31.5t29.5 -47.5q98 76 105 80q11 7 14 -2q2 -5 -7 -12q-3 -2 -58 -52t-62 -52q-15 -7 -20 4q-15 49 -46 97z" />
    <glyph glyph-name="ncaron" unicode="&#x148;" horiz-adv-x="356" 
d="M132 102q32 36 112 103l71 58q26 23 29 25q6 4 37 4q13 0 22.5 -6.5t9.5 -18.5q0 -5 -1 -9t-3.5 -7.5t-4 -5.5t-6 -6t-6.5 -6q-146 -146 -146 -215q0 -9 1 -12q37 14 92.5 63t91.5 92q8 8 11 8q5 0 5 -7q0 -4 -3 -9q-30 -41 -85 -94t-93 -76q-7 -4 -16 -4q-18 0 -35 9.5
t-17 25.5q0 33 60 120t66 100q-26 -10 -65 -42q-73 -55 -138 -144q-2 -3 -14.5 -22t-19.5 -28q-5 -6 -15.5 -11.5t-19.5 -3.5t-9 14q0 18 29.5 69t71.5 113.5t45 68.5q-28 -28 -41 -36q-7 -6 -73 -75q-10 -10 -17 -10q-5 0 -5 5q0 7 34 43.5t74.5 77.5t46.5 49q22 29 49 29
q10 0 22.5 -9t12.5 -19q0 -3 -2 -5q-68 -57 -158 -196zM299 486q-7 16 6 16t38.5 -31.5t29.5 -47.5q98 76 105 80q11 7 14 -2q2 -5 -7 -12q-3 -2 -58 -52t-62 -52q-15 -7 -20 4q-15 49 -46 97z" />
    <glyph glyph-name="Omacron" unicode="&#x14c;" horiz-adv-x="698" 
d="M802 377q0 -62 -38 -124.5t-98.5 -111t-132 -87t-144 -59t-129.5 -20.5q-160 0 -160 161q0 167 240 375q-94 -32 -179 -109q-15 -14 -21.5 -7.5t5.5 21.5q60 81 170 128t217 47q71 0 129.5 -20.5t99.5 -70.5t41 -123zM755 421q0 51 -34 84t-77 44t-93 11q-73 0 -142 -22
q19 -3 37 -13t18 -26q0 -8 -11 -13q-101 -33 -209.5 -147.5t-108.5 -212.5q0 -118 117 -118q69 0 157 36.5t164.5 93t129 133.5t52.5 150zM693 679h-129q-15 0 -14 7q2 11 27 19q9 3 18 3h112q35 0 35 -12q0 -17 -49 -17z" />
    <glyph glyph-name="omacron" unicode="&#x14d;" horiz-adv-x="293" 
d="M390 165q0 -2 -3.5 -6t-3.5 -5q-87 -102 -183 -117q-58 -58 -105 -58q-27 0 -42 22t-15 50q0 46 34 105t73 103q12 14 31 -1q55 39 102 39q45 0 45 -46q0 -62 -69 -153q-15 -20 -28 -33q12 3 23.5 7.5t24 12.5t19 12t20.5 16l17.5 15t20 18.5t17.5 16.5q9 9 17 9
q5 0 5 -7zM281 249q0 18 -17 18q-35 0 -76 -31v-3q0 -9 -15 -28t-34.5 -40.5t-24.5 -29.5q-3 -38 17 -60.5t57 -15.5q36 44 64.5 96.5t28.5 93.5zM165 36q-39 4 -79 49q-4 -7 -7.5 -20.5t-5 -29.5t4 -27.5t18.5 -11.5q26 0 69 40zM350 398h-129q-15 0 -14 7q2 11 27 19
q9 3 18 3h112q35 0 35 -12q0 -17 -49 -17z" />
    <glyph glyph-name="Ohungarumlaut" unicode="&#x150;" horiz-adv-x="698" 
d="M802 377q0 -62 -38 -124.5t-98.5 -111t-132 -87t-144 -59t-129.5 -20.5q-160 0 -160 161q0 167 240 375q-94 -32 -179 -109q-15 -14 -21.5 -7.5t5.5 21.5q60 81 170 128t217 47q71 0 129.5 -20.5t99.5 -70.5t41 -123zM755 421q0 51 -34 84t-77 44t-93 11q-73 0 -142 -22
q19 -3 37 -13t18 -26q0 -8 -11 -13q-101 -33 -209.5 -147.5t-108.5 -212.5q0 -118 117 -118q69 0 157 36.5t164.5 93t129 133.5t52.5 150zM557 638q-5 -4 -9 0q-5 11 -3 34t7 57t5 37q5 13 6 13q8 6 18 -4q12 -16 10 -27q0 -7 -15 -57.5t-19 -52.5zM649 638q-5 -4 -9 0
q-5 11 -3 34t7 57t5 37q5 12 7 13q7 6 17 -4q12 -17 11 -27q0 -8 -15.5 -58t-19.5 -52z" />
    <glyph glyph-name="ohungarumlaut" unicode="&#x151;" horiz-adv-x="293" 
d="M390 165q0 -2 -3.5 -6t-3.5 -5q-87 -102 -183 -117q-58 -58 -105 -58q-27 0 -42 22t-15 50q0 46 34 105t73 103q12 14 31 -1q55 39 102 39q45 0 45 -46q0 -62 -69 -153q-15 -20 -28 -33q12 3 23.5 7.5t24 12.5t19 12t20.5 16l17.5 15t20 18.5t17.5 16.5q9 9 17 9
q5 0 5 -7zM281 249q0 18 -17 18q-35 0 -76 -31v-3q0 -9 -15 -28t-34.5 -40.5t-24.5 -29.5q-3 -38 17 -60.5t57 -15.5q36 44 64.5 96.5t28.5 93.5zM165 36q-39 4 -79 49q-4 -7 -7.5 -20.5t-5 -29.5t4 -27.5t18.5 -11.5q26 0 69 40zM236 361q-4 -5 -9 0q-5 11 -3 34t7 57t5 37
q5 13 6 13q8 6 18 -4q12 -16 10 -27q0 -7 -15 -57.5t-19 -52.5zM328 361q-4 -5 -9 0q-5 11 -3 34t7 57t5 37q5 12 7 13q7 6 17 -4q12 -17 11 -27q0 -8 -15.5 -58t-19.5 -52z" />
    <glyph glyph-name="OE" unicode="&#x152;" horiz-adv-x="1058" 
d="M1146 541q-19 8 -79 8q-44 0 -113.5 -7t-88.5 -19q-17 -10 -64.5 -67.5t-75.5 -95.5q42 -2 119.5 3.5t110.5 5.5q83 0 110 -3q34 -5 -22 -22q-1 -1 -3 -1q-30 -5 -162 -10.5t-194 -32.5q-2 -4 -10.5 -19.5t-16 -31t-18 -38t-16.5 -42.5t-10 -42t-0.5 -39.5t13 -32
t30 -22.5t51.5 -8q85 0 207.5 40.5t204.5 87.5q10 5 11.5 0.5t-4.5 -11.5q-37 -54 -191 -111t-238 -57q-126 0 -141 111q0 1 -0.5 3t-0.5 3q-80 -53 -172.5 -84.5t-163.5 -31.5q-160 0 -160 161q0 167 240 375q-94 -32 -179 -109q-15 -14 -21.5 -7.5t5.5 21.5q60 81 170 128
t217 47q84 0 151.5 -30.5t98.5 -93.5q9 15 25 37q-2 4 -11.5 8t-11.5 17q-8 55 262 55q90 0 144 -9q30 -9 28 -31q-1 -16 -13 -17q-10 -1 -18 14zM211 8q78 0 176 44t179 114q6 17 14.5 37t15 34t17.5 35t15 30q-58 0 -61 28q-1 5 1.5 7.5t7 3t9 0t10 -1t7.5 -0.5
q51 0 112 87q-2 38 -21 65.5t-50.5 42t-64 20.5t-68.5 6q-73 0 -142 -22q19 -3 37 -13t18 -26q0 -8 -11 -13q-101 -33 -209.5 -147.5t-108.5 -212.5q0 -118 117 -118z" />
    <glyph glyph-name="oe" unicode="&#x153;" horiz-adv-x="398" 
d="M278 -1q-60 0 -60 57l-18 -19q-19 -22 -49.5 -40t-55.5 -18q-27 0 -42 22t-15 50q0 46 34 105t73 103q12 14 31 -1q55 39 102 39q45 0 45 -46v-9q53 48 93 48q13 0 17 -15q2 -3 3.5 -9l2.5 -10q10 -18 10 -29q0 -16 -17 -31q-23 -20 -76 -51t-77 -34q-28 -44 -28 -72
q0 -23 19 -23q27 0 89.5 47.5t98.5 83.5l32 34q6 6 13 6q6 0 6 -5q0 -10 -52.5 -61t-74.5 -69q-62 -53 -104 -53zM198 68q8 8 30 38q17 42 46 81q13 37 13 67q0 19 -18 19q-31 0 -81 -37v-3q0 -9 -15.5 -29t-42 -54t-44.5 -65q-4 -7 -7.5 -20.5t-5 -29.5t4 -27.5t18.5 -11.5
q25 0 47 16.5t55 55.5zM421 250q-1 1 -4 1q-17 0 -44.5 -24.5t-44.5 -46.5t-32 -43q126 75 126 108q0 4 -1 5z" />
    <glyph glyph-name="Racute" unicode="&#x154;" horiz-adv-x="554" 
d="M92 -19q0 -17 12 -17q4 0 5.5 -6t-1.5 -11.5t-9 -5.5q-38 0 -40 44q-5 68 62.5 212t133.5 251q45 80 53 89q9 11 36 11t28 -18q1 -14 -11 -28q-18 -29 -56 -87.5t-66 -104.5t-51 -92q-3 -6 -18.5 -34t-27 -50t-25 -52t-20 -56t-5.5 -45zM360 569q-76 0 -173.5 -25
t-168.5 -60q-13 -9 -14 3q-4 36 76.5 63t157.5 36.5t116 9.5q41 0 82.5 -6t89 -20.5t79 -45.5t35.5 -75q3 -41 -16 -76t-51 -58.5t-76 -42t-85.5 -28.5t-83.5 -15q29 -73 79.5 -151t86.5 -78q21 0 32.5 22.5t13.5 46t0 43.5q0 15 5 15q12 0 21.5 -20.5t9.5 -34.5
q2 -38 -24.5 -68.5t-64.5 -30.5q-31 0 -60 27q-33 32 -83 101.5t-81 123.5q-18 0 -33 4q-31 12 4 19q33 5 68 12t79.5 19t82.5 29t70.5 38t50.5 50t16 61q-3 34 -30.5 58t-68.5 34.5t-75.5 15t-66.5 4.5zM401 678q2 4 5 7q16 14 58 39t54 33q15 6 18 6q5 -1 10 -8.5t5 -13.5
q-2 -12 -11 -17q-10 -8 -68 -29.5t-64 -21.5q-7 0 -7 5z" />
    <glyph glyph-name="racute" unicode="&#x155;" horiz-adv-x="256" 
d="M161 -22q-16 0 -33.5 16.5t-17.5 32.5q0 24 23.5 60.5t47 65.5t23.5 34v2l-6.5 6.5t-7 6.5t-6.5 5t-9 4t-10 1q-16 0 -60 -44l-45 -45q-16 -13 -17 -4q0 5 4 10q13 17 36.5 41.5t39.5 42.5t19 26q19 54 44 75q18 18 41 18t23 -22q0 -13 -18 -30.5t-35 -30.5t-16 -17
q7 -5 24 -10.5t24 -5.5q6 0 15 3t14 3q11 0 20.5 -6.5t9.5 -17.5q0 -16 -23 -33q-36 -27 -79 -73.5t-43 -74.5q0 -2 2 -8q1 -1 4 -1q24 0 58 28t73 71.5t51 53.5q1 1 3 2.5t4.5 2.5t4 1t3 -2t1.5 -5q0 -10 -65.5 -76.5t-94.5 -91.5q-17 -14 -26 -14zM261 381q2 4 5 7
q16 14 58 39t54 33q15 6 18 6q5 -1 10 -8.5t5 -13.5q-2 -12 -11 -17q-10 -8 -68 -29.5t-64 -21.5q-7 0 -7 5z" />
    <glyph glyph-name="uni0156" unicode="&#x156;" horiz-adv-x="554" 
d="M92 -19q0 -17 12 -17q4 0 5.5 -6t-1.5 -11.5t-9 -5.5q-38 0 -40 44q-5 68 62.5 212t133.5 251q45 80 53 89q9 11 36 11t28 -18q1 -14 -11 -28q-18 -29 -56 -87.5t-66 -104.5t-51 -92q-3 -6 -18.5 -34t-27 -50t-25 -52t-20 -56t-5.5 -45zM360 569q-76 0 -173.5 -25
t-168.5 -60q-13 -9 -14 3q-4 36 76.5 63t157.5 36.5t116 9.5q41 0 82.5 -6t89 -20.5t79 -45.5t35.5 -75q3 -41 -16 -76t-51 -58.5t-76 -42t-85.5 -28.5t-83.5 -15q29 -73 79.5 -151t86.5 -78q21 0 32.5 22.5t13.5 46t0 43.5q0 15 5 15q12 0 21.5 -20.5t9.5 -34.5
q2 -38 -24.5 -68.5t-64.5 -30.5q-31 0 -60 27q-33 32 -83 101.5t-81 123.5q-18 0 -33 4q-31 12 4 19q33 5 68 12t79.5 19t82.5 29t70.5 38t50.5 50t16 61q-3 34 -30.5 58t-68.5 34.5t-75.5 15t-66.5 4.5zM277 -62q-11 -46 -54.5 -90t-73.5 -53q-1 0 -1 5t37.5 44.5
t39.5 57.5q0 3 -2.5 8.5t-1.5 10.5q0 14 17.5 31.5t27.5 17.5q17 0 11 -32z" />
    <glyph glyph-name="uni0157" unicode="&#x157;" horiz-adv-x="256" 
d="M161 -22q-16 0 -33.5 16.5t-17.5 32.5q0 24 23.5 60.5t47 65.5t23.5 34v2l-6.5 6.5t-7 6.5t-6.5 5t-9 4t-10 1q-16 0 -60 -44l-45 -45q-16 -13 -17 -4q0 5 4 10q13 17 36.5 41.5t39.5 42.5t19 26q19 54 44 75q18 18 41 18t23 -22q0 -13 -18 -30.5t-35 -30.5t-16 -17
q7 -5 24 -10.5t24 -5.5q6 0 15 3t14 3q11 0 20.5 -6.5t9.5 -17.5q0 -16 -23 -33q-36 -27 -79 -73.5t-43 -74.5q0 -2 2 -8q1 -1 4 -1q24 0 58 28t73 71.5t51 53.5q1 1 3 2.5t4.5 2.5t4 1t3 -2t1.5 -5q0 -10 -65.5 -76.5t-94.5 -91.5q-17 -14 -26 -14zM97 -68
q-11 -46 -54.5 -90t-73.5 -53q-1 0 -1 5t37.5 44.5t39.5 57.5q0 3 -2.5 8.5t-1.5 10.5q0 14 17.5 31.5t27.5 17.5q17 0 11 -32z" />
    <glyph glyph-name="Rcaron" unicode="&#x158;" horiz-adv-x="554" 
d="M92 -19q0 -17 12 -17q4 0 5.5 -6t-1.5 -11.5t-9 -5.5q-38 0 -40 44q-5 68 62.5 212t133.5 251q45 80 53 89q9 11 36 11t28 -18q1 -14 -11 -28q-18 -29 -56 -87.5t-66 -104.5t-51 -92q-3 -6 -18.5 -34t-27 -50t-25 -52t-20 -56t-5.5 -45zM360 569q-76 0 -173.5 -25
t-168.5 -60q-13 -9 -14 3q-4 36 76.5 63t157.5 36.5t116 9.5q41 0 82.5 -6t89 -20.5t79 -45.5t35.5 -75q3 -41 -16 -76t-51 -58.5t-76 -42t-85.5 -28.5t-83.5 -15q29 -73 79.5 -151t86.5 -78q21 0 32.5 22.5t13.5 46t0 43.5q0 15 5 15q12 0 21.5 -20.5t9.5 -34.5
q2 -38 -24.5 -68.5t-64.5 -30.5q-31 0 -60 27q-33 32 -83 101.5t-81 123.5q-18 0 -33 4q-31 12 4 19q33 5 68 12t79.5 19t82.5 29t70.5 38t50.5 50t16 61q-3 34 -30.5 58t-68.5 34.5t-75.5 15t-66.5 4.5zM421 754q-7 16 6 16t38.5 -31.5t29.5 -47.5q98 76 105 80q11 7 14 -2
q2 -5 -7 -12q-3 -2 -58 -52t-62 -52q-15 -7 -20 4q-15 49 -46 97z" />
    <glyph glyph-name="rcaron" unicode="&#x159;" horiz-adv-x="256" 
d="M161 -22q-16 0 -33.5 16.5t-17.5 32.5q0 24 23.5 60.5t47 65.5t23.5 34v2l-6.5 6.5t-7 6.5t-6.5 5t-9 4t-10 1q-16 0 -60 -44l-45 -45q-16 -13 -17 -4q0 5 4 10q13 17 36.5 41.5t39.5 42.5t19 26q19 54 44 75q18 18 41 18t23 -22q0 -13 -18 -30.5t-35 -30.5t-16 -17
q7 -5 24 -10.5t24 -5.5q6 0 15 3t14 3q11 0 20.5 -6.5t9.5 -17.5q0 -16 -23 -33q-36 -27 -79 -73.5t-43 -74.5q0 -2 2 -8q1 -1 4 -1q24 0 58 28t73 71.5t51 53.5q1 1 3 2.5t4.5 2.5t4 1t3 -2t1.5 -5q0 -10 -65.5 -76.5t-94.5 -91.5q-17 -14 -26 -14zM219 474q-7 16 6 16
t38.5 -31.5t29.5 -47.5q98 76 105 80q11 7 14 -2q2 -5 -7 -12q-3 -2 -58 -52t-62 -52q-15 -7 -20 4q-15 49 -46 97z" />
    <glyph glyph-name="Sacute" unicode="&#x15a;" horiz-adv-x="448" 
d="M619 475q-2 -52 -48 -99.5t-98 -67.5q-6 -3 -12 -3q-5 2 -5 5q4 9 36 40.5t60.5 69t29.5 69.5q0 17 -14.5 28.5t-26.5 14.5t-33 7q-60 6 -133.5 -18t-130.5 -76t-59 -115q-1 -32 30.5 -76.5t69.5 -82t69.5 -81t30.5 -72.5q-2 -39 -55 -52.5t-102 -8.5q-30 3 -78.5 24.5
t-48.5 45.5q0 7 10 6q11 -1 33 -9.5t35 -10.5q24 -1 58.5 -2t66 13.5t32.5 41.5q0 14 -29 47.5t-63.5 70t-62.5 90.5t-27 104q1 57 34 100.5t82.5 66t105.5 31.5t107 3q51 -5 94.5 -30.5t41.5 -73.5zM457 657q2 4 5 7q16 14 58 39t54 33q15 6 18 6q5 -1 10 -8.5t5 -13.5
q-2 -12 -11 -17q-10 -8 -68 -29.5t-64 -21.5q-7 0 -7 5z" />
    <glyph glyph-name="sacute" unicode="&#x15b;" horiz-adv-x="318" 
d="M359 275q-51 2 -61 -16q-28 -57 -48 -185q37 7 66 22t70 58q7 10 12 5t-9 -23q-24 -32 -60 -55q-32 -18 -82 -24q-3 -15 -7 -33t-4 -21q-9 -46 -39.5 -53.5t-60.5 18.5q-28 25 -45 73l-77 -84q-7 -7 -8 1.5t6 16.5l74 84q-3 12 -3 23q-1 1 -8 5.5t-11 7.5t-7.5 10
t-3.5 15q0 30 22 53q17 18 20 -2v-2q0 -64 4 -79q4 -3 10 -5q102 118 159 175q43 70 96 61q17 -2 22 -13.5t-3.5 -22t-23.5 -10.5zM245 211q-14 -16 -55.5 -61t-63.5 -70q39 -11 82 -6q23 101 37 137zM204 55q-55 2 -89 13l-8 -9q22 -45 44 -56q7 -4 11 -5.5t10.5 -1t11 5.5
t9.5 17.5t10 31.5q0 3 1 4zM329 405q2 4 5 7q16 14 58 39t54 33q15 6 18 6q5 -1 10 -8.5t5 -13.5q-2 -12 -11 -17q-10 -8 -68 -29.5t-64 -21.5q-7 0 -7 5z" />
    <glyph glyph-name="Scedilla" unicode="&#x15e;" horiz-adv-x="448" 
d="M235 -101q-10 -32 -38.5 -60t-50.5 -35q-1 1 -1 3q0 4 26 30t28 38q1 3 -1 6t-2 7q1 10 12.5 21t19.5 11q11 0 7 -21zM619 475q-2 -52 -48 -99.5t-98 -67.5q-6 -3 -12 -3q-5 2 -5 5q4 9 36 40.5t60.5 69t29.5 69.5q0 17 -14.5 28.5t-26.5 14.5t-33 7q-60 6 -133.5 -18
t-130.5 -76t-59 -115q-1 -32 30.5 -76.5t69.5 -82t69.5 -81t30.5 -72.5q-2 -39 -55 -52.5t-102 -8.5q-30 3 -78.5 24.5t-48.5 45.5q0 7 10 6q11 -1 33 -9.5t35 -10.5q24 -1 58.5 -2t66 13.5t32.5 41.5q0 14 -29 47.5t-63.5 70t-62.5 90.5t-27 104q1 57 34 100.5t82.5 66
t105.5 31.5t107 3q51 -5 94.5 -30.5t41.5 -73.5z" />
    <glyph glyph-name="scedilla" unicode="&#x15f;" horiz-adv-x="277" 
d="M210 79q-12 -4 -47 -14t-61 -20.5t-44 -24.5q-13 -10 -19.5 -24t14.5 -18q28 0 83.5 37.5t73.5 63.5zM319 95q0 -6 -9 -6q-3 0 -15 5t-23 5q-17 -48 -79.5 -89.5t-119.5 -55.5q-22 -5 -48 4t-26 33q0 46 217 107q2 8 2 9q0 12 -14 24t-31 20.5t-31 20.5t-14 24
q0 43 50.5 78t96.5 35q32 0 42 -21t-1.5 -42t-32.5 -21q-4 0 -5 1q-1 0 -3 2q1 2 4.5 10t6 16t4.5 16t-0.5 13t-9.5 5q-35 0 -68.5 -28.5t-33.5 -52.5q0 -16 14.5 -27t32 -16.5t33 -18t17.5 -31.5q44 0 44 -19zM71 -101q-10 -32 -38.5 -60t-50.5 -35q-1 1 -1 3q0 4 26 30
t28 38q1 3 -1 6t-2 7q1 10 12.5 21t19.5 11q11 0 7 -21z" />
    <glyph glyph-name="Scaron" unicode="&#x160;" horiz-adv-x="349" 
d="M520 475q-2 -52 -48 -99.5t-98 -67.5q-6 -3 -12 -3q-5 2 -5 5q4 9 36 40.5t60.5 69t29.5 69.5q0 17 -14.5 28.5t-26.5 14.5t-33 7q-60 6 -133.5 -18t-130.5 -76t-59 -115q-1 -32 30.5 -76.5t69.5 -82t69.5 -81t30.5 -72.5q-2 -39 -55 -52.5t-102 -8.5q-30 3 -78.5 24.5
t-48.5 45.5q0 7 10 6q11 -1 33 -9.5t35 -10.5q24 -1 58.5 -2t66 13.5t32.5 41.5q0 14 -29 47.5t-63.5 70t-62.5 90.5t-27 104q1 57 34 100.5t82.5 66t105.5 31.5t107 3q51 -5 94.5 -30.5t41.5 -73.5zM318 746q-7 16 6 16t38.5 -31.5t29.5 -47.5q98 76 105 80q11 7 14 -2
q2 -5 -7 -12q-3 -2 -58 -52t-62 -52q-15 -7 -20 4q-15 49 -46 97z" />
    <glyph glyph-name="scaron" unicode="&#x161;" horiz-adv-x="277" 
d="M333 275q-51 2 -61 -16q-28 -57 -48 -185q37 7 66 22t70 58q7 10 12 5t-9 -23q-24 -32 -60 -55q-32 -18 -82 -24q-3 -15 -7 -33t-4 -21q-9 -46 -39.5 -53.5t-60.5 18.5q-28 25 -45 73l-77 -84q-7 -7 -8 1.5t6 16.5l74 84q-3 12 -3 23q-1 1 -8 5.5t-11 7.5t-7.5 10
t-3.5 15q0 30 22 53q17 18 20 -2v-2q0 -64 4 -79q4 -3 10 -5q102 118 159 175q43 70 96 61q17 -2 22 -13.5t-3.5 -22t-23.5 -10.5zM219 211q-14 -16 -55.5 -61t-63.5 -70q39 -11 82 -6q23 101 37 137zM178 55q-55 2 -89 13l-8 -9q22 -45 44 -56q7 -4 11 -5.5t10.5 -1t11 5.5
t9.5 17.5t10 31.5q0 3 1 4zM228 483q-7 16 6 16t38.5 -31.5t29.5 -47.5q98 76 105 80q11 7 14 -2q2 -5 -7 -12q-11 -11 -62 -56t-58 -48q-15 -7 -20 4q-15 49 -46 97z" />
    <glyph glyph-name="uni0162" unicode="&#x162;" horiz-adv-x="390" 
d="M93 -142q-10 -32 -38.5 -60t-50.5 -35q-1 1 -1 3q0 4 26 30t28 38q1 2 -1 6t-2 7q1 10 12.5 21t19.5 11q11 0 7 -21zM751 545q0 -8 -26 -8q-18 0 -52 6q-56 9 -171 9q-188 0 -306 -14q-4 -14 -62 -28.5t-82 -14.5q-37 0 -37 36q0 19 42.5 32t111 17.5t104.5 5.5t71 1h49
h55.5t49.5 -0.5t56 -2t49 -3.5t55 -5.5t49 -8.5l7 -1q7 -2 12 -4t11.5 -4.5t10 -5.5t3.5 -7zM126 -35q2 -17 12 -17q4 0 5.5 -6t-1.5 -11.5t-9 -5.5q-35 0 -40 44q-8 105 196 463q45 80 53 89q9 11 36 11q28 0 29 -17q0 -11 -11 -29q-19 -31 -56.5 -88.5t-66 -103.5
t-51.5 -92q-1 -2 -18.5 -33.5t-27.5 -51.5t-24 -51t-20.5 -56.5t-5.5 -44.5z" />
    <glyph glyph-name="uni0163" unicode="&#x163;" horiz-adv-x="201" 
d="M82 -104q4 21 -7 21q-8 0 -19.5 -11t-12.5 -21q0 -3 1.5 -7t1.5 -6q-2 -12 -28 -38t-26 -30q0 -2 1 -3q22 7 50.5 35t38.5 60zM396 524q9 6 20 -5t12 -24q0 -10 -8 -15q-61 -37 -144 -128q34 5 54 5h7t9.5 0.5t11 0.5t11.5 -0.5t9.5 -1.5t7 -3t2.5 -4q0 -11 -42 -11
q-63 -8 -97 -18q-21 -25 -34 -44t-24.5 -40t-18.5 -32q-63 -122 -63 -186q0 -11 7 -11q6 0 21 11q9 7 17.5 15.5t18.5 20.5t15 17q29 32 90 93q5 5 8 5q7 0 7 -8q0 -4 -4 -9q-9 -13 -28.5 -35t-24.5 -28q-75 -88 -102 -123q-10 -2 -12 -2q-26 0 -41 24t-15 51q0 29 15 62
q65 135 115 206q-9 -3 -25.5 -9.5t-28 -10.5t-15.5 -4q-7 1 -7 13q-1 24 20 31q32 11 83 18q101 132 173 179z" />
    <glyph glyph-name="Tcaron" unicode="&#x164;" horiz-adv-x="390" 
d="M751 545q0 -8 -26 -8q-18 0 -52 6q-56 9 -171 9q-188 0 -306 -14q-4 -14 -62 -28.5t-82 -14.5q-37 0 -37 36q0 19 42.5 32t111 17.5t104.5 5.5t71 1h49h55.5t49.5 -0.5t56 -2t49 -3.5t55 -5.5t49 -8.5l7 -1q7 -2 12 -4t11.5 -4.5t10 -5.5t3.5 -7zM126 -35q2 -17 12 -17
q4 0 5.5 -6t-1.5 -11.5t-9 -5.5q-35 0 -40 44q-8 105 196 463q45 80 53 89q9 11 36 11q28 0 29 -17q0 -11 -11 -29q-19 -31 -56.5 -88.5t-66 -103.5t-51.5 -92q-1 -2 -18.5 -33.5t-27.5 -51.5t-24 -51t-20.5 -56.5t-5.5 -44.5zM366 755q-7 16 6 16t38.5 -31.5t29.5 -47.5
q98 76 105 80q11 7 14 -2q2 -5 -7 -12q-3 -2 -58 -52t-62 -52q-15 -7 -20 4q-15 49 -46 97z" />
    <glyph glyph-name="tcaron" unicode="&#x165;" horiz-adv-x="391" 
d="M396 524q9 6 20 -5t12 -24q0 -10 -8 -15q-61 -37 -144 -128q34 5 54 5h7t9.5 0.5t11 0.5t11.5 -0.5t9.5 -1.5t7 -3t2.5 -4q0 -11 -42 -11q-63 -8 -97 -18q-21 -25 -34 -44t-24.5 -40t-18.5 -32q-63 -122 -63 -186q0 -11 7 -11q6 0 21 11q9 7 17.5 15.5t18.5 20.5t15 17
q29 32 90 93q5 5 8 5q7 0 7 -8q0 -4 -4 -9q-9 -13 -28.5 -35t-24.5 -28q-75 -88 -102 -123q-10 -2 -12 -2q-26 0 -41 24t-15 51q0 29 15 62q65 135 115 206q-9 -3 -25.5 -9.5t-28 -10.5t-15.5 -4q-7 1 -7 13q-1 24 20 31q32 11 83 18q101 132 173 179zM582 518
q-11 -46 -54.5 -90t-73.5 -53q-1 0 -1 5t37.5 44.5t39.5 57.5q0 3 -2.5 8.5t-1.5 10.5q0 14 17.5 31.5t27.5 17.5q17 0 11 -32z" />
    <glyph glyph-name="Umacron" unicode="&#x16a;" horiz-adv-x="492" 
d="M478 -57q2 -3 -1.5 -5.5t-7.5 -2.5q-19 0 -33 20t-20.5 50t-9 54.5t-2.5 42.5q0 45 9 115q-41 -46 -86 -89.5t-110 -87t-109 -43.5q-41 0 -63.5 27.5t-22.5 70.5q0 60 58 198.5t103 206.5q4 5 18 28t20 30t21 16t33 9q12 0 19.5 -2t9.5 -6.5t1.5 -9t-5 -11.5t-8 -12
t-10 -12.5t-9.5 -11.5q-40 -57 -64 -94t-64.5 -105.5t-62 -128.5t-21.5 -106q0 -56 40 -56q49 0 102.5 33t97 80.5t87.5 111.5t72 112.5t52 97.5q5 10 24 52.5t32 61.5q14 19 41 19q13 0 27.5 -5t14.5 -15q0 -3 -12.5 -23t-36.5 -60t-44 -78q-78 -152 -99 -276t19 -196z
M532 688h-129q-15 0 -14 7q2 11 27 19q9 3 18 3h112q35 0 35 -12q0 -17 -49 -17z" />
    <glyph glyph-name="umacron" unicode="&#x16b;" 
d="M275 -17q-22 0 -43 17.5t-21 38.5q0 42 33 96q-14 -15 -39.5 -41.5t-46 -49t-38.5 -42.5q-10 -12 -24 -12q-18 0 -35 19.5t-17 38.5q0 6 1 8q14 40 36 73q11 18 49 72q10 11 18 26q4 8 2 24q29 38 60 38q8 0 24 -5.5t16 -10.5q0 -4 -4 -8q-2 -2 -10 -9t-12 -12
q-44 -44 -84 -100q-1 -2 -10 -14t-14 -20l-12.5 -20t-11 -21.5t-3.5 -15.5q0 -10 9 -10q23 0 85 60.5t97 102.5q26 31 41 56q21 31 45 31q33 0 33 -14q0 -7 -8 -15q-82 -88 -112 -153q-21 -38 -21 -81q0 -28 31 -11q10 6 31.5 26.5t38.5 39.5t41.5 47t28.5 32q5 5 8 5
q7 0 7 -8q0 -3 -6 -11q-25 -28 -67.5 -79.5t-55.5 -66.5q-19 -21 -40 -21zM389 403h-129q-15 0 -14 7q2 11 27 19q9 3 18 3h112q35 0 35 -12q0 -17 -49 -17z" />
    <glyph glyph-name="Uring" unicode="&#x16e;" horiz-adv-x="492" 
d="M478 -57q2 -3 -1.5 -5.5t-7.5 -2.5q-19 0 -33 20t-20.5 50t-9 54.5t-2.5 42.5q0 45 9 115q-41 -46 -86 -89.5t-110 -87t-109 -43.5q-41 0 -63.5 27.5t-22.5 70.5q0 60 58 198.5t103 206.5q4 5 18 28t20 30t21 16t33 9q12 0 19.5 -2t9.5 -6.5t1.5 -9t-5 -11.5t-8 -12
t-10 -12.5t-9.5 -11.5q-40 -57 -64 -94t-64.5 -105.5t-62 -128.5t-21.5 -106q0 -56 40 -56q49 0 102.5 33t97 80.5t87.5 111.5t72 112.5t52 97.5q5 10 24 52.5t32 61.5q14 19 41 19q13 0 27.5 -5t14.5 -15q0 -3 -12.5 -23t-36.5 -60t-44 -78q-78 -152 -99 -276t19 -196z
M554 763q0 -36 -28 -65t-64 -29q-41 0 -45 40q-3 41 31 77q28 29 63 29q19 0 31 -16t12 -36zM528 762q0 36 -22 36q-28 0 -45 -43q-17 -42 -2 -60q4 -6 12 -6q30 0 43.5 22.5t13.5 50.5z" />
    <glyph glyph-name="uring" unicode="&#x16f;" 
d="M275 -17q-22 0 -43 17.5t-21 38.5q0 42 33 96q-14 -15 -39.5 -41.5t-46 -49t-38.5 -42.5q-10 -12 -24 -12q-18 0 -35 19.5t-17 38.5q0 6 1 8q14 40 36 73q11 18 49 72q10 11 18 26q4 8 2 24q29 38 60 38q8 0 24 -5.5t16 -10.5q0 -4 -4 -8q-2 -2 -10 -9t-12 -12
q-44 -44 -84 -100q-1 -2 -10 -14t-14 -20l-12.5 -20t-11 -21.5t-3.5 -15.5q0 -10 9 -10q23 0 85 60.5t97 102.5q26 31 41 56q21 31 45 31q33 0 33 -14q0 -7 -8 -15q-82 -88 -112 -153q-21 -38 -21 -81q0 -28 31 -11q10 6 31.5 26.5t38.5 39.5t41.5 47t28.5 32q5 5 8 5
q7 0 7 -8q0 -3 -6 -11q-25 -28 -67.5 -79.5t-55.5 -66.5q-19 -21 -40 -21zM421 467q0 -36 -28 -65t-64 -29q-41 0 -45 40q-3 41 31 77q28 29 63 29q19 0 31 -16t12 -36zM395 466q0 36 -22 36q-28 0 -45 -43q-17 -42 -2 -60q4 -6 12 -6q30 0 43.5 22.5t13.5 50.5z" />
    <glyph glyph-name="Uhungarumlaut" unicode="&#x170;" horiz-adv-x="492" 
d="M478 -57q2 -3 -1.5 -5.5t-7.5 -2.5q-19 0 -33 20t-20.5 50t-9 54.5t-2.5 42.5q0 45 9 115q-41 -46 -86 -89.5t-110 -87t-109 -43.5q-41 0 -63.5 27.5t-22.5 70.5q0 60 58 198.5t103 206.5q4 5 18 28t20 30t21 16t33 9q12 0 19.5 -2t9.5 -6.5t1.5 -9t-5 -11.5t-8 -12
t-10 -12.5t-9.5 -11.5q-40 -57 -64 -94t-64.5 -105.5t-62 -128.5t-21.5 -106q0 -56 40 -56q49 0 102.5 33t97 80.5t87.5 111.5t72 112.5t52 97.5q5 10 24 52.5t32 61.5q14 19 41 19q13 0 27.5 -5t14.5 -15q0 -3 -12.5 -23t-36.5 -60t-44 -78q-78 -152 -99 -276t19 -196z
M400 647q-4 -5 -9 0q-5 11 -3 34t7 57t5 37q5 13 6 13q8 6 18 -4q12 -16 10 -27q0 -7 -15 -57.5t-19 -52.5zM492 647q-4 -5 -9 0q-5 11 -3 34t7 57t5 37q5 12 7 13q7 6 17 -4q12 -17 11 -27q0 -8 -15.5 -58t-19.5 -52z" />
    <glyph glyph-name="uhungarumlaut" unicode="&#x171;" 
d="M275 -17q-22 0 -43 17.5t-21 38.5q0 42 33 96q-14 -15 -39.5 -41.5t-46 -49t-38.5 -42.5q-10 -12 -24 -12q-18 0 -35 19.5t-17 38.5q0 6 1 8q14 40 36 73q11 18 49 72q10 11 18 26q4 8 2 24q29 38 60 38q8 0 24 -5.5t16 -10.5q0 -4 -4 -8q-2 -2 -10 -9t-12 -12
q-44 -44 -84 -100q-1 -2 -10 -14t-14 -20l-12.5 -20t-11 -21.5t-3.5 -15.5q0 -10 9 -10q23 0 85 60.5t97 102.5q26 31 41 56q21 31 45 31q33 0 33 -14q0 -7 -8 -15q-82 -88 -112 -153q-21 -38 -21 -81q0 -28 31 -11q10 6 31.5 26.5t38.5 39.5t41.5 47t28.5 32q5 5 8 5
q7 0 7 -8q0 -3 -6 -11q-25 -28 -67.5 -79.5t-55.5 -66.5q-19 -21 -40 -21zM257 386q-5 -4 -9 0q-5 11 -3 34t7 57t5 37q5 13 6 13q8 6 18 -4q12 -16 10 -27q0 -7 -15 -57.5t-19 -52.5zM349 386q-5 -4 -9 0q-5 11 -3 34t7 57t5 37q5 12 7 13q7 6 17 -4q12 -17 11 -27
q0 -8 -15.5 -58t-19.5 -52z" />
    <glyph glyph-name="Uogonek" unicode="&#x172;" horiz-adv-x="492" 
d="M478 -57q2 -3 -1.5 -5.5t-7.5 -2.5q-19 0 -33 20t-20.5 50t-9 54.5t-2.5 42.5q0 45 9 115q-41 -46 -86 -89.5t-110 -87t-109 -43.5q-41 0 -63.5 27.5t-22.5 70.5q0 60 58 198.5t103 206.5q4 5 18 28t20 30t21 16t33 9q12 0 19.5 -2t9.5 -6.5t1.5 -9t-5 -11.5t-8 -12
t-10 -12.5t-9.5 -11.5q-40 -57 -64 -94t-64.5 -105.5t-62 -128.5t-21.5 -106q0 -56 40 -56q49 0 102.5 33t97 80.5t87.5 111.5t72 112.5t52 97.5q5 10 24 52.5t32 61.5q14 19 41 19q13 0 27.5 -5t14.5 -15q0 -3 -12.5 -23t-36.5 -60t-44 -78q-78 -152 -99 -276t19 -196z
M561 -170q0 -14 -44 -28t-64 -14q-23 0 -39 10t-16 32q0 25 21 71.5t42 46.5l3 -3q-34 -48 -34 -88q0 -20 12.5 -30.5t32.5 -10.5q17 0 45.5 11.5t29.5 11.5q11 0 11 -9z" />
    <glyph glyph-name="uogonek" unicode="&#x173;" 
d="M275 -17q-22 0 -43 17.5t-21 38.5q0 42 33 96q-14 -15 -39.5 -41.5t-46 -49t-38.5 -42.5q-10 -12 -24 -12q-18 0 -35 19.5t-17 38.5q0 6 1 8q14 40 36 73q11 18 49 72q10 11 18 26q4 8 2 24q29 38 60 38q8 0 24 -5.5t16 -10.5q0 -4 -4 -8q-2 -2 -10 -9t-12 -12
q-44 -44 -84 -100q-1 -2 -10 -14t-14 -20l-12.5 -20t-11 -21.5t-3.5 -15.5q0 -10 9 -10q23 0 85 60.5t97 102.5q26 31 41 56q21 31 45 31q33 0 33 -14q0 -7 -8 -15q-82 -88 -112 -153q-21 -38 -21 -81q0 -28 31 -11q10 6 31.5 26.5t38.5 39.5t41.5 47t28.5 32q5 5 8 5
q7 0 7 -8q0 -3 -6 -11q-25 -28 -67.5 -79.5t-55.5 -66.5q-19 -21 -40 -21zM369 -116q0 -14 -44.5 -28t-63.5 -14q-23 0 -39 10t-16 32q0 25 21 71.5t42 46.5l3 -3q-34 -48 -34 -88q0 -20 12.5 -30.5t32.5 -10.5q17 0 45.5 11.5t29.5 11.5q11 0 11 -9z" />
    <glyph glyph-name="Ydieresis" unicode="&#x178;" horiz-adv-x="336" 
d="M171 -7q0 -20 2.5 -23t18.5 -3q14 0 9 -12q-7 -15 -23 -12q-41 5 -41 46q0 30 24.5 86t49 100t24.5 45q0 4 -2 10.5t-2 10.5q0 3 6.5 17t6.5 23q0 74 -72 174q-3 -29 -7 -30q-4 0 -22 33q-33 60 -73 88q-9 8 -9 14q0 14 13.5 22.5t27.5 8.5q39 0 81.5 -64.5t68.5 -137.5
t28 -112q14 17 64.5 79t85.5 100.5t72 72.5q2 18 32.5 44.5t48.5 26.5q14 0 26 -12.5t12 -26.5q0 -10 -10 -17q-69 -49 -168 -146.5t-185.5 -216.5t-86.5 -188zM361 721q0 -9 -15 -30t-23 -21q-35 0 -35 22q0 13 18.5 33t32.5 20q9 0 16 -7.5t6 -16.5zM481 721q0 -9 -15 -30
t-23 -21q-35 0 -35 22q0 13 18.5 33t32.5 20q9 0 16 -7.5t6 -16.5z" />
    <glyph glyph-name="Zacute" unicode="&#x179;" horiz-adv-x="649" 
d="M116 72l13 1q65 3 197.5 -23t191.5 -26q23 0 43 4t38.5 17.5t18.5 36.5q0 28 -23.5 55t-47 44.5t-23.5 21.5q0 7 12 7q46 0 85 -35t39 -81q0 -48 -38 -73t-88 -25q-62 0 -188.5 10.5t-190.5 10.5q-62 0 -81 -8q-26 -12 -34 -12q-18 0 -29 18q-2 6 -2.5 11t5.5 13.5
t11.5 15t16.5 16t19 16t20.5 16t21 15t19 13t15.5 11.5q55 41 119 92t104.5 84.5t118 98.5t107.5 90q-15 15 -98.5 23.5t-131.5 8.5q-135 0 -208 -40q-39 -21 -38 -5q1 5 7 15q27 44 106.5 64.5t149.5 20.5q54 0 139 -6t115 -17q39 -19 39 -56q0 -12 -6 -16q-8 -6 -76.5 -52
t-103.5 -74q-64 -49 -185.5 -152.5t-178.5 -148.5zM407 670q2 4 5 7q16 14 58 39t54 33q15 6 18 6q5 -1 10 -8.5t5 -13.5q-2 -12 -11 -17q-10 -8 -68 -29.5t-64 -21.5q-7 0 -7 5z" />
    <glyph glyph-name="zacute" unicode="&#x17a;" horiz-adv-x="313" 
d="M316 57q-10 -45 -46 -74q-25 -20 -27 -4v5q21 25 21 46q0 16 -20.5 19t-51 -3.5t-51.5 -12.5t-35 -11q-4 -2 -11.5 -9t-11.5 -9q-16 -9 -33 -9q-26 0 -26 23q0 10 8 18q13 14 134.5 106t132.5 120q-4 7 -29 7q-26 0 -58 -9.5t-43 -25.5q-6 -6 -13 -6q-9 1 -18 8t-10 16
q-2 24 49 33t98 9q86 3 100 -22q7 -14 -17 -32q-44 -35 -150 -107t-142 -99q24 12 102.5 28t107.5 16q17 0 29.5 -6t10.5 -15zM258 373q2 4 5 7q16 14 58 39t54 33q15 6 18 6q5 -1 10 -8.5t5 -13.5q-2 -12 -11 -17q-10 -8 -68 -29.5t-64 -21.5q-7 0 -7 5z" />
    <glyph glyph-name="Zdotaccent" unicode="&#x17b;" horiz-adv-x="649" 
d="M116 72l13 1q65 3 197.5 -23t191.5 -26q23 0 43 4t38.5 17.5t18.5 36.5q0 28 -23.5 55t-47 44.5t-23.5 21.5q0 7 12 7q46 0 85 -35t39 -81q0 -48 -38 -73t-88 -25q-62 0 -188.5 10.5t-190.5 10.5q-62 0 -81 -8q-26 -12 -34 -12q-18 0 -29 18q-2 6 -2.5 11t5.5 13.5
t11.5 15t16.5 16t19 16t20.5 16t21 15t19 13t15.5 11.5q55 41 119 92t104.5 84.5t118 98.5t107.5 90q-15 15 -98.5 23.5t-131.5 8.5q-135 0 -208 -40q-39 -21 -38 -5q1 5 7 15q27 44 106.5 64.5t149.5 20.5q54 0 139 -6t115 -17q39 -19 39 -56q0 -12 -6 -16q-8 -6 -76.5 -52
t-103.5 -74q-64 -49 -185.5 -152.5t-178.5 -148.5zM501 733q0 -9 -15 -30t-23 -21q-35 0 -35 22q0 13 18.5 33t32.5 20q9 0 16 -7.5t6 -16.5z" />
    <glyph glyph-name="zdotaccent" unicode="&#x17c;" horiz-adv-x="313" 
d="M316 57q-10 -45 -46 -74q-25 -20 -27 -4v5q21 25 21 46q0 16 -20.5 19t-51 -3.5t-51.5 -12.5t-35 -11q-4 -2 -11.5 -9t-11.5 -9q-16 -9 -33 -9q-26 0 -26 23q0 10 8 18q13 14 134.5 106t132.5 120q-4 7 -29 7q-26 0 -58 -9.5t-43 -25.5q-6 -6 -13 -6q-9 1 -18 8t-10 16
q-2 24 49 33t98 9q86 3 100 -22q7 -14 -17 -32q-44 -35 -150 -107t-142 -99q24 12 102.5 28t107.5 16q17 0 29.5 -6t10.5 -15zM343 435q0 -9 -15 -30t-23 -21q-35 0 -35 22q0 13 18.5 33t32.5 20q9 0 16 -7.5t6 -16.5z" />
    <glyph glyph-name="Zcaron" unicode="&#x17d;" horiz-adv-x="649" 
d="M116 72l13 1q65 3 197.5 -23t191.5 -26q23 0 43 4t38.5 17.5t18.5 36.5q0 28 -23.5 55t-47 44.5t-23.5 21.5q0 7 12 7q46 0 85 -35t39 -81q0 -48 -38 -73t-88 -25q-62 0 -188.5 10.5t-190.5 10.5q-62 0 -81 -8q-26 -12 -34 -12q-18 0 -29 18q-2 6 -2.5 11t5.5 13.5
t11.5 15t16.5 16t19 16t20.5 16t21 15t19 13t15.5 11.5q55 41 119 92t104.5 84.5t118 98.5t107.5 90q-15 15 -98.5 23.5t-131.5 8.5q-135 0 -208 -40q-39 -21 -38 -5q1 5 7 15q27 44 106.5 64.5t149.5 20.5q54 0 139 -6t115 -17q39 -19 39 -56q0 -12 -6 -16q-8 -6 -76.5 -52
t-103.5 -74q-64 -49 -185.5 -152.5t-178.5 -148.5zM395 757q-7 16 6 16t38.5 -31.5t29.5 -47.5q98 76 105 80q11 7 14 -2q2 -5 -7 -12q-3 -2 -58 -52t-62 -52q-15 -7 -20 4q-15 49 -46 97z" />
    <glyph glyph-name="zcaron" unicode="&#x17e;" horiz-adv-x="313" 
d="M316 57q-10 -45 -46 -74q-25 -20 -27 -4v5q21 25 21 46q0 16 -20.5 19t-51 -3.5t-51.5 -12.5t-35 -11q-4 -2 -11.5 -9t-11.5 -9q-16 -9 -33 -9q-26 0 -26 23q0 10 8 18q13 14 134.5 106t132.5 120q-4 7 -29 7q-26 0 -58 -9.5t-43 -25.5q-6 -6 -13 -6q-9 1 -18 8t-10 16
q-2 24 49 33t98 9q86 3 100 -22q7 -14 -17 -32q-44 -35 -150 -107t-142 -99q24 12 102.5 28t107.5 16q17 0 29.5 -6t10.5 -15zM226 457q-7 16 6 16t38.5 -31.5t29.5 -47.5q98 76 105 80q11 7 14 -2q2 -5 -7 -12q-3 -2 -58 -52t-62 -52q-15 -7 -20 4q-15 49 -46 97z" />
    <glyph glyph-name="florin" unicode="&#x192;" horiz-adv-x="312" 
d="M227 215h-25q-117 -192 -140 -228q0 -1 -8 -12.5t-14.5 -21t-19 -26.5t-24 -31t-28 -32t-32 -32t-34.5 -28t-37.5 -23.5t-40 -15.5t-41.5 -6q-23 0 -43 13.5t-25 31.5q-3 14 -2 23t4.5 13.5t7.5 2.5q9 -5 16.5 -19.5t22.5 -24t49 -9.5q31 0 64.5 25t67.5 72t58 85t56 96
t41 73q20 41 40 74h-78q-20 0 -11 12q15 16 43 17h63q38 64 77 118.5t88.5 111.5t99.5 81.5t90 6.5q39 -17 29 -51q-4 -16 -17.5 -31t-32.5 -20q-18 -4 -6 13q4 5 11 14q29 36 13 53q-18 20 -67 -14q-24 -17 -51 -47q-78 -87 -171 -235h29q62 0 62 -12q0 -17 -84 -17z" />
    <glyph glyph-name="uni0218" unicode="&#x218;" horiz-adv-x="448" 
d="M235 -101q-10 -32 -38.5 -60t-50.5 -35q-1 1 -1 3q0 4 26 30t28 38q1 3 -1 6t-2 7q1 10 12.5 21t19.5 11q11 0 7 -21zM619 475q-2 -52 -48 -99.5t-98 -67.5q-6 -3 -12 -3q-5 2 -5 5q4 9 36 40.5t60.5 69t29.5 69.5q0 17 -14.5 28.5t-26.5 14.5t-33 7q-60 6 -133.5 -18
t-130.5 -76t-59 -115q-1 -32 30.5 -76.5t69.5 -82t69.5 -81t30.5 -72.5q-2 -39 -55 -52.5t-102 -8.5q-30 3 -78.5 24.5t-48.5 45.5q0 7 10 6q11 -1 33 -9.5t35 -10.5q24 -1 58.5 -2t66 13.5t32.5 41.5q0 14 -29 47.5t-63.5 70t-62.5 90.5t-27 104q1 57 34 100.5t82.5 66
t105.5 31.5t107 3q51 -5 94.5 -30.5t41.5 -73.5z" />
    <glyph glyph-name="uni0219" unicode="&#x219;" horiz-adv-x="277" 
d="M210 79q-12 -4 -47 -14t-61 -20.5t-44 -24.5q-13 -10 -19.5 -24t14.5 -18q28 0 83.5 37.5t73.5 63.5zM319 95q0 -6 -9 -6q-3 0 -15 5t-23 5q-17 -48 -79.5 -89.5t-119.5 -55.5q-22 -5 -48 4t-26 33q0 46 217 107q2 8 2 9q0 12 -14 24t-31 20.5t-31 20.5t-14 24
q0 43 50.5 78t96.5 35q32 0 42 -21t-1.5 -42t-32.5 -21q-4 0 -5 1q-1 0 -3 2q1 2 4.5 10t6 16t4.5 16t-0.5 13t-9.5 5q-35 0 -68.5 -28.5t-33.5 -52.5q0 -16 14.5 -27t32 -16.5t33 -18t17.5 -31.5q44 0 44 -19zM71 -101q-10 -32 -38.5 -60t-50.5 -35q-1 1 -1 3q0 4 26 30
t28 38q1 3 -1 6t-2 7q1 10 12.5 21t19.5 11q11 0 7 -21z" />
    <glyph glyph-name="uni021A" unicode="&#x21a;" horiz-adv-x="390" 
d="M93 -142q-10 -32 -38.5 -60t-50.5 -35q-1 1 -1 3q0 4 26 30t28 38q1 2 -1 6t-2 7q1 10 12.5 21t19.5 11q11 0 7 -21zM751 545q0 -8 -26 -8q-18 0 -52 6q-56 9 -171 9q-188 0 -306 -14q-4 -14 -62 -28.5t-82 -14.5q-37 0 -37 36q0 19 42.5 32t111 17.5t104.5 5.5t71 1h49
h55.5t49.5 -0.5t56 -2t49 -3.5t55 -5.5t49 -8.5l7 -1q7 -2 12 -4t11.5 -4.5t10 -5.5t3.5 -7zM126 -35q2 -17 12 -17q4 0 5.5 -6t-1.5 -11.5t-9 -5.5q-35 0 -40 44q-8 105 196 463q45 80 53 89q9 11 36 11q28 0 29 -17q0 -11 -11 -29q-19 -31 -56.5 -88.5t-66 -103.5
t-51.5 -92q-1 -2 -18.5 -33.5t-27.5 -51.5t-24 -51t-20.5 -56.5t-5.5 -44.5z" />
    <glyph glyph-name="uni021B" unicode="&#x21b;" horiz-adv-x="201" 
d="M82 -104q4 21 -7 21q-8 0 -19.5 -11t-12.5 -21q0 -3 1.5 -7t1.5 -6q-2 -12 -28 -38t-26 -30q0 -2 1 -3q22 7 50.5 35t38.5 60zM396 524q9 6 20 -5t12 -24q0 -10 -8 -15q-61 -37 -144 -128q34 5 54 5h7t9.5 0.5t11 0.5t11.5 -0.5t9.5 -1.5t7 -3t2.5 -4q0 -11 -42 -11
q-63 -8 -97 -18q-21 -25 -34 -44t-24.5 -40t-18.5 -32q-63 -122 -63 -186q0 -11 7 -11q6 0 21 11q9 7 17.5 15.5t18.5 20.5t15 17q29 32 90 93q5 5 8 5q7 0 7 -8q0 -4 -4 -9q-9 -13 -28.5 -35t-24.5 -28q-75 -88 -102 -123q-10 -2 -12 -2q-26 0 -41 24t-15 51q0 29 15 62
q65 135 115 206q-9 -3 -25.5 -9.5t-28 -10.5t-15.5 -4q-7 1 -7 13q-1 24 20 31q32 11 83 18q101 132 173 179z" />
    <glyph glyph-name="circumflex" unicode="&#x2c6;" horiz-adv-x="370" 
d="M288 395q7 -16 -6 -16q-12 0 -38 31.5t-30 47.5q-58 -49 -105 -80q-11 -7 -14 2q-2 5 7 12q2 2 57 51.5t63 52.5q15 7 20 -4q15 -49 46 -97z" />
    <glyph glyph-name="caron" unicode="&#x2c7;" horiz-adv-x="370" 
d="M111 456q-7 16 6 16t38.5 -31.5t29.5 -47.5q98 76 105 80q11 7 14 -2q2 -5 -7 -12q-3 -2 -58 -52t-62 -52q-15 -7 -20 4q-15 49 -46 97z" />
    <glyph glyph-name="breve" unicode="&#x2d8;" horiz-adv-x="184" 
d="M124 362q-66 0 -86 59q-4 7 -1 20.5t16 13.5q4 0 9.5 -15.5t21 -30.5t42.5 -15q29 0 52 16.5t30 42.5q3 6 9 6t7 -9q-6 -35 -35 -61.5t-65 -26.5z" />
    <glyph glyph-name="dotaccent" unicode="&#x2d9;" horiz-adv-x="173" 
d="M126 539q0 -9 -15 -30t-23 -21q-35 0 -35 22q0 13 18.5 33t32.5 20q9 0 16 -7.5t6 -16.5z" />
    <glyph glyph-name="ring" unicode="&#x2da;" horiz-adv-x="229" 
d="M176 527q0 -36 -28 -65t-64 -29q-41 0 -45 40q-3 41 31 77q28 29 63 29q19 0 31 -16t12 -36zM150 526q0 36 -22 36q-28 0 -45 -43q-17 -42 -2 -60q4 -6 12 -6q30 0 43.5 22.5t13.5 50.5z" />
    <glyph glyph-name="ogonek" unicode="&#x2db;" horiz-adv-x="234" 
d="M201 -110q0 -14 -44.5 -28t-63.5 -14q-23 0 -39 10t-16 32q0 25 21 71.5t42 46.5l3 -3q-34 -48 -34 -88q0 -20 12.5 -30.5t32.5 -10.5q17 0 45.5 11.5t29.5 11.5q11 0 11 -9z" />
    <glyph glyph-name="tilde" unicode="&#x2dc;" horiz-adv-x="272" 
d="M245 491q8 11 15 3q2 -2 1 -6q-19 -52 -62 -58q-17 -1 -48.5 13.5t-52.5 14.5q-34 0 -60 -33q-9 -11 -13 -6t-1 16q3 20 25 42.5t55 22.5q16 0 49.5 -15t49.5 -15q24 0 42 21z" />
    <glyph glyph-name="hungarumlaut" unicode="&#x2dd;" horiz-adv-x="387" 
d="M153 467q-5 -5 -9 0q-5 11 -3 34t7 57t5 37q5 13 6 13q8 6 18 -4q12 -16 10 -27q0 -7 -15 -57.5t-19 -52.5zM245 467q-5 -5 -9 0q-5 11 -3 34t7 57t5 37q5 12 7 13q7 6 17 -4q12 -17 11 -27q0 -8 -15.5 -58t-19.5 -52z" />
    <glyph glyph-name="uni03A9" unicode="&#x3a9;" horiz-adv-x="653" 
d="M211 5h-1l-157 -4q-22 0 -21 14q1 13 17 18q4 1 8 1q5 0 32 1t46 1t42 -1q-24 76 4 159.5t86 146t132.5 103.5t138.5 41q118 0 73 -134q-29 -84 -94 -169q-8 -9 -13 -15q-104 -115 -169 -146q22 0 85.5 6t71.5 6q21 0 22 -3v-2q-3 -7 -12.5 -16t-17.5 -9q-37 -4 -193 -4
q-10 0 -7 8q4 5 36 23q10 6 20.5 14t18 14.5t19.5 18t17.5 16.5t19 20.5t17.5 19.5t20 23t20 23q58 67 99 150q71 141 -25 139q-5 0 -11 -1q-54 -4 -122.5 -53t-122 -115t-81.5 -140t-8 -124l15 -21q2 -2 0.5 -5.5t-5.5 -3.5z" />
    <glyph glyph-name="pi" unicode="&#x3c0;" horiz-adv-x="339" 
d="M451 333q3 0 3 -6q-3 -7 -16 -20q-47 -40 -108 -35q-8 -15 -31.5 -59t-37.5 -75t-23 -62q-6 -13 -5.5 -33.5t15.5 -20.5q14 0 73 51t85 79q15 15 21 9q3 -4 -4 -13q-28 -33 -86.5 -82.5t-77.5 -55.5q-11 -4 -23 -4q-26 0 -29.5 21.5t5.5 45.5q13 45 38 106.5t46 97.5
q-3 1 -32 10t-45 12q-18 -61 -62 -157t-77 -137q-4 -4 -8 -4q-2 0 -5 1t-2 3q3 12 54 115q38 79 68 181h-2q-36 0 -56 -7.5t-52 -30.5q-1 0 -3.5 -1.5t-4.5 -1.5t-2 4q5 14 15 20q60 54 124 54q30 0 81 -19t80 -19q19 0 38.5 8t32 16.5t13.5 8.5z" />
    <glyph glyph-name="endash" unicode="&#x2013;" horiz-adv-x="445" 
d="M345 216h-226q-20 0 -7 15q21 20 49 22h216q62 0 62 -12q0 -11 -30 -18t-64 -7z" />
    <glyph glyph-name="emdash" unicode="&#x2014;" horiz-adv-x="687" 
d="M585 216h-466q-20 0 -7 15q21 20 49 22h456q62 0 62 -12q0 -11 -30 -18t-64 -7z" />
    <glyph glyph-name="quoteleft" unicode="&#x2018;" horiz-adv-x="160" 
d="M90 439q11 47 53.5 89t74.5 54q1 -1 1 -5q0 -5 -37.5 -44.5t-39.5 -57.5q0 -3 2.5 -8.5t1.5 -10.5q0 -14 -17.5 -31.5t-27.5 -17.5q-17 0 -11 32z" />
    <glyph glyph-name="quoteright" unicode="&#x2019;" horiz-adv-x="407" 
d="M374 550q-11 -46 -54.5 -90t-73.5 -53q-1 0 -1 5t37.5 44.5t39.5 57.5q0 3 -2.5 8.5t-1.5 10.5q0 14 17.5 31.5t27.5 17.5q17 0 11 -32z" />
    <glyph glyph-name="quotesinglbase" unicode="&#x201a;" horiz-adv-x="407" 
d="M165 38q-11 -46 -54.5 -90t-73.5 -53q-1 0 -1 5t37.5 44.5t39.5 57.5q0 3 -2.5 8.5t-1.5 10.5q0 14 17.5 31.5t27.5 17.5q17 0 11 -32z" />
    <glyph glyph-name="quotedblleft" unicode="&#x201c;" horiz-adv-x="271" 
d="M90 439q11 47 53.5 89t74.5 54q1 -1 1 -5q0 -5 -37.5 -44.5t-39.5 -57.5q0 -3 2.5 -8.5t1.5 -10.5q0 -14 -17.5 -31.5t-27.5 -17.5q-17 0 -11 32zM196 439q11 47 53.5 89t74.5 54q1 -1 1 -5q0 -5 -37.5 -44.5t-39.5 -57.5q0 -3 2.5 -8.5t1.5 -10.5q0 -14 -17.5 -31.5
t-27.5 -17.5q-17 0 -11 32z" />
    <glyph glyph-name="quotedblright" unicode="&#x201d;" horiz-adv-x="516" 
d="M480 550q-11 -46 -54.5 -90t-73.5 -53q-1 0 -1 5t37.5 44.5t39.5 57.5q0 3 -2.5 8.5t-1.5 10.5q0 14 17.5 31.5t27.5 17.5q17 0 11 -32zM374 550q-11 -46 -54.5 -90t-73.5 -53q-1 0 -1 5t37.5 44.5t39.5 57.5q0 3 -2.5 8.5t-1.5 10.5q0 14 17.5 31.5t27.5 17.5
q17 0 11 -32z" />
    <glyph glyph-name="quotedblbase" unicode="&#x201e;" horiz-adv-x="315" 
d="M270 38q-11 -46 -54.5 -90t-73.5 -53q-1 0 -1 5t37.5 44.5t39.5 57.5q0 3 -2.5 8.5t-1.5 10.5q0 14 17.5 31.5t27.5 17.5q17 0 11 -32zM164 38q-11 -46 -54.5 -90t-73.5 -53q-1 0 -1 5t37.5 44.5t39.5 57.5q0 3 -2.5 8.5t-1.5 10.5q0 14 17.5 31.5t27.5 17.5q17 0 11 -32
z" />
    <glyph glyph-name="dagger" unicode="&#x2020;" horiz-adv-x="331" 
d="M281 435h-28l-201 -607q-2 -8 -11 -11t-15 2.5t-2 18.5q23 73 86 278t99 319h-93q-20 0 -7 15q21 20 49 22h62l23.5 70.5t28.5 84t25 73.5q8 21 29 26q19 5 18 -14q0 -6 -3 -13l-75 -227h47q62 0 62 -12q0 -11 -30 -18t-64 -7z" />
    <glyph glyph-name="daggerdbl" unicode="&#x2021;" horiz-adv-x="192" 
d="M236 280h-34l-150 -452q-2 -8 -11 -11t-15 2.5t-2 18.5q23 75 68 221t68 221h-89q-20 0 -7 15q21 20 49 22h58q6 20 38 118h-93q-20 0 -7 15q21 20 49 22h62l23.5 70.5t28.5 84t25 73.5q8 21 29 26q19 5 18 -14q0 -6 -3 -13l-75 -227h47q62 0 62 -12q0 -11 -30 -18
t-64 -7h-28l-39 -118h54q62 0 62 -12q0 -11 -30 -18t-64 -7z" />
    <glyph glyph-name="bullet" unicode="&#x2022;" horiz-adv-x="537" 
d="M487 237q0 -90 -63.5 -153.5t-152.5 -63.5q-90 0 -153.5 63.5t-63.5 152.5q0 90 63.5 153.5t152.5 63.5q90 0 153.5 -63.5t63.5 -152.5z" />
    <glyph glyph-name="ellipsis" unicode="&#x2026;" horiz-adv-x="624" 
d="M172 45q0 -9 -15 -30t-23 -21q-35 0 -35 22q0 13 18.5 33t32.5 20q9 0 16 -7.5t6 -16.5zM355 45q0 -9 -15 -30t-23 -21q-35 0 -35 22q0 13 18.5 33t32.5 20q9 0 16 -7.5t6 -16.5zM538 45q0 -9 -15 -30t-23 -21q-35 0 -35 22q0 13 18.5 33t32.5 20q9 0 16 -7.5t6 -16.5z
" />
    <glyph glyph-name="perthousand" unicode="&#x2030;" horiz-adv-x="751" 
d="M738 124q0 -8 -21 -17l1 -1v-3q0 -14 -19 -44q-29 -42 -74.5 -84.5t-83.5 -42.5h-14q-20 0 -33 17t-13 37q0 24 26 65t64 82q-59 -26 -72 -26l1 -1v-3q0 -14 -19 -44q-29 -42 -74.5 -84.5t-83.5 -42.5h-14q-20 0 -33 17t-13 37q0 46 76 132t124 86q45 0 45 -43
q0 -16 -4 -28q1 -2 16 1.5t37 9.5t33 8q55 52 91 52q45 0 45 -43q0 -16 -4 -28q1 -2 8.5 -2.5t7.5 -6.5zM595 536q0 -7 -8 -15l-73 -78q-179 -194 -292 -345q-71 -95 -87 -132q-5 -15 -5 -25q0 -12 9 -20l2 -2q0 -5 -7.5 -9t-12.5 -4q-22 0 -22 36.5t7 48.5q29 67 85.5 142
t112.5 131.5t124 129t107 124.5q-125 -53 -204 -53q0 -2 1 -3v-1q0 -10 -6.5 -27.5t-12.5 -25.5q-29 -44 -75.5 -81t-103.5 -37q-22 0 -34 17t-12 37q0 28 36 80.5t84.5 94.5t79.5 42q45 0 45 -42q0 -14 -4 -29q1 -1 8 -1q41 0 114.5 20t117.5 40q1 0 3 1l2 1q7 0 14 -4.5
t7 -10.5zM476 120q-12 -2 -13.5 8t2 22t-0.5 19q-32 0 -96 -78.5t-64 -110.5q0 -24 21 -24q34 0 92.5 66t58.5 98zM694 120q-12 -2 -13.5 8t2 22t-0.5 19q-32 0 -96 -78.5t-64 -110.5q0 -24 21 -24q34 0 92.5 66t58.5 98zM303 462q-11 7 -35 36q-32 0 -85.5 -64t-53.5 -96
q0 -25 21 -25q33 0 93 59t60 90z" />
    <glyph glyph-name="guilsinglleft" unicode="&#x2039;" horiz-adv-x="261" 
d="M146 0q0 -23 -11 0l-1 3q-34 73 -44 92q-7 10 -6 18t15 17q44 26 100 66q13 13 19 7q3 -2 -1 -8q-12 -16 -44.5 -48t-53.5 -44q27 -77 27 -103z" />
    <glyph glyph-name="guilsinglright" unicode="&#x203a;" horiz-adv-x="261" 
d="M158 183q0 23 11 0l1 -3q34 -73 44 -92q7 -10 6 -18t-15 -17q-44 -26 -100 -66q-13 -13 -19 -7q-3 2 1 8q12 16 44 46.5t54 45.5q-27 73 -27 103z" />
    <glyph glyph-name="fraction" unicode="&#x2044;" horiz-adv-x="669" 
d="M32 4q105 110 259.5 294t242.5 276q14 16 39 13q20 -4 6 -21l-513 -561q-8 -11 -29 -11q-15 0 -5 10z" />
    <glyph glyph-name="Euro" unicode="&#x20ac;" horiz-adv-x="615" 
d="M715 485q-5 -72 -141 -141q-3 -4 -8 -4q-6 2 -4 4q4 8 29 34t47 57.5t24 60.5q2 24 -53 24q-69 0 -155.5 -54.5t-158.5 -134.5h159q62 0 62 -12q0 -21 -84 -21h-165q-25 -31 -47 -69h147q62 0 62 -12q0 -21 -84 -21h-142q-34 -65 -15.5 -111t96.5 -46q72 0 153 31.5
t136 83.5q22 19 23 9q1 -7 -20 -35q-37 -49 -124.5 -88t-187.5 -39q-67 0 -103 27t-38 70t18 98h-88q-20 0 -11 13q17 17 43 20h71q16 35 42 69h-58q-20 0 -11 13q17 17 43 20h51q78 94 184.5 157.5t211.5 63.5q96 0 96 -67z" />
    <glyph glyph-name="trademark" unicode="&#x2122;" horiz-adv-x="656" 
d="M643 615q0 -24 -36 -258q-4 -17 -35 -17q-11 0 -11 9q0 7 1 8q9 31 18.5 88.5t13.5 76.5q-19 -25 -42 -52t-57 -55t-54 -28q-52 0 -89 135q-10 -22 -27.5 -89t-32.5 -89q-10 -16 -27 -16q-11 0 -11 7t17.5 54t39 101.5t25.5 67.5q-5 24 3 49.5t27 25.5q4 0 6 -4t4 -10.5
t3 -7.5q1 -5 9.5 -65t23 -99t39.5 -39q22 0 62 54t72.5 108t36.5 54q21 0 21 -9zM337 635q0 -10 -34 -15t-71.5 -10t-44.5 -16q-10 -16 -20.5 -40.5t-17 -44t-13.5 -42.5t-8 -27q-6 -18 -14 -44.5t-13.5 -43.5t-8.5 -21q-8 -9 -21 -9q-18 0 -18 13q0 23 87 219q1 4 4.5 13.5
t5.5 17t2 11.5q0 9 -28 9q-12 0 -36 -2.5t-36 -2.5q-20 0 -25 13q8 13 120.5 21.5t167.5 8.5q22 0 22 -8z" />
    <glyph glyph-name="Omega" unicode="&#x2126;" horiz-adv-x="653" 
d="M211 5h-1l-157 -4q-22 0 -21 14q1 13 17 18q4 1 8 1q5 0 32 1t46 1t42 -1q-24 76 4 159.5t86 146t132.5 103.5t138.5 41q118 0 73 -134q-29 -84 -94 -169q-8 -9 -13 -15q-104 -115 -169 -146q22 0 85.5 6t71.5 6q21 0 22 -3v-2q-3 -7 -12.5 -16t-17.5 -9q-37 -4 -193 -4
q-10 0 -7 8q4 5 36 23q10 6 20.5 14t18 14.5t19.5 18t17.5 16.5t19 20.5t17.5 19.5t20 23t20 23q58 67 99 150q71 141 -25 139q-5 0 -11 -1q-54 -4 -122.5 -53t-122 -115t-81.5 -140t-8 -124l15 -21q2 -2 0.5 -5.5t-5.5 -3.5z" />
    <glyph glyph-name="partialdiff" unicode="&#x2202;" horiz-adv-x="282" 
d="M288 393q0 154 -72 154q-3 0 -9.5 -0.5t-9.5 -0.5t-7 1t-5.5 4t-1.5 8q0 10 22 15t40 5q30 0 51 -18t29 -47.5t11 -52t3 -45.5q0 -76 -19 -146q-9 -37 -25 -78t-42 -89.5t-66 -80t-84 -31.5q-57 0 -57 50q0 28 21 72q16 37 59.5 95.5t74.5 61.5h9q24 0 35 -12
q0 -3 0.5 -6.5t0.5 -5.5q0 -5 -2.5 -6t-7.5 0t-6 1q-34 0 -79.5 -81t-45.5 -114q0 -24 22 -24q29 0 60.5 37.5t49 73.5t26.5 64q25 80 25 196z" />
    <glyph glyph-name="Delta" unicode="&#x2206;" horiz-adv-x="682" 
d="M510 28q23 262 56 377q-32 -29 -104.5 -97t-115.5 -107.5t-102 -90.5t-104 -85q256 7 370 3zM95 -8q-32 -3 27 50l5 5q74 61 246.5 222.5t221.5 205.5q38 34 53 34q11 0 5 -19q-30 -101 -60 -246.5t-41 -223.5q-2 -15 -8 -20t-12.5 -3t-16.5 5.5t-15 3.5
q-83 -6 -233.5 -9t-171.5 -5z" />
    <glyph glyph-name="product" unicode="&#x220f;" horiz-adv-x="407" 
d="M542 458q3 0 3 -6q-3 -7 -16 -20q-47 -40 -108 -35q-23 -46 -68 -164.5t-61 -172.5q-6 -13 -5.5 -33.5t15.5 -20.5t75 52t88 83q24 27 30 19q3 -5 -5 -13q-136 -147 -160 -155q-18 -6 -40 -6q-27 0 -34.5 23.5t1.5 47.5q17 58 63.5 185t66.5 160q-14 5 -80 13t-73 9
q-22 -76 -83 -235.5t-93 -199.5q-4 -4 -8 -4q-2 0 -5 1t-2 3q2 10 22 61t26 64q44 87 111 312h-2q-37 0 -51.5 -0.5t-42.5 -7.5t-47 -21q-1 0 -3.5 -1.5t-4.5 -1.5t-2 4q5 14 15 20q26 23 71.5 34t85.5 11q32 0 111 -13.5t105 -14.5t50.5 4.5t39 12t15.5 6.5z" />
    <glyph glyph-name="summation" unicode="&#x2211;" horiz-adv-x="652" 
d="M242 38q21 18 109 95.5t106 93.5q-19 4 -33 7.5l-38 9.5t-41 13t-38 16.5t-33 20.5t-21.5 24.5t-8.5 30t11 34.5q32 61 89.5 107t120 69.5t123 32t108.5 0.5q22 -4 42.5 -11t40 -20t19 -31t-19.5 -44q-25 -26 -63.5 -52t-64.5 -28q-15 -9 -16 -5q-2 6 19 20
q55 21 85.5 64.5t-5.5 59.5q-12 5 -33 6q-123 4 -249.5 -48.5t-170.5 -133.5q-9 -20 -8.5 -34.5t16 -26.5t33.5 -19.5t44 -15t47.5 -12t45 -10t35.5 -9.5q18 -6 24.5 -13t0.5 -17t-13 -16.5t-21 -18.5q-28 -22 -108 -80.5t-99 -74.5q37 -23 101 -39.5t111 -16.5
q20 0 40.5 2.5t44 9.5t38.5 21.5t15 35.5q0 16 -14 30t-14 17q0 5 4 5q8 0 11 -3q39 -27 39 -55q0 -49 -41 -74.5t-89 -25.5q-55 0 -136 24.5t-136 54.5q-56 -35 -102 -35q-48 0 -89.5 32t-41.5 78q0 28 33 28q16 0 34.5 -4t44 -15t37 -16t43 -21.5t32.5 -16.5zM218 26
q-23 16 -68.5 32t-68.5 16q-9 0 -9 -5q0 -35 12.5 -52t43.5 -17q19 0 46.5 8t43.5 18z" />
    <glyph glyph-name="minus" unicode="&#x2212;" horiz-adv-x="451" 
d="M322 193h-192q-23 0 -9 12q24 19 57 21h181q72 0 72 -11q0 -10 -34.5 -16t-74.5 -6z" />
    <glyph glyph-name="radical" unicode="&#x221a;" horiz-adv-x="643" 
d="M463 398q84 68 130 68q32 0 39.5 -4.5t-1 -11.5t-33.5 -20q-77 -51 -216 -177.5t-248 -259.5q-15 -16 -27 -9q-3 3 -2 7q27 90 11 186q-1 4 -2.5 10.5t-2.5 11.5t-3 11t-4.5 10t-5.5 6.5t-7.5 2t-10.5 -3.5q-12 -8 -13.5 6t10.5 20q19 9 46 9q34 0 47.5 -28.5t6.5 -72.5
t-15.5 -76t-19.5 -61q159 251 321 376z" />
    <glyph glyph-name="infinity" unicode="&#x221e;" horiz-adv-x="833" 
d="M226 81q-40 0 -68.5 22.5t-28.5 57.5q0 49 50 92.5t120 43.5q58 0 120 -65q32 23 93 50t89 27q44 0 69.5 -21.5t25.5 -54.5q0 -56 -50.5 -105.5t-114.5 -49.5q-37 0 -66.5 20.5t-62.5 58.5q-40 -25 -95.5 -50.5t-80.5 -25.5zM590 276q-42 0 -160 -57l7 -8q4 -5 20 -23
t21 -23.5t18.5 -18t22 -16.5t21.5 -8.5t26 -4.5q40 0 69 24.5t31 54.5q3 31 -16 55.5t-60 24.5zM253 113q40 0 138 57l-6 8q-74 86 -129 86q-36 0 -64 -22.5t-30 -51.5q-2 -32 21.5 -54.5t69.5 -22.5z" />
    <glyph glyph-name="integral" unicode="&#x222b;" horiz-adv-x="312" 
d="M541 511q-4 -16 -17.5 -31t-32.5 -20q-18 -4 -6 13q4 5 11 14q29 36 13 53q-18 20 -67 -14q-24 -17 -51 -47q-42 -48 -87 -110.5t-74.5 -109.5t-83.5 -136t-84 -136q0 -1 -8 -12.5t-14.5 -21t-19 -26.5t-24 -31t-28 -32t-32 -32t-34.5 -28t-37.5 -23.5t-40 -15.5
t-41.5 -6q-23 0 -43 13.5t-25 31.5q-3 14 -2 23t4.5 13.5t7.5 2.5q9 -5 16.5 -19.5t22.5 -24t49 -9.5q31 0 64.5 25t67.5 72t58 85t56 96t41 73q2 3 8 14q20 37 37 66t55 90.5t74 105t78 86.5t84 58.5t76 0.5q39 -17 29 -51z" />
    <glyph glyph-name="approxequal" unicode="&#x2248;" horiz-adv-x="440" 
d="M361 170q12 10 17 4q1 -3 -2 -7q-40 -52 -86 -58q-18 -2 -53.5 13t-55.5 15q-34 0 -74 -33q-13 -12 -15 -6.5t5 16.5q11 20 42.5 42.5t64.5 22.5q17 0 54 -15t53 -15q24 0 50 21zM403 287q12 10 17 4q1 -3 -2 -7q-42 -52 -86 -58q-19 -2 -55 13t-55 15q-33 0 -73 -33
q-14 -12 -15.5 -6.5t5.5 16.5q11 20 42.5 42.5t64.5 22.5q17 0 53.5 -15t52.5 -15q26 0 51 21z" />
    <glyph glyph-name="notequal" unicode="&#x2260;" horiz-adv-x="478" 
d="M353 144h-90l-151 -163q-8 -8 -22 -6q-8 2 -2 8q81 86 145 161h-94q-20 0 -7 15q21 20 49 22h83l66 78h-133q-20 0 -7 15q21 20 49 22h123q45 52 81 89q10 12 32 9q18 -3 7 -14l-78 -84h39q62 0 62 -12q0 -11 -30 -18t-64 -7h-42l-72 -78h88q62 0 62 -12q0 -11 -30 -18
t-64 -7z" />
    <glyph glyph-name="lessequal" unicode="&#x2264;" horiz-adv-x="318" 
d="M95 237q4 16 191 146q14 9 23 8q7 -1 5 -8q-1 -4 -35.5 -31.5t-80 -62t-46.5 -35.5q61 -117 55 -139q-6 -14 -20 -7q-8 18 -20 36.5t-20 28t-26 30t-25 28.5q-2 5 -1 6zM164 -10h-137q-18 0 -5 14q17 17 40 17h128q52 0 52 -10q0 -9 -25 -15t-53 -6z" />
    <glyph glyph-name="greaterequal" unicode="&#x2265;" horiz-adv-x="192" 
d="M314 257q-5 -19 -191 -146q-15 -9 -23 -8q-7 1 -5 8q2 4 38 32.5t77 60t47 36.5q-61 117 -55 139q6 14 20 7q8 -18 20 -36.5t20 -28t26 -30t25 -28.5q2 -5 1 -6zM164 -10h-137q-18 0 -5 14q17 17 40 17h128q52 0 52 -10q0 -9 -25 -15t-53 -6z" />
    <glyph glyph-name="lozenge" unicode="&#x25ca;" horiz-adv-x="588" 
d="M466 237q-10 26 -19 102.5t-7 115.5q-126 -140 -279 -245q20 -57 20 -196q69 66 150.5 130t134.5 93zM494 254q1 -5 2.5 -9t2.5 -6.5t2 -4.5t0.5 -3.5t0 -2.5t-2 -2.5t-4 -3t-7 -4.5t-9.5 -6q-178 -122 -286 -228q-12 -46 -54 -46q-8 0 -8 16q20 129 5 239
q-2 15 0.5 23.5t6 12t14.5 9t17 10.5q115 81 270 249q4 21 17 29.5t24 -0.5t10 -32q-20 -144 -1 -240z" />
    <glyph glyph-name="apple" unicode="&#xf8ff;" horiz-adv-x="511" 
d="M174 285h3q3 -3 8 -3q1 0 1.5 -1t0.5 -3q0 -3 -1 -4t-3 -1h-4t-3 -1h-1l-1 -1h1q-2 -2 -2 -4l2 -10l2 -9q3 -7 5 -9l2 -3h2h4l2 -1h2q2 0 3 1h2l3 -3q8 -2 9 -2q4 0 10.5 2t8.5 2h2l6 1v1h3q1 1 2.5 3.5t3.5 4t6 3.5l1 1v-1h2l2 1q2 -6 2 -8v-13l3 -1h13l7 1v-1h6v-1h3
v-3h3v-1h3l3 -3h18q2 0 5 1.5t7 1.5v-3h1v-1h1v-8q-1 0 -2 -1q0 -1 1 -1q0 -1 -1 -2q-1 1 -2 1l-1 -1q-6 0 -7.5 -0.5t-3.5 -6.5h-3v-2q-1 1 -6 1q-1 0 -3.5 -1t-6.5 -1v-4q0 -1 2 -3l4 -3h2q0 -2 -2 -2t-3 1q-2 0 -2 -1h-1h-1v-1h-21q-1 2 -3 4l-2 4h-4v1h-10v-1
q-1 -1 -3 -1q-1 0 -1 -2v-9l2 -3q1 -1 1 -3q1 -1 1 -2h14l2 -1v-3h-1l-1 -1h-2h-7q-10 0 -16.5 7t-15.5 7v-1q-1 -1 -1 -2h-2v-3l-2 -4q-1 0 -1 -1t-1 -2q-1 3 -6 3v-3h-3v-1q0 -1 -4 -5l3 -3v-28h-3q0 -2 1.5 -4t1.5 -3t1 -1h2h6q0 1 4 1l1 -3q0 -1 1 -2v-1q-1 -1 -1 -6v-7
q1 0 2 -2l1 -3q1 0 2 1v-1l9 -9l1 -1l1 1q1 1 2 1t3 -1v-2h5h1q2 -1 4 -1t4 1t3 1t2 -1v-1h3q0 -1 1 -1h2l2 -3h23v-2l3 -2v2l1 -2q2 -1 3.5 -2.5t3.5 -2.5h14q2 0 2 1v1v1h1q1 0 2 1q4 -4 4 -8q-1 0 -2 -1h-1q2 0 2 -3q-4 0 -7.5 -5t-9.5 -5v-3h-3q0 -1 -1 -2q0 -1 -1 -3
h-3v-2l-1 -1v-1l-1 -1h-2v-4q-1 0 -2 1q-1 0 -2 -1t-1 -5h-2q0 -3 -1 -4l-6 -8q-1 -1 -8 -1v-2h1l-1 -1q-2 0 -4.5 -1t-3.5 -2q0 -3 1 -3q-1 -3 -3 -3h-3v-1h-4v-2h-2v-6h-53v2q1 1 1 3q0 1 -1 3q0 2 2 4v3q-1 1 -1.5 3.5t-2.5 3.5t-8 1q-4 -1 -12 -1v2h-2v11l-9 9v2h-1v2
l-5 4l-5 5h-15q-7 9 -7 13v4l-11 7v24q1 2 2.5 8t4.5 10l4 7v12q0 17 -2 20l-4 17v9q-3 5 -3 9v13h1v5h-1v7h-2q-1 0 -1 1l-3 1h-1v-1l-2 -1h-3v8h5q0 1 0.5 3t0.5 4h3q0 -1 1 -1h2v-4h1q1 1 3 1q1 -1 3 -1v5l2 2v2h1v4q3 0 5 3q-1 1 -1 5t1 5h-2q-1 0 -1 1l-1 1q0 2 -1 2
h-1v8h1v1q0 1 1 2l2 11q0 1 1 2q0 2 -2 3t-2 3h-10v-3h-9v5q1 0 2 -1q1 0 2 1t1 2v1h4v1h3v4h3v15h-3v2q-4 4 -6 4v3h-3v7h-3q0 3 -3 3l-1 1v3h-1q-1 1 -3 1h-5v17q0 2 1 4t1 3q-1 0 -1 1v2l-5 19q-2 5 -2 20v14q0 6 6 16v18l6 6v2q0 2 1 2l3 4l12 12v2h3q2 -2 3 -2l1 2
q4 0 5 1l3 5v1h4l2 3l1 1v1l7 6q1 0 5 4l3 3l1 -1h1l1 1h1v3q0 1 1 1l1 2q0 1 1.5 3t1.5 4l1 2l1 1h2v3q0 2 1 2l6 5q5 5 11 5v3h27l8 5q10 10 21 10q3 0 4 -1l4 -1q2 0 5.5 -3t5.5 -3q10 0 12 2q3 0 4 -1q2 0 18 5q12 0 16 -3l6 -5l5 -5h18l16 -8v-1q2 -2 6 -3t6 -2
q6 -2 10 -3v-8q1 -3 10 -6q0 -4 10.5 -8t10.5 -22l4 -8q0 -1 2 -4l2 -3l2 -6q0 -5 -1 -6h-1v-11q-3 0 -3 -2v-13l6 -8q3 -4 4.5 -9t1.5 -14.5v-11.5v-13h-4v-9h-2l1 -1h-3v-4q-2 -2 -2 -4q0 -4 1 -5l1 -5l1 -1v-2t-0.5 -1t-0.5 -1l-1 -1v-40h1v-5h2v-1q-3 -4 -3 -8h-3l-4 -8
v-9h-1q0 -2 -1 -3.5t-1 -4.5v-2q-2 -2 -2 -3v-4q-1 0 -2 -1h-3l-3 -4q0 2 -1 2v-1h-1v2v1h-3l3 4q-4 0 -4 1v2q1 1 4 2l-2 2l2 1q1 1 1 3v3h4q0 2 -2 4q0 1 2 1h1v75q0 12 3 12l1 -1v4l2 1v4h2v20q-2 0 -2 3v7h-2v2h-1l-2 2l-1 1h-4v1h-1v3h-1v4h-3v6h-1v4q-3 0 -3 3l-3 -2
h-6q0 3 -1 4l-3 3v1h-1l-1 3h-9v1h-2l-4 4l-2 5q-1 0 -2 1v-2q-1 0 -3 1.5t-3 1.5h-1l-2 -1h-3v-1h-3v-1h-4v-1q0 -3 -7 -3q-4 0 -9 0.5t-6 0.5v3h-2v1q-1 0 -2 1h-1v3h-8v1h-1v4h-3q0 2 1 3l2 2q-4 4 -4 8h-1q-1 0 -2 1h-1v3q-26 0 -26 -7h-1q0 -4 -3 -4q0 1 -1 2v-4h-12
q0 3 -2 3v3h-4q-4 -2 -5.5 -4.5t-3.5 -2.5v-3q-4 0 -4 1v-2q-3 0 -5 -1t-4 -3t-5 -3v-1h-3v-1h-19q0 -1 -3 -5t-3 -6l1 -1l1 -1q0 -1 -1 -1l-2 -2l-2 -1l-3 -3q0 2 -1 3v1q-3 0 -3 -1l-1 -3q-3 0 -3 3l-3 -2h-4l-2 -1q-1 0 -2 1.5t-2 1.5q-2 0 -5 -3q0 -1 -1 -1l-1 -2l7 -7
q0 1 1 1h1q0 -2 1 -4l2 -1q0 -1 -1 -1h-2v-13q1 -3 2 -3v-3l5 -4q2 -2 8 -2q0 1 2.5 2t2.5 4v3l2 3q2 2 2 4q0 1 5 1v-4h2v-9q0 -1 1 -1l1 -7h3q0 -1 1.5 -6t1.5 -6q-2 -2 -2 -3q0 -2 1 -3v-1l-1 -1v-2l-3 -2q-1 0 -1 -2h-4v-1h-1v-18q1 0 1 -3h11v1q5 3 40 3q5 0 12.5 -0.5
t11.5 -0.5l2 -3h5q1 -3 7 -10t7 -12l-2 -4q-2 -3 -4 -3l-1 1l-1 -6q0 -10 -11 -10h-25l-3 -2l-4 -3v-1h-12v1h-3q0 1 -1 2v2h-3q0 1 -2 1h-8l-3 3h-2q0 1 -1 2v2h-2q-1 0 -1 1v4h-12l-2 4l-3 5h-8q-2 -2 -4 -2h-5q-2 -3 -4 -4.5t-3 -3t-1 -4.5q0 -2 1.5 -4t1.5 -3zM400 302
l-1 -1v-1q-1 0 -1 -1t-1 -2t-1 -2t-1 -1l1 -1l1 -1q0 -4 -10 -6t-12 -4v-2l-4 -1v-3q-5 -3 -5 -5h-4v-1h-8q0 -1 -4 3q-4 6 -6 6h-16v1h-2q0 1 1 1l-1 1q3 3 3 5q0 1 -1 2l-5 5v8q0 1 1 2v2q1 0 2 1t1 2t-0.5 1t-0.5 1h2l3 4l3 1q4 1 6 1v4q0 1 1 2h7v1l7 2l3 -3h9l1 -2
l3 -4h4l1 -2h2q2 0 5 1t5 1q0 -3 1 -4t2 -1t2 1v-3h4v-3h1q2 0 2 -1v-4zM310 184l-1 2h2q1 0 2 1.5t2 1.5t2 -1l2 -2h4q1 1 4 1q1 0 4 -0.5t5 -0.5v2h14q0 2 3 4v30h-3q0 5 -4 6v2l-2 2v9l4 3q7 -5 8 -7q2 -4 3 -5v-2h2q1 -1 4 -2q0 -3 1 -4l2 -2h3v-3q1 0 1 -1l4 -3
q0 -1 1 -1q12 -12 12 -15h21v-6q0 -3 -2 -5l-1 -2q-2 -1 -7 -2h-7q0 2 -1 3l-2 1h-2v3h-9q0 -3 -2 -3h-1q0 -1 -4 -4l1 -2q0 -1 1 -2q0 -1 1 -1h-3v-5l-1 1q-2 -2 -2 -3v-1h-2q-1 0 -1 -3v-1q-1 1 -5 1q-1 -1 -3 -1q0 6 -5 6q-1 0 -2 -1q-3 0 -5 2h-1v1h-3q-2 0 -2 -1v3h-8
v2h-4v1h-5v3h-8l-1 1h-4zM298 136q-1 0 -1 -1h-5v-2h-10q0 -3 -2 -3l-1 1q0 -1 -4 -1v-4h-3q-2 0 -6 -3q-1 1 -3.5 2.5t-4 3t-1.5 2.5q-2 0 -2 -1h-1h-1q-2 0 -2 3h-7l-1 1q-1 0 -2 1v1q-2 0 -2 2v6q1 1 9 1q0 -1 1 -1h2h6v1h4q1 0 1 1.5t2 1.5h6v-3h9l1 3h6l1 1l4 -1v-2h1
v-1h1v-1q5 -3 5 -8zM394 149l-1 -1v-3h-3v-3q-1 -2 -4 -2l-2 -1l-6 -5q-4 -4 -6 -4l-1 -2q-1 -2 -2 -4.5t-3 -3.5v-3l-2 -2h-1h-1q-5 0 -5 -5q2 -2 2 -9q0 -2 -1 -4v-2h-4v-3h-6l-2 -2q-1 -1 -2 -1q-4 0 -4 3l2 3v1q0 3 -1 4h4v1h1v3h1l4 4q2 2 5 4l2 2l-3 3l1 1h2v8
q2 0 2 2q-1 1 -1 3q0 -1 1 -1q2 0 2 3v3h1v4h3q0 2 1 2l1 1v1h4v1h5q1 0 4 6t8 6t5 -5v-3zM117 241v-5h-6q0 2 -2.5 4.5t-3.5 4.5h-1v5h-3q0 3 -1 7.5t-1 8.5h2v1h4q4 -4 4 -8h2v-5h1q0 -6 4 -12zM118 280q-1 0 -2 1q0 -2 -4 -2v-3h-3q0 2 -2 4t-2 4q6 2 6 9h-3q0 7 1 8h-4
v3h-1v10h5v-8h2v-4h1v-4h1l1 -1h1h2q0 -5 0.5 -9t0.5 -8zM314 161q-6 -6 -21 -6h-4l-4 3v4h3q0 -1 1 -1h3v3h19l2 -2q0 -1 1 -1zM131 254v-1q-4 0 -7 -3l-3 5v4q2 0 3 -1h1l2 -4h4zM130 310l-3 -3h-1v7q1 -2 3 -2q1 -1 1 -2zM136 279h-4l-1 1h5v-1zM309 186h-3l1 1v-1h2z
" />
    <glyph glyph-name="fi" unicode="&#xfb01;" horiz-adv-x="521" 
d="M336 215h-122q2 -2 3 -2q87 -8 91 -102q4 -92 -64 -205q-67 -109 -149 -145q-30 -13 -58 -13q-100 0 -50 161q43 138 152 306h-45q-20 0 -11 12q15 16 43 17h32q44 65 84 119q175 243 270 199q39 -17 29 -51q-4 -16 -17.5 -31t-32.5 -20q-18 -4 -6 13q4 5 11 14
q29 36 13 53q-18 20 -67 -14q-24 -17 -51 -47q-77 -88 -170 -235h137q73 0 152 39l11 7q15 0 32 -7t10 -19q-1 -2 -32 -47t-53.5 -79t-44 -74t-21.5 -55q0 -6 4 -6t14.5 7t20 15t21.5 18t13 11q69 58 110 107q10 10 13 10q5 0 5 -6t-5 -14q-8 -10 -18 -20.5t-22.5 -22.5
t-18.5 -19q-59 -59 -99 -104q-14 -16 -28 -16q-15 0 -29 13t-17 28q5 33 44.5 107.5t71.5 124.5q-81 -27 -156 -27zM201 195q-1 0 -2 0.5t-3 0.5l-22 -22q-83 -129 -116 -197q-8 -15 -14 -29.5t-16.5 -41t-14.5 -47.5t-3.5 -42t13 -33t36.5 -12q32 0 62 24q43 36 80.5 95
t57.5 120t7 113.5t-65 70.5zM653 438q-4 -22 -17.5 -42t-31.5 -26q-10 -3 -22 -3q-23 0 -23 18q1 23 32 38q9 5 19 7t23.5 4t19.5 4z" />
    <glyph glyph-name="fl" unicode="&#xfb02;" horiz-adv-x="545" 
d="M287 199h-25q39 -22 45.5 -75.5t-16.5 -116.5t-61 -122t-91 -98t-102 -39q-100 0 -50 161q46 145 149 301q-32 6 -34 7q-26 8 -12 21q15 13 40 11l28 -5q44 65 84 119q175 243 270 199q39 -17 29 -51q-4 -16 -17.5 -31t-32.5 -20q-18 -4 -6 13q4 5 11 14q29 36 13 53
q-18 20 -67 -14q-24 -17 -51 -47q-85 -97 -175 -243l-3 -4q42 -11 86 -11q90 -1 147 10q2 3 4.5 8l3.5 7q29 52 77.5 115.5t113 124.5t114.5 78q15 5 23 5q14 0 28 -15t19 -18q8 -5 8 -16q0 -31 -52.5 -86t-125.5 -110t-123.5 -90t-73.5 -49q-41 -80 -41 -132q0 -41 23 -41
q19 0 51 19.5t53 38.5q27 22 93 93q5 5 9 5q6 0 6 -7q0 -6 -5 -11q-6 -7 -31 -34.5t-36.5 -40t-33 -33t-40.5 -34t-39 -23.5q-12 -5 -20 -5q-18 0 -42.5 13t-31.5 28q-6 11 -6 24q0 50 65 170q-75 -16 -149 -16zM201 195q-1 0 -2 0.5t-3 0.5l-22 -22q-83 -129 -116 -197
q-8 -15 -14 -29.5t-16.5 -41t-14.5 -47.5t-3.5 -42t13 -33t36.5 -12q32 0 62 24q43 36 80.5 95t57.5 120t7 113.5t-65 70.5zM800 502q7 16 -10.5 20.5t-30.5 -1.5q-41 -14 -131.5 -115t-133.5 -169q42 14 169 126.5t137 138.5z" />
    </font>
</defs>
</svg>
