<svg xmlns="http://www.w3.org/2000/svg" xmlns:xlink="http://www.w3.org/1999/xlink" width="25" height="26" viewBox="0 0 25 26">
    <defs>
        <path id="a" d="M0 24.242h25V.012H0z"/>
    </defs>
    <g fill="none" fill-rule="evenodd">
        <path fill="#016FD0" d="M0 .984v10.218l.773.825-.773.862v12.337h25v-7.612l-1.237-1.668L25 14.07V.984z"/>
        <g transform="translate(0 .984)">
            <path fill="#FFF" d="M4.841 16.896v-3.804h4.146l.444.564.46-.564h15.047v3.542s-.394.259-.849.262h-8.332l-.501-.6v.6h-1.643v-1.023s-.225.143-.71.143h-.56v.88H9.857l-.445-.575-.45.575H4.84zM0 10.225l.935-2.118h1.617l.53 1.187V8.107h2.01l.316.858.306-.858h9.021v.431s.474-.43 1.254-.43l2.927.01.521 1.17v-1.18h1.682l.463.672v-.673h1.697v3.805h-1.697l-.444-.675v.675h-2.47l-.249-.6h-.664l-.245.6h-1.675c-.671 0-1.1-.423-1.1-.423v.423H12.21l-.502-.6v.6H2.312l-.248-.6h-.662l-.247.6H0v-1.687z"/>
            <path fill="#016FD0" d="M1.732 9.24l.412.996H1.32l.413-.997zm-.466-.664L.005 11.425h.82l.233-.57h1.353l.231.57h.84l-1.26-2.849h-.956zM3.568 11.424V8.576l1.167.004.678 1.837.662-1.841h1.158v2.848H6.5V9.325l-.777 2.1H5.08l-.779-2.1v2.1zM7.734 11.424V8.576h2.392v.637H8.475V9.7h1.612v.6H8.475v.506h1.65v.618zM11.283 9.214h.838c.2 0 .347.152.347.3 0 .189-.19.3-.337.3h-.848v-.6zm-.733-.638v2.849h.733v-1.012h.308l.88 1.012h.895l-.965-1.05a.878.878 0 0 0 .804-.875c0-.599-.484-.924-1.024-.924H10.55z"/>
            <mask id="b" fill="#fff">
                <use xlink:href="#a"/>
            </mask>
            <path fill="#016FD0" d="M13.505 11.424h.748V8.576h-.748zM16.027 11.424h-.161c-.782 0-1.256-.598-1.256-1.412 0-.835.469-1.436 1.456-1.436h.81v.675h-.84c-.4 0-.684.303-.684.768 0 .551.324.783.791.783h.193l-.309.622zM18.089 9.24l.412.996h-.826l.414-.997zm-.467-.664l-1.26 2.849h.82l.233-.57h1.352l.232.57h.839l-1.26-2.849h-.956zM19.923 11.424V8.576h.932l1.19 1.79v-1.79h.733v2.848h-.902l-1.22-1.836v1.836zM5.342 16.41v-2.85h2.392v.638h-1.65v.487h1.611v.6H6.083v.506h1.651v.618zM17.061 16.41v-2.85h2.392v.638h-1.651v.487h1.604v.6h-1.604v.506h1.65v.618zM7.827 16.41l1.164-1.408L7.8 13.561h.923l.71.891.713-.891h.887l-1.176 1.424 1.166 1.424H10.1l-.69-.877-.672.877zM11.861 14.205h.813c.21 0 .362.126.362.328 0 .19-.15.328-.365.328h-.81v-.656zm-.752-.644v2.849h.752v-.9h.772c.653 0 1.147-.336 1.147-.99 0-.543-.388-.959-1.052-.959H11.11zM14.832 14.198h.837c.201 0 .348.153.348.3 0 .189-.19.3-.337.3h-.848v-.6zm-.733-.637v2.848h.733v-1.012h.308l.879 1.012h.896l-.965-1.05a.878.878 0 0 0 .804-.874c0-.6-.484-.924-1.024-.924h-1.631zM19.792 16.41v-.62h1.467c.217 0 .31-.113.31-.238 0-.12-.093-.241-.31-.241h-.663c-.576 0-.897-.341-.897-.853 0-.457.294-.897 1.15-.897h1.427l-.308.64h-1.235c-.236 0-.308.12-.308.236 0 .118.09.248.27.248h.694c.642 0 .921.354.921.818 0 .498-.31.906-.956.906h-1.562zM22.482 16.41v-.62h1.467c.217 0 .31-.113.31-.238 0-.12-.093-.241-.31-.241h-.663c-.576 0-.897-.341-.897-.853 0-.457.294-.897 1.15-.897h1.427l-.308.64h-1.235c-.236 0-.308.12-.308.236 0 .118.09.248.27.248h.694c.642 0 .921.354.921.818 0 .498-.31.906-.956.906h-1.562z" mask="url(#b)"/>
        </g>
    </g>
</svg>
