<svg xmlns="http://www.w3.org/2000/svg" width="81" height="19" viewBox="0 0 81 19">
    <g fill="#000" fill-rule="evenodd">
        <path d="M0 13.689V12.27h1.114V5.434H0V4.017h4.457c2.045 0 3.292.95 3.292 2.602 0 1.083-.631 1.75-1.43 2.067 1.148.317 1.963 1.134 1.963 2.251 0 1.768-1.364 2.752-3.592 2.752H0zm2.644-8.255V8.07h1.663c1.247 0 1.896-.467 1.896-1.317 0-.867-.665-1.318-1.913-1.318H2.644zm0 6.837H4.54c1.463 0 2.195-.483 2.195-1.417 0-.917-.782-1.417-2.311-1.417h-1.78v2.834zM16.364 8.653c-.166-.567-.582-.9-1.13-.9-1.281 0-2.495.95-2.495 2.684v1.834H15.2v1.418H9.712V12.27h1.563V8.002h-1.23V6.585h2.677v1.2c.45-.833 1.364-1.433 2.578-1.433 1.364 0 2.212.784 2.461 1.9l-1.397.4M23.848 9.553v-.4c0-1-.798-1.417-1.663-1.417-.815 0-1.513.333-2.079.85l-.964-1.05c.665-.617 1.613-1.184 3.043-1.184 1.78 0 3.16.95 3.16 2.751v3.168h1.03v1.418h-2.527v-.75c-.382.616-1.413.983-2.428.983-1.463 0-2.727-.75-2.727-2.234 0-1.751 1.713-2.418 3.276-2.418.765 0 1.397.15 1.88.283zm0 1.268a5.803 5.803 0 0 0-1.813-.3c-.93 0-1.829.3-1.829 1.15 0 .634.565.934 1.347.934 1.081 0 2.295-.584 2.295-1.584v-.2zM35.257 12.271v1.418h-7.151V12.27h2.96V8.002h-2.262V6.585h3.725v5.686h2.728zm-4.374-7.103h1.646V3h-1.646v2.168zM37.02 12.271h1.08V8.002h-1.014V6.585h2.462v.917c.432-.7 1.33-1.15 2.427-1.15 1.58 0 2.711 1 2.711 2.618v3.301h1.081v1.418h-3.675V12.27h1.13V9.37c0-1.234-.748-1.584-1.43-1.584-1.114 0-2.228.834-2.228 2.117v2.368h1.13v1.418H37.02V12.27M47.78 8.002h-1.846V6.585h1.846V4.017h1.463v2.568h3.442v1.417h-3.442v2.985c0 1.101.765 1.551 1.646 1.551.832 0 1.53-.467 2.046-.984l.981 1.018c-.648.7-1.646 1.35-3.027 1.35-1.779 0-3.11-.984-3.11-2.884V8.002M61.899 8.653c-.167-.567-.582-.9-1.131-.9-1.28 0-2.495.95-2.495 2.684v1.834h2.462v1.418h-5.488V12.27h1.563V8.002h-1.23V6.585h2.677v1.2c.449-.833 1.364-1.433 2.578-1.433 1.363 0 2.211.784 2.46 1.9l-1.396.4M71.744 12.605c-.731.767-2.029 1.317-3.476 1.317-2.378 0-4.04-1.6-4.04-3.785 0-2.184 1.613-3.785 3.858-3.785 2.228 0 3.791 1.717 3.791 4.052v.25h-6.103c.25 1.184 1.23 1.9 2.511 1.9 1.064 0 1.979-.433 2.478-.983l.981 1.034m-5.903-3.202h4.356a2.152 2.152 0 0 0-2.111-1.7c-1.131 0-1.996.7-2.245 1.7M80.841 12.605c-.732.767-2.029 1.317-3.476 1.317-2.378 0-4.04-1.6-4.04-3.785 0-2.184 1.612-3.785 3.857-3.785 2.229 0 3.792 1.717 3.792 4.052v.25h-6.103c.25 1.184 1.23 1.9 2.511 1.9 1.065 0 1.979-.433 2.478-.983l.981 1.034m-5.904-3.202h4.357a2.152 2.152 0 0 0-2.112-1.7c-1.13 0-1.995.7-2.245 1.7"/>
    </g>
</svg>
