<svg xmlns="http://www.w3.org/2000/svg" width="31" height="30" viewBox="0 0 31 30">
    <g fill="none" fill-rule="evenodd" transform="translate(.8)">
        <circle cx="15" cy="15" r="15" fill="#333" fill-rule="nonzero"/>
        <path fill="#FFF" d="M19.904 11.008a.901.901 0 1 1-1.803-.005.901.901 0 0 1 1.803.005m-4.925 6.479a2.488 2.488 0 1 1 .044-4.976 2.488 2.488 0 0 1-.044 4.976m.026-6.334A3.848 3.848 0 1 0 15 18.85a3.848 3.848 0 0 0 .004-7.697m5.999 7.608c-.2 1.312-1.07 2.123-2.389 2.267-1.21.133-6.616.206-7.739-.108-1.073-.3-1.688-1.039-1.866-2.12-.17-1.033-.213-6.192-.003-7.573.198-1.3 1.068-2.11 2.379-2.256 1.329-.149 6.112-.166 7.386.03 1.308.2 2.118 1.072 2.263 2.392.133 1.231.171 6.045-.031 7.368m1.38-7.498c-.1-.987-.479-1.861-1.213-2.56-.771-.738-1.716-1.063-2.75-1.118-1.765-.097-5.953-.157-7.423.083-1.68.274-2.782 1.254-3.247 2.914-.358 1.277-.286 7.162-.078 8.424.285 1.725 1.305 2.832 3.015 3.272 1.184.306 7.001.267 8.307.055 1.727-.279 2.838-1.293 3.287-3 .343-1.31.223-6.888.103-8.07"/>
    </g>
</svg>
