<svg xmlns="http://www.w3.org/2000/svg" xmlns:xlink="http://www.w3.org/1999/xlink" width="34" height="25" viewBox="0 0 34 25">
    <defs>
        <path id="a" d="M0 25h32.813V0H0z"/>
    </defs>
    <g fill="none" fill-rule="evenodd">
        <path fill="#000" d="M5.79 24.855v-1.684c0-.634-.402-1.061-1.05-1.067-.34-.006-.69.1-.936.478-.184-.298-.474-.478-.88-.478-.285 0-.564.084-.781.398v-.33h-.58v2.683h.585v-1.487c0-.466.256-.714.653-.714.384 0 .58.253.58.708v1.493h.585v-1.487c0-.466.267-.714.652-.714.396 0 .585.253.585.708v1.493h.586zm8.664-2.683h-.948v-.815h-.586v.815h-.54v.533h.54v1.224c0 .623.24.994.925.994.252 0 .542-.078.725-.208l-.167-.5c-.173.101-.362.152-.513.152-.29 0-.384-.18-.384-.45v-1.212h.948v-.533zm4.945-.068a.784.784 0 0 0-.702.393v-.325h-.575v2.683h.58v-1.504c0-.444.19-.691.568-.691.118 0 .24.017.363.067l.179-.55a1.224 1.224 0 0 0-.413-.073zm-7.477.281c-.279-.185-.663-.28-1.087-.28-.675 0-1.11.325-1.11.858 0 .438.324.708.92.792l.274.04c.317.044.468.129.468.28 0 .208-.212.326-.608.326-.401 0-.691-.13-.886-.28l-.274.454c.318.235.72.348 1.154.348.77 0 1.216-.365 1.216-.876 0-.472-.351-.719-.931-.803l-.273-.04c-.251-.033-.452-.083-.452-.263 0-.197.19-.314.507-.314.34 0 .67.129.831.23l.251-.472zm15.534-.28c-.335 0-.552.157-.703.392v-.325h-.574v2.683h.58v-1.504c0-.444.19-.691.568-.691.118 0 .24.017.363.067l.179-.55a1.225 1.225 0 0 0-.413-.073zm-7.471 1.408c0 .815.562 1.41 1.421 1.41.402 0 .67-.09.959-.32l-.278-.472a1.166 1.166 0 0 1-.698.242c-.463-.006-.803-.343-.803-.86 0-.516.34-.853.803-.859.252 0 .48.084.698.242l.278-.472c-.29-.23-.557-.32-.959-.32-.859 0-1.421.595-1.421 1.41zm5.43 0v-1.341h-.58v.325c-.184-.241-.462-.393-.842-.393-.747 0-1.333.59-1.333 1.41s.586 1.409 1.333 1.409c.38 0 .658-.152.842-.393v.325h.58v-1.342zm-2.158 0c0-.471.307-.859.809-.859.479 0 .802.371.802.86 0 .488-.323.859-.802.859-.502 0-.809-.388-.809-.86zm-6.997-1.409c-.781 0-1.327.573-1.327 1.41 0 .853.568 1.409 1.366 1.409.402 0 .77-.1 1.093-.376l-.284-.433a1.27 1.27 0 0 1-.776.281c-.373 0-.713-.174-.797-.657h1.98c.005-.073.01-.146.01-.225-.005-.836-.518-1.409-1.265-1.409zm-.011.523c.373 0 .613.235.674.65H15.54c.062-.387.296-.65.709-.65zm14.547.886v-2.42h-.58v1.404c-.184-.241-.463-.393-.842-.393-.747 0-1.333.59-1.333 1.41s.586 1.409 1.333 1.409c.38 0 .658-.152.842-.393v.325h.58v-1.342zm-2.158 0c0-.471.307-.859.808-.859.48 0 .803.371.803.86 0 .488-.323.859-.803.859-.501 0-.808-.388-.808-.86zm-19.582 0v-1.341h-.58v.325c-.183-.241-.462-.393-.841-.393-.748 0-1.333.59-1.333 1.41s.585 1.409 1.333 1.409c.379 0 .658-.152.841-.393v.325h.58v-1.342zm-2.158 0c0-.471.307-.859.809-.859.48 0 .803.371.803.86 0 .488-.324.859-.803.859-.502 0-.809-.388-.809-.86zm24.864.954a.266.266 0 0 1 .19.078.255.255 0 0 1 .058.085.254.254 0 0 1 .021.103.271.271 0 0 1-.164.245.268.268 0 0 1-.356-.349.258.258 0 0 1 .058-.084.268.268 0 0 1 .193-.079zm0 .474a.209.209 0 0 0 .08-.4.214.214 0 0 0-.16 0 .203.203 0 0 0-.11.11.2.2 0 0 0-.017.082.2.2 0 0 0 .016.081.2.2 0 0 0 .11.11c.025.012.052.017.081.017zm.016-.332a.11.11 0 0 1 .073.02.07.07 0 0 1 .025.059c0 .02-.006.037-.02.05a.1.1 0 0 1-.058.025l.08.093h-.062l-.075-.092h-.024v.092h-.053v-.247h.114zm-.061.046v.066h.06a.065.065 0 0 0 .034-.008.03.03 0 0 0 .012-.025c0-.011-.005-.02-.012-.025a.059.059 0 0 0-.034-.008h-.06z"/>
        <path fill="#F79410" d="M32.27 16.625v-.83h.154v-.169h-.393v.17h.154v.829h.085zm.761 0v-1h-.12l-.139.687-.138-.687h-.12v1h.085v-.754l.13.65h.088l.13-.652v.756h.084z"/>
        <mask id="b" fill="#fff">
            <use xlink:href="#a"/>
        </mask>
        <path fill="#FF5F00" d="M11.719 17.969h8.594V2.344h-8.594z" mask="url(#b)"/>
        <path fill="#EB001B" d="M12.533 9.766c0-3.115 1.515-5.89 3.873-7.678A10.344 10.344 0 0 0 10.14 0C4.54 0 0 4.372 0 9.766c0 5.393 4.54 9.765 10.14 9.765 2.365 0 4.542-.78 6.266-2.088-2.358-1.788-3.873-4.562-3.873-7.677" mask="url(#b)"/>
        <path fill="#F79E1B" d="M32.813 9.766c0 5.393-4.54 9.765-10.14 9.765-2.365 0-4.541-.78-6.267-2.088 2.36-1.788 3.874-4.562 3.874-7.677 0-3.115-1.515-5.89-3.874-7.678A10.347 10.347 0 0 1 22.673 0c5.6 0 10.14 4.372 10.14 9.766" mask="url(#b)"/>
    </g>
</svg>
