<svg xmlns="http://www.w3.org/2000/svg" xmlns:xlink="http://www.w3.org/1999/xlink" width="58" height="16" viewBox="0 0 58 16">
    <defs>
        <path id="a" d="M.408.42h7.715V8.42H.408z"/>
        <path id="c" d="M.249.264h3.68v8.8H.248z"/>
        <path id="e" d="M0 .396h11.206v12.91H0z"/>
    </defs>
    <g fill="none" fill-rule="evenodd">
        <path fill="#253B80" d="M21.689 6.655c-.17 1.196-1.015 1.196-1.833 1.196h-.466l.327-2.235a.264.264 0 0 1 .254-.234h.213c.558 0 1.083 0 1.355.343.162.205.212.51.15.93m-.356-3.124h-3.086a.44.44 0 0 0-.424.391l-1.248 8.552c-.025.168.096.32.254.32h1.474a.44.44 0 0 0 .423-.39l.337-2.307a.44.44 0 0 1 .423-.392h.977c2.033 0 3.206-1.062 3.513-3.17.138-.921.005-1.645-.394-2.152-.438-.557-1.216-.852-2.25-.852M29.102 9.865c-.147.83-.837 1.388-1.716 1.388-.442 0-.795-.135-1.021-.392-.225-.255-.31-.617-.239-1.022.137-.822.838-1.398 1.704-1.398.432 0 .783.137 1.015.396.231.26.323.626.257 1.028m2.12-2.828H29.7c-.13 0-.242.09-.262.213l-.067.406-.106-.147c-.33-.457-1.064-.61-1.796-.61-1.681 0-3.116 1.217-3.396 2.923-.145.852.061 1.666.567 2.233.463.522 1.126.74 1.915.74 1.354 0 2.105-.833 2.105-.833l-.068.404c-.025.154.1.293.261.293h1.37c.218 0 .402-.15.436-.356l.822-4.974c.027-.154-.098-.292-.26-.292"/>
        <g transform="translate(31.486 6.058)">
            <mask id="b" fill="#fff">
                <use xlink:href="#a"/>
            </mask>
            <path fill="#253B80" d="M7.845.42H6.241a.472.472 0 0 0-.384.195L3.645 3.743 2.707.737A.462.462 0 0 0 2.263.42H.687C.495.42.362.6.423.772L2.19 5.75.529 8c-.13.177 0 .421.226.421h1.602a.466.466 0 0 0 .381-.191L8.074.838C8.2.662 8.07.42 7.845.42" mask="url(#b)"/>
        </g>
        <path fill="#179BD7" d="M44.89 6.655c-.17 1.196-1.015 1.196-1.834 1.196h-.465l.327-2.235a.263.263 0 0 1 .253-.234h.214c.556 0 1.083 0 1.355.343.161.205.21.51.15.93m-.357-3.124h-3.087a.44.44 0 0 0-.423.391l-1.248 8.552c-.026.168.096.32.253.32h1.584a.309.309 0 0 0 .296-.273l.355-2.424a.44.44 0 0 1 .423-.392h.977c2.033 0 3.206-1.062 3.512-3.17.14-.921.006-1.645-.394-2.152-.437-.557-1.215-.852-2.248-.852M51.472 9.865c-.146.83-.837 1.388-1.716 1.388-.442 0-.795-.135-1.022-.392-.224-.255-.31-.617-.238-1.022.138-.822.837-1.398 1.704-1.398.431 0 .783.137 1.014.396.233.26.325.626.258 1.028m2.12-2.828h-1.52a.26.26 0 0 0-.262.213l-.067.406-.107-.147c-.329-.457-1.063-.61-1.795-.61-1.681 0-3.116 1.217-3.396 2.923-.145.852.061 1.666.566 2.233.465.522 1.127.74 1.916.74 1.354 0 2.105-.833 2.105-.833l-.068.404c-.025.154.1.293.262.293h1.37c.217 0 .402-.15.435-.356l.823-4.974c.025-.154-.1-.292-.263-.292"/>
        <g transform="translate(53.857 3.531)">
            <mask id="d" fill="#fff">
                <use xlink:href="#c"/>
            </mask>
            <path fill="#179BD7" d="M1.706.487L.253 8.758c-.029.16.11.305.29.305h1.462c.243 0 .45-.157.486-.372L3.925.57c.028-.16-.11-.305-.291-.305H1.997c-.144 0-.268.095-.29.223" mask="url(#d)"/>
        </g>
        <path fill="#253B80" d="M3.674 14.479l.24-1.591-.534-.014H.829L2.6 1.134a.156.156 0 0 1 .05-.093.139.139 0 0 1 .094-.036h4.302c1.428 0 2.413.31 2.928.923.24.287.394.588.469.918.078.347.079.761.003 1.267l-.006.037v.323l.242.143c.203.113.364.242.488.389.206.246.34.558.396.928.058.381.04.834-.056 1.347-.11.59-.288 1.104-.529 1.524a3.08 3.08 0 0 1-.836.958c-.32.237-.699.417-1.128.532-.415.113-.889.17-1.408.17h-.335a.99.99 0 0 0-.654.251 1.07 1.07 0 0 0-.342.637l-.025.143-.423 2.804-.02.103c-.005.032-.013.049-.026.06a.072.072 0 0 1-.044.017H3.674z"/>
        <path fill="#179BD7" d="M10.411 4.374a8.23 8.23 0 0 1-.045.267c-.581 3.089-2.57 4.156-5.112 4.156H3.961a.635.635 0 0 0-.621.55l-.663 4.346-.187 1.232a.339.339 0 0 0 .327.396H5.11a.558.558 0 0 0 .545-.482l.023-.12.432-2.836.028-.156a.558.558 0 0 1 .545-.483h.343c2.223 0 3.964-.933 4.472-3.635.213-1.13.103-2.072-.46-2.735-.17-.2-.38-.365-.628-.5"/>
        <path fill="#222D65" d="M10.201 3.732a4.214 4.214 0 0 0-.53-.12 6.574 6.574 0 0 0-1.069-.08h-3.24a.504.504 0 0 0-.223.051.528.528 0 0 0-.287.396l-.69 4.475-.02.13a.594.594 0 0 1 .583-.511h1.213c2.381 0 4.246-.992 4.791-3.86.016-.085.03-.167.042-.248a2.867 2.867 0 0 0-.57-.233"/>
        <g transform="translate(0 .163)">
            <mask id="f" fill="#fff">
                <use xlink:href="#e"/>
            </mask>
            <path fill="#253B80" d="M4.647 4.1a.563.563 0 0 1 .56-.476H8.76c.421 0 .814.027 1.173.085a4.733 4.733 0 0 1 .716.17c.176.058.34.127.491.206.178-1.13-.001-1.898-.615-2.595C9.85.724 8.63.396 7.067.396H2.534a.647.647 0 0 0-.64.545L.003 12.858a.389.389 0 0 0 .385.448h2.799l.703-4.439.756-4.767z" mask="url(#f)"/>
        </g>
    </g>
</svg>
