<svg xmlns="http://www.w3.org/2000/svg" xmlns:xlink="http://www.w3.org/1999/xlink" width="33" height="12" viewBox="0 0 33 12">
    <defs>
        <path id="a" d="M0 .077h6.615v5.766H0z"/>
        <path id="c" d="M.02.116h7.905v10.388H.02z"/>
    </defs>
    <g fill="none" fill-rule="evenodd">
        <g transform="translate(0 .375)">
            <mask id="b" fill="#fff">
                <use xlink:href="#a"/>
            </mask>
            <path fill="#F4A929" d="M0 .23C.44.005.942.096 1.414.087 2.495.116 3.578.062 4.66.109c.487-.002.905.397.972.862.34 1.62.65 3.248.983 4.872-.55-1.903-2.003-3.457-3.711-4.445C2.001.864.994.553 0 .229" mask="url(#b)"/>
        </g>
        <path fill="#1B4DA2" d="M9.406.467c.938.01 1.873.006 2.809 0-1.423 3.35-2.75 6.74-4.203 10.077-.914-.028-1.827-.015-2.741-.015-.81-2.913-1.564-5.841-2.367-8.756 1.708.988 3.16 2.542 3.711 4.445.083.369.142.746.213 1.12.853-2.292 1.717-4.582 2.578-6.87M13.265.463c.881.006 1.762.006 2.643 0-.541 3.357-1.111 6.71-1.64 10.068-.877.002-1.753.002-2.632 0 .505-3.36 1.099-6.71 1.63-10.068"/>
        <g transform="translate(15.88 .16)">
            <mask id="d" fill="#fff">
                <use xlink:href="#c"/>
            </mask>
            <path fill="#1B4DA2" d="M2.534.935c1.58-1.023 3.644-.993 5.39-.427-.08.744-.206 1.481-.337 2.217-.928-.44-2.012-.635-3.02-.38-.478.112-.947.695-.551 1.132.813.82 2.094 1.007 2.86 1.901.888.856.855 2.296.25 3.297-.64 1.057-1.87 1.61-3.069 1.769-1.355.139-2.767.055-4.037-.461.134-.75.248-1.505.385-2.255 1.098.56 2.373.84 3.598.572.415-.137.844-.474.807-.954-.137-.572-.744-.817-1.216-1.076-.916-.444-1.902-.988-2.313-1.963-.51-1.233.166-2.676 1.253-3.372" mask="url(#d)"/>
        </g>
        <path fill="#1B4DA2" d="M27.079 1.494c.176-.463.524-.967 1.074-.995.81-.056 1.623-.008 2.432-.023.725 3.352 1.425 6.707 2.139 10.06l-2.441.004a70.97 70.97 0 0 1-.328-1.518c-1.13 0-2.256.002-3.383-.004-.18.508-.368 1.016-.561 1.52-.923 0-1.845 0-2.767.002 1.274-3.016 2.562-6.028 3.835-9.046zm.26 5.453c.732.002 1.46.002 2.191.002-.263-1.247-.583-2.486-.746-3.751-.55 1.222-.952 2.504-1.444 3.75z"/>
    </g>
</svg>
