<svg xmlns="http://www.w3.org/2000/svg" width="31" height="30" viewBox="0 0 31 30">
    <g fill="#333" fill-rule="nonzero">
        <path d="M15.6 0C7.35 0 .6 6.75.6 15s6.75 15 15 15 15-6.75 15-15-6.75-15-15-15zm7.5 15.563c0 1.218-.188 2.437-.188 2.437s-.187 1.031-.562 1.5c-.563.563-1.219.563-1.5.656-2.063.188-5.25.188-5.25.188s-3.938 0-5.063-.188c-.375-.093-1.125 0-1.687-.656-.469-.469-.563-1.5-.563-1.5S8.1 16.781 8.1 15.562v-1.124c0-1.22.187-2.438.187-2.438s.188-1.031.563-1.5c.562-.563 1.219-.563 1.5-.656 2.062-.188 5.25-.188 5.25-.188s3.187 0 5.25.188c.281 0 .937 0 1.5.656.469.469.562 1.5.562 1.5s.188 1.219.188 2.438v1.124z"/>
        <path d="M14.006 16.969l4.125-2.157-4.125-2.062z"/>
    </g>
</svg>
