<?xml version="1.0" encoding="UTF-8"?>
<svg width="39px" height="18px" viewBox="0 0 39 18" version="1.1" xmlns="http://www.w3.org/2000/svg" xmlns:xlink="http://www.w3.org/1999/xlink">
    <!-- Generator: Sketch 62 (91390) - https://sketch.com -->
    <title>Artboard</title>
    <desc>Created with Sketch.</desc>
    <g id="Artboard" stroke="none" stroke-width="1" fill="none" fill-rule="evenodd">
        <g id="Colour" transform="translate(2.000000, 2.000000)" fill-rule="nonzero">
            <path d="M17.5239309,10.898654 C17.3071352,10.9066587 17.0973437,10.820941 16.9482549,10.6631805 C16.8023347,10.503919 16.724455,10.2939607 16.7314592,10.0781656 C16.729458,9.8607028 16.7831566,9.64657534 16.8875521,9.45579512 C16.9792734,9.28519357 17.0911733,9.1264324 17.221084,8.98284693 L20.4436689,5.33934485 L17.6346635,5.33934485 C17.3625015,5.33934485 17.1677189,5.24595593 17.0609887,5.06051221 C16.9570935,4.87423466 16.9052293,4.66344253 16.9108993,4.4501489 C16.9033949,4.24469327 16.9625968,4.04223943 17.0796665,3.87313877 C17.1957356,3.71321024 17.3845146,3.62232281 17.5819655,3.6316617 L22.5449196,3.6316617 C22.7547111,3.62198928 22.9593329,3.69870161 23.1112567,3.84378797 C23.2520071,3.98453842 23.323383,4.18465753 23.323383,4.43814175 C23.3293865,4.63559261 23.2881954,4.83154258 23.2033115,5.00981537 C23.1219297,5.16524122 23.0197022,5.30882668 22.8997975,5.43673615 L19.5437999,9.19030375 L22.7236927,9.19030375 C22.9149732,9.18546754 23.0970816,9.27218582 23.2139845,9.42377606 C23.3385587,9.59321024 23.4014294,9.8 23.3920905,10.0101251 C23.4010959,10.228922 23.3487314,10.4460512 23.2406671,10.6364979 C23.1319357,10.8106015 22.9391543,10.899321 22.6683264,10.899321 L17.5239309,10.898654 L17.5239309,10.898654 Z" id="Path" fill="#23295E"></path>
            <path d="M25.3199047,10.9947111 C24.4367123,10.9947111 24.2526027,10.5411078 24.2526027,10.1608815 L24.2526027,4.61091126 C24.2526027,4.32073853 24.3399881,4.0859321 24.5134247,3.9131626 C24.6868612,3.74039309 24.9630256,3.65234068 25.3352472,3.65234068 C25.6487671,3.65234068 25.8969148,3.7237165 26.0736867,3.86513401 C26.2504586,4.00655152 26.348517,4.23468731 26.348517,4.52819535 L26.348517,10.1315307 C26.348517,10.4363788 26.2524598,10.6605122 26.0630137,10.7985944 C25.8735676,10.9366766 25.6300893,10.9947111 25.3199047,10.9947111 L25.3199047,10.9947111 Z M25.3199047,3.05665277 C24.9756998,3.05665277 24.6935319,2.95592615 24.4800715,2.75714116 C24.2666111,2.55835616 24.1552114,2.28419297 24.1552114,1.94732579 C24.1470399,1.648648 24.2644431,1.36030971 24.4787373,1.15218582 C24.6901965,0.944729005 24.9736986,0.838665873 25.3199047,0.838665873 C25.605408,0.839332936 25.8829065,0.932888624 26.1103752,1.10549136 C26.3585229,1.28826683 26.484598,1.57243597 26.484598,1.94999404 C26.484598,2.28686123 26.3751995,2.55969029 26.1597379,2.76047647 C25.9442764,2.96126266 25.6621084,3.05865396 25.3199047,3.05865396 L25.3199047,3.05665277 L25.3199047,3.05665277 Z" id="Shape" fill="#23295E"></path>
            <path d="M28.651221,13.1214771 C27.8253961,13.1214771 27.6506254,12.660536 27.6506254,12.2736391 L27.6506254,4.42279929 C27.6434544,4.17681954 27.7380107,3.93901132 27.9121144,3.76507445 C28.0848839,3.59230494 28.3617153,3.50425253 28.7339369,3.50425253 C28.965408,3.50191781 29.1942108,3.55494937 29.4010006,3.65901132 C29.6204646,3.77174509 29.7345325,3.99254318 29.7345325,4.30939845 C29.779059,4.25820131 29.826754,4.20583681 29.8779512,4.15197141 C30.0182013,4.00972007 30.1749613,3.88464562 30.3448958,3.77974985 C30.757975,3.52192972 31.23676,3.38851697 31.7237165,3.39552114 C32.1903276,3.38651578 32.6527695,3.48657534 33.0738535,3.68769506 C33.4592496,3.87797499 33.7947826,4.15580703 34.0537701,4.49884455 C34.3235974,4.86589637 34.5205479,5.28114354 34.6341155,5.72223943 C34.7640262,6.2207028 34.8277308,6.73400834 34.8235616,7.2491483 C34.8283979,7.77379392 34.7550208,8.29627159 34.6060989,8.79940441 C34.4745205,9.24633711 34.2583919,9.663919 33.9697201,10.0294699 C33.6915545,10.3740083 33.3390113,10.6510066 32.9384395,10.8399524 C32.5026802,11.0397379 32.027564,11.139464 31.5482787,11.1314592 C31.2272543,11.1406313 30.9070637,11.0956045 30.6010482,10.9980465 C30.3812507,10.9235021 30.1724598,10.8201072 29.9800119,10.6905301 C29.8757832,10.6196546 29.7795593,10.5376057 29.6931745,10.4457177 L29.6931745,12.2334485 C29.6931745,12.5443002 29.6084574,12.7737701 29.4410244,12.9151876 C29.2735914,13.0567719 29.0161048,13.1214771 28.651221,13.1214771 L28.651221,13.1214771 Z M31.1900655,5.17391304 C30.9627635,5.16840977 30.7377963,5.22144133 30.5370101,5.32800476 C30.3480643,5.43523526 30.1859678,5.58415724 30.0633949,5.76359738 C29.9256462,5.96655152 29.8250864,6.19251936 29.7665515,6.43066111 C29.6975104,6.70749256 29.6636569,6.99182847 29.6658249,7.27716498 C29.6658249,7.92688505 29.7992376,8.44786182 30.0660631,8.82608696 C30.3328886,9.20431209 30.6951042,9.38108398 31.1927338,9.38108398 C31.6903633,9.38108398 32.0525789,9.19163788 32.3040619,8.8014056 C32.555545,8.41117332 32.6896393,7.89153067 32.6896393,7.27716498 C32.6904586,6.9926623 32.6554378,6.70916021 32.5855628,6.43332936 C32.527028,6.19618821 32.4286361,5.9705539 32.294723,5.76626563 C32.1756522,5.58665873 32.0155569,5.43773675 31.8277784,5.33200715 C31.6323288,5.22544372 31.412698,5.17091126 31.1900655,5.17391304 L31.1900655,5.17391304 Z" id="Shape" fill="#23295E"></path>
            <path d="M13.0112448,5.45141155 L10.2616081,7.92488386 L3.4515545,7.92488386 C2.81634306,7.92405003 2.2028112,8.15552114 1.7265277,8.57593806 L5.16123883,5.4854318 L5.21393687,5.43873734 L9.51716498,1.56376415 C10.211078,0.939559261 11.1851578,0.733103038 12.0726861,1.02194163 C12.9602144,1.31078023 13.6261108,2.0510542 13.819726,2.96409768 C14.0133413,3.87714116 13.7051578,4.82403812 13.0112448,5.44807624 L13.0112448,5.45141155 L13.0112448,5.45141155 Z" id="Path" fill="#F15C3F"></path>
            <path d="M3.4515545,6.12247767 C4.89458011,6.12247767 6.06444312,4.95261465 6.06444312,3.50958904 C6.06444312,2.06656343 4.89458011,0.896700417 3.4515545,0.896700417 C2.00852889,0.896700417 0.838665873,2.06656343 0.838665873,3.50958904 C0.838665873,4.95261465 2.00852889,6.12247767 3.4515545,6.12247767 L3.4515545,6.12247767 Z" id="Path" fill="#F8991F"></path>
            <path d="M3.4515545,7.92488161 C2.81634306,7.92405003 2.2028112,8.15552114 1.7265277,8.57593806 L1.70451459,8.59594997 C0.631709351,9.56085765 0.544157236,11.2126742 1.50906492,12.2854795 C2.4739726,13.3582847 4.12578916,13.4458368 5.1985944,12.4809291 L10.2622752,7.92555092 L3.4515545,7.92488161 L3.4515545,7.92488161 Z" id="Path" fill="#23295E"></path>
            <path d="M10.2622752,7.92488386 L5.19792734,12.4802621 C4.71830852,12.9115188 4.09577129,13.1491602 3.45088743,13.1473363 L11.2642049,13.1473363 C12.7499226,13.123645 13.835402,11.9551161 13.835402,10.5347707 C13.835402,9.11442525 12.6908874,7.94506254 11.2642049,7.9222156 L10.2622752,7.92488386 L10.2622752,7.92488386 Z" id="Path" fill="#00AEB8"></path>
        </g>
    </g>
</svg>